<?xml version="1.0" encoding="UTF-8" standalone="no"?>
<!DOCTYPE svg PUBLIC "-//W3C//DTD SVG 1.1//EN" "http://www.w3.org/Graphics/SVG/1.1/DTD/svg11.dtd">
<svg width="100%" height="100%" viewBox="0 0 314 316" version="1.1" xmlns="http://www.w3.org/2000/svg" xmlns:xlink="http://www.w3.org/1999/xlink" xml:space="preserve" xmlns:serif="http://www.serif.com/" style="fill-rule:evenodd;clip-rule:evenodd;stroke-linejoin:round;stroke-miterlimit:2;">
    <g transform="matrix(1,0,0,1,-890.875,-125.511)">
        <g>
            <clipPath id="_clip1">
                <path d="M890.875,282.086C890.875,368.561 960.977,438.662 1047.45,438.662C1133.92,438.662 1204.03,368.561 1204.03,282.086C1204.03,195.612 1133.92,125.511 1047.45,125.511C960.977,125.511 890.875,195.612 890.875,282.086Z" clip-rule="nonzero"/>
            </clipPath>
            <g clip-path="url(#_clip1)">
                <g transform="matrix(0,-1,-1,0,1047.45,125.511)">
                    <path d="M-156.576,-156.576C-243.05,-156.576 -313.152,-86.475 -313.152,-0.001C-313.152,86.475 -243.05,156.576 -156.576,156.576C-70.102,156.576 0,86.475 0,-0.001C0,-86.475 -70.102,-156.576 -156.576,-156.576" style="fill:rgb(81,166,123);fill-rule:nonzero;"/>
                </g>
                <g transform="matrix(-0.605616,0.795757,0.795757,0.605616,1092.1,403.78)">
                    <path d="M7.03,-84.342C-2.446,-73.986 -12.961,-61.368 -21.249,-46.287C-49.488,-2.607 -10.854,31.129 7.03,51.868C41.181,7.592 74.633,-37.475 108.784,-81.747C82.516,-101.739 35.88,-116.14 7.03,-84.342" style="fill:rgb(54,54,54);"/>
                </g>
                <g transform="matrix(1,0,0,1,1052.52,437.422)">
                    <path d="M0,-70.307L-30.538,-74.203C-26.306,-54.621 -29.923,-19.525 -32.536,2.672C-32.679,3.896 -11.008,2.921 -8.66,2.901C0.345,2.829 19.174,3.653 19.788,2.81C20.703,1.555 16.197,-13.588 16.019,-28.534C15.843,-43.193 14.51,-63.682 12.723,-69.332L0,-70.307Z" style="fill:rgb(251,243,231);"/>
                </g>
                <g transform="matrix(1,0,0,1,1066,416.995)">
                    <path d="M0,-86.316L-42.037,-87.585C-42.242,-87.023 -39.811,-60.111 -38.825,-56.856C-37.257,-52.827 -23.072,-1.072 -18.299,-0.033C-12.389,1.269 -2.035,-51.102 -0.245,-58.327L0,-86.316Z" style="fill:rgb(209,174,113);"/>
                </g>
                <g transform="matrix(1,0,0,1,977.908,256.797)">
                    <path d="M0,23.538L-7.565,23.099C-7.399,29.07 -6.438,57.974 4.782,55.267C9.192,54.202 5.659,42.826 8.708,61.243C11.487,78.014 33.26,87.272 47.507,95.216C52.063,97.759 76.684,96.778 80.404,93.739C84.714,90.221 99.559,83.91 109.04,76.575C115.328,71.71 121.431,58.942 121.431,50.92C121.431,40.099 126.058,58.888 133.886,47.937C139.184,40.538 137.213,29.782 137.213,20.909L111.349,-50.985L68.827,-74.221L24.989,-65.016L2.191,-24.682L0,23.538Z" style="fill:rgb(245,220,173);"/>
                </g>
                <g transform="matrix(1,0,0,1,995.875,284.441)">
                    <path d="M0,-65.035L-7.452,-90.678C-7.403,-89.2 -18.497,-75.49 -18.411,-68.54C-18.396,-67.357 -27.707,-57.131 -27.399,-39.667C-27.304,-34.411 -33.404,-28.84 -28.99,-13.6C-27.998,-10.174 -30.06,-1.015 -26.663,9.82C-23.117,21.138 -19.637,12.095 -22.901,6.127C-23.71,4.655 -21.792,-7.349 -21.497,4.217C-21.454,5.936 -11.835,25.643 -11.835,7.997C-11.835,-12.142 -5.949,-16.935 -8.272,-39.753C-10.555,-62.178 0,-61.251 0,-65.035" style="fill:rgb(83,63,30);"/>
                </g>
                <g transform="matrix(1,0,0,1,1101.97,308.286)">
                    <path d="M0,-109.489L-7.671,-81.872C-8.246,-80.687 -6.87,-45.331 -4.747,-41.753C0.809,-32.403 -2.385,0 6.301,-20.275C10.629,-30.377 2.003,-32.802 12.713,-23.544C16.196,-20.531 17.097,-60.178 17.097,-63.676C15.409,-65.415 12.275,-68.659 12.275,-71.123C19.488,-76.098 10.021,-106.017 0,-109.489" style="fill:rgb(83,63,30);"/>
                </g>
                <g transform="matrix(1,0,0,1,1048.04,199.306)">
                    <path d="M0,-12.557C11.025,-41.215 -61.156,-54.324 -61.156,3.86C-61.156,9.502 -56.622,25.454 -62.033,27.777C-66.144,29.54 -55.193,41.767 -45.956,19.648C-42.61,11.634 -39.342,-9.368 -27.469,3.081C-20.121,10.789 -3.327,3.043 -0.22,-11.878L0,-12.557Z" style="fill:rgb(124,92,41);"/>
                </g>
                <g transform="matrix(1,0,0,1,1047.61,247.461)">
                    <path d="M0,-68.933C5.209,-72.116 3.371,-79.564 25.023,-76.457C45.406,-73.528 54.557,-57.347 57.683,-38.89C60.62,-21.544 65.049,-19.608 70.741,-5.277C77.057,10.631 39.386,-19.294 34.117,-31.082C21.939,-58.32 5.057,-46.982 -2.174,-51.305C-11.31,-56.765 -1.548,-67.99 0,-68.933" style="fill:rgb(124,92,41);"/>
                </g>
                <g transform="matrix(1,0,0,1,1045.63,357.628)">
                    <path d="M0,57.406C-1.999,54.104 -18.869,-3.203 -19.011,-3.125C-26.613,0.922 -40.226,5.989 -48.759,14.037C-56.888,21.707 -28.452,8.834 -22.802,12.698C-20.652,14.175 -6.174,60.609 0.622,60.609C0.638,60.433 0.178,57.7 0,57.406" style="fill:rgb(228,228,228);"/>
                </g>
                <g transform="matrix(1,0,0,1,1048.74,359.478)">
                    <path d="M0,54.523C2.001,51.213 16.814,-3.209 16.944,-3.119C24.961,2.589 37.538,4.341 46.073,12.391C54.201,20.065 26.385,8.84 20.737,12.712C18.586,14.181 6.178,57.732 -0.62,57.732C-0.636,57.544 -0.176,54.817 0,54.523" style="fill:rgb(228,228,228);"/>
                </g>
                <g transform="matrix(1,0,0,1,1140.77,367.637)">
                    <path d="M0,73.426L-30.641,73.752C-29.615,46.304 -38.972,6.625 -36.937,5.67C-24.152,-0.326 1.366,70.405 0,73.426" style="fill:rgb(251,243,231);"/>
                </g>
                <g transform="matrix(1,0,0,1,951.941,365.854)">
                    <path d="M0,74.797L32.503,74.497C31.888,51.195 32.918,17.392 33.212,11.794C33.837,0 -7.367,54.816 0,74.797" style="fill:rgb(251,243,231);"/>
                </g>
            </g>
        </g>
    </g>
</svg>
