<?xml version="1.0" encoding="UTF-8" standalone="no"?>
<!DOCTYPE svg PUBLIC "-//W3C//DTD SVG 1.1//EN" "http://www.w3.org/Graphics/SVG/1.1/DTD/svg11.dtd">
<svg width="100%" height="100%" viewBox="0 0 97 128" version="1.1" xmlns="http://www.w3.org/2000/svg" xmlns:xlink="http://www.w3.org/1999/xlink" xml:space="preserve" xmlns:serif="http://www.serif.com/" style="fill-rule:evenodd;clip-rule:evenodd;stroke-linejoin:round;stroke-miterlimit:2;">
    <g transform="matrix(1,0,0,1,-1528,-663)">
        <g>
            <g>
                <path d="M1611.3,790.2L1541.7,790.2C1534.2,790.2 1528.2,784.1 1528.2,776.7L1528.2,676.9C1528.2,669.4 1534.3,663.4 1541.7,663.4L1611.3,663.4C1618.8,663.4 1624.8,669.5 1624.8,676.9L1624.8,776.7C1624.8,784.1 1618.8,790.2 1611.3,790.2Z" style="fill:rgb(251,251,252);fill-rule:nonzero;"/>
                <path d="M1586.8,720.1C1581.8,715.9 1576.8,712.2 1576.5,710C1576.2,712.1 1571.2,715.8 1566.2,720.1C1561.2,724.3 1560.5,728 1562.8,732C1564.9,735.5 1567.4,736.6 1570.5,736.1C1572.4,735.8 1575.7,732.3 1575.7,732.3C1575,739.4 1566.8,743.5 1566.8,743.5L1586,743.5C1586,743.5 1577.8,739.4 1577.1,732.3C1577.1,732.3 1580.4,735.8 1582.3,736.1C1585.4,736.6 1587.9,735.4 1590,732C1592.5,728 1591.8,724.3 1586.8,720.1Z" style="fill:rgb(35,31,32);fill-rule:nonzero;"/>
                <g>
                    <g>
                        <g>
                            <g>
                                <path d="M1540.2,678.7L1535.9,678.7L1535.1,680.6C1534.9,681.1 1534.8,681.4 1534.8,681.7L1534.8,682C1534.8,682.1 1534.9,682.2 1535,682.2C1535.1,682.3 1535.2,682.3 1535.4,682.4C1535.6,682.4 1535.8,682.5 1536.1,682.5L1536.1,682.8L1532.6,682.8L1532.6,682.5C1532.9,682.5 1533.1,682.4 1533.3,682.3C1533.5,682.2 1533.6,682.1 1533.7,681.9C1533.8,681.7 1533.9,681.5 1534,681.3C1534.1,681.1 1534.2,680.7 1534.4,680.4L1538.3,670.4L1538.6,670.4L1542.5,680.5C1542.7,680.9 1542.8,681.3 1542.9,681.5C1543,681.8 1543.2,682 1543.3,682.1C1543.4,682.2 1543.6,682.3 1543.8,682.4C1544,682.5 1544.2,682.5 1544.4,682.5L1544.4,682.8L1540,682.8L1540,682.5C1540.4,682.5 1540.7,682.4 1540.9,682.3C1541.1,682.2 1541.1,682 1541.1,681.8C1541.1,681.5 1541,681.1 1540.8,680.5L1540.2,678.7ZM1539.9,678L1538,673.1L1536.1,678L1539.9,678Z" style="fill:rgb(35,31,32);fill-rule:nonzero;"/>
                            </g>
                        </g>
                    </g>
                    <path d="M1541.2,687.7C1539.9,686.6 1538.6,685.6 1538.5,685.1C1538.4,685.6 1537.1,686.6 1535.8,687.7C1534.5,688.8 1534.3,689.8 1534.9,690.8C1535.4,691.7 1536.1,692 1536.9,691.9C1537.4,691.8 1538.3,690.9 1538.3,690.9C1538.1,692.7 1536,693.8 1536,693.8L1541,693.8C1541,693.8 1538.9,692.7 1538.7,690.9C1538.7,690.9 1539.6,691.8 1540.1,691.9C1540.9,692 1541.6,691.7 1542.1,690.8C1542.7,689.8 1542.5,688.8 1541.2,687.7Z" style="fill:rgb(35,31,32);fill-rule:nonzero;"/>
                    <g>
                        <g>
                            <g>
                                <path d="M1616.8,773.1C1617,772.5 1617.1,772.1 1617.1,771.8C1617.1,771.6 1617,771.4 1616.9,771.3C1616.7,771.2 1616.4,771.1 1616,771.1L1616,770.8L1620.4,770.8L1620.4,771.1C1620.2,771.1 1620,771.1 1619.8,771.2C1619.6,771.3 1619.5,771.4 1619.3,771.5C1619.2,771.6 1619,771.8 1618.9,772.1C1618.8,772.4 1618.6,772.7 1618.5,773.1L1614.6,783.2L1614.3,783.2L1610.4,773.2C1610.3,772.8 1610.1,772.5 1610,772.3C1609.9,772.1 1609.8,771.8 1609.7,771.7C1609.6,771.5 1609.4,771.4 1609.3,771.3C1609.1,771.2 1608.9,771.1 1608.6,771.1L1608.6,770.8L1612.1,770.8L1612.1,771.1C1611.8,771.1 1611.6,771.2 1611.4,771.2C1611.2,771.2 1611.1,771.3 1611,771.4C1610.9,771.5 1610.8,771.5 1610.8,771.6L1610.8,771.9C1610.8,772.1 1610.9,772.5 1611.1,773L1611.9,774.9L1616.2,774.9L1616.8,773.1ZM1612.1,775.5L1614,780.4L1615.9,775.5L1612.1,775.5Z" style="fill:rgb(35,31,32);fill-rule:nonzero;"/>
                            </g>
                        </g>
                    </g>
                    <path d="M1617.2,765.8C1615.9,766.9 1614.6,767.9 1614.5,768.4C1614.4,767.9 1613.1,766.9 1611.8,765.8C1610.5,764.7 1610.3,763.7 1610.9,762.7C1611.4,761.8 1612.1,761.5 1612.9,761.6C1613.4,761.7 1614.3,762.6 1614.3,762.6C1614.1,760.8 1612,759.7 1612,759.7L1617,759.7C1617,759.7 1614.9,760.8 1614.7,762.6C1614.7,762.6 1615.6,761.7 1616.1,761.6C1616.9,761.5 1617.6,761.8 1618.1,762.7C1618.6,763.8 1618.5,764.7 1617.2,765.8Z" style="fill:rgb(35,31,32);fill-rule:nonzero;"/>
                </g>
            </g>
        </g>
    </g>
</svg>
