<?xml version="1.0" encoding="UTF-8" standalone="no"?>
<!DOCTYPE svg PUBLIC "-//W3C//DTD SVG 1.1//EN" "http://www.w3.org/Graphics/SVG/1.1/DTD/svg11.dtd">
<svg width="100%" height="100%" viewBox="0 0 97 128" version="1.1" xmlns="http://www.w3.org/2000/svg" xmlns:xlink="http://www.w3.org/1999/xlink" xml:space="preserve" xmlns:serif="http://www.serif.com/" style="fill-rule:evenodd;clip-rule:evenodd;stroke-linejoin:round;stroke-miterlimit:2;">
    <g transform="matrix(1,0,0,1,-438,-663)">
        <g>
            <path d="M521.5,790.2L451.9,790.2C444.4,790.2 438.4,784.1 438.4,776.7L438.4,676.9C438.4,669.4 444.5,663.4 451.9,663.4L521.5,663.4C529,663.4 535,669.5 535,676.9L535,776.7C535.1,784.1 529,790.2 521.5,790.2Z" style="fill:rgb(251,251,252);fill-rule:nonzero;"/>
            <g>
                <g>
                    <path d="M452.1,670.7L451.4,672.2L447.8,672.2L447,673.8C448.6,674 449.8,674.6 450.7,675.5C451.5,676.3 451.9,677.2 451.9,678.3C451.9,678.9 451.8,679.5 451.5,680C451.2,680.5 450.9,681 450.5,681.4C450.1,681.8 449.7,682.1 449.2,682.3C448.5,682.6 447.8,682.8 447.1,682.8C446.4,682.8 445.9,682.7 445.5,682.4C445.2,682.2 445,681.9 445,681.6C445,681.4 445.1,681.3 445.2,681.2C445.3,681.1 445.5,681 445.7,681C445.9,681 446,681 446.1,681.1C446.2,681.1 446.4,681.3 446.7,681.5C447.1,681.8 447.6,682 448,682C448.7,682 449.3,681.7 449.8,681.2C450.3,680.7 450.6,680 450.6,679.3C450.6,678.6 450.4,677.9 449.9,677.3C449.4,676.7 448.8,676.2 448,675.8C447.4,675.5 446.5,675.4 445.4,675.3L447.7,670.6L452.1,670.6L452.1,670.7Z" style="fill:rgb(35,31,32);fill-rule:nonzero;"/>
                </g>
            </g>
            <g>
                <g>
                    <path d="M521.4,782.8L522.1,781.3L525.7,781.3L526.5,779.7C524.9,779.5 523.7,778.9 522.8,778C522,777.2 521.6,776.3 521.6,775.2C521.6,774.6 521.7,774 522,773.5C522.3,773 522.6,772.5 523,772.1C523.4,771.7 523.8,771.4 524.3,771.2C525,770.9 525.7,770.7 526.4,770.7C527.1,770.7 527.6,770.8 528,771.1C528.3,771.3 528.5,771.6 528.5,771.9C528.5,772.1 528.4,772.2 528.3,772.3C528.2,772.4 528,772.5 527.8,772.5C527.6,772.5 527.5,772.5 527.4,772.4C527.3,772.4 527.1,772.2 526.8,772C526.4,771.7 525.9,771.5 525.5,771.5C524.8,771.5 524.2,771.8 523.7,772.3C523.2,772.8 522.9,773.5 522.9,774.2C522.9,774.9 523.1,775.6 523.6,776.2C524.1,776.8 524.7,777.3 525.5,777.7C526.1,778 527,778.1 528.1,778.2L525.8,782.9L521.4,782.9L521.4,782.8Z" style="fill:rgb(35,31,32);fill-rule:nonzero;"/>
                </g>
            </g>
            <g>
                <g>
                    <path d="M473.4,679.1C470.4,676.5 467.4,674.3 467.2,673C467,674.3 464,676.5 461,679.1C458,681.7 457.5,683.9 458.9,686.3C460.2,688.4 461.7,689.1 463.6,688.8C464.8,688.6 466.8,686.5 466.8,686.5C466.3,690.8 461.4,693.3 461.4,693.3L473.2,693.3C473.2,693.3 468.2,690.8 467.8,686.5C467.8,686.5 469.8,688.6 471,688.8C472.9,689.1 474.4,688.4 475.7,686.3C476.9,683.9 476.4,681.7 473.4,679.1Z" style="fill:rgb(35,31,32);fill-rule:nonzero;"/>
                    <path d="M460.9,774.4C463.9,777 466.9,779.2 467.1,780.5C467.3,779.2 470.3,777 473.3,774.4C476.3,771.8 476.8,769.6 475.4,767.2C474.1,765.1 472.6,764.4 470.7,764.7C469.5,764.9 467.5,767 467.5,767C468,762.7 472.9,760.2 472.9,760.2L461.1,760.2C461.1,760.2 466.1,762.7 466.5,767C466.5,767 464.5,764.9 463.3,764.7C461.4,764.4 459.9,765.1 458.6,767.2C457.5,769.6 457.9,771.8 460.9,774.4Z" style="fill:rgb(35,31,32);fill-rule:nonzero;"/>
                    <path d="M493,722.7C490,720.1 487,717.9 486.8,716.6C486.6,717.9 483.6,720.1 480.6,722.7C477.6,725.3 477.1,727.5 478.5,729.9C479.8,732 481.3,732.7 483.2,732.4C484.4,732.2 486.4,730.1 486.4,730.1C485.9,734.4 481,736.9 481,736.9L492.8,736.9C492.8,736.9 487.8,734.4 487.4,730.1C487.4,730.1 489.4,732.2 490.6,732.4C492.5,732.7 494,732 495.3,729.9C496.5,727.5 496,725.3 493,722.7Z" style="fill:rgb(35,31,32);fill-rule:nonzero;"/>
                </g>
                <g>
                    <path d="M512.6,679.1C509.6,676.5 506.6,674.3 506.4,673C506.2,674.3 503.2,676.5 500.2,679.1C497.2,681.7 496.7,683.9 498.1,686.3C499.4,688.4 500.9,689.1 502.8,688.8C504,688.6 506,686.5 506,686.5C505.5,690.8 500.6,693.3 500.6,693.3L512.4,693.3C512.4,693.3 507.4,690.8 507,686.5C507,686.5 509,688.6 510.2,688.8C512.1,689.1 513.6,688.4 514.9,686.3C516,683.9 515.6,681.7 512.6,679.1Z" style="fill:rgb(35,31,32);fill-rule:nonzero;"/>
                    <path d="M500.1,774.4C503.1,777 506.1,779.2 506.3,780.5C506.5,779.2 509.5,777 512.5,774.4C515.5,771.8 516,769.6 514.6,767.2C513.3,765.1 511.8,764.4 509.9,764.7C508.7,764.9 506.7,767 506.7,767C507.2,762.7 512.1,760.2 512.1,760.2L500.3,760.2C500.3,760.2 505.3,762.7 505.7,767C505.7,767 503.7,764.9 502.5,764.7C500.6,764.4 499.1,765.1 497.8,767.2C496.6,769.6 497,771.8 500.1,774.4Z" style="fill:rgb(35,31,32);fill-rule:nonzero;"/>
                </g>
            </g>
            <path d="M451.4,687.7C450.1,686.6 448.8,685.6 448.7,685.1C448.6,685.6 447.3,686.6 446,687.7C444.7,688.8 444.5,689.8 445.1,690.8C445.6,691.7 446.3,692 447.1,691.9C447.6,691.8 448.5,690.9 448.5,690.9C448.3,692.7 446.2,693.8 446.2,693.8L451.2,693.8C451.2,693.8 449.1,692.7 448.9,690.9C448.9,690.9 449.8,691.8 450.3,691.9C451.1,692 451.8,691.7 452.3,690.8C452.9,689.8 452.7,688.8 451.4,687.7Z" style="fill:rgb(35,31,32);fill-rule:nonzero;"/>
            <path d="M527.4,765.8C526.1,766.9 524.8,767.9 524.7,768.4C524.6,767.9 523.3,766.9 522,765.8C520.7,764.7 520.5,763.7 521.1,762.7C521.6,761.8 522.3,761.5 523.1,761.6C523.6,761.7 524.5,762.6 524.5,762.6C524.3,760.8 522.2,759.7 522.2,759.7L527.2,759.7C527.2,759.7 525.1,760.8 524.9,762.6C524.9,762.6 525.8,761.7 526.3,761.6C527.1,761.5 527.8,761.8 528.3,762.7C528.9,763.8 528.7,764.7 527.4,765.8Z" style="fill:rgb(35,31,32);fill-rule:nonzero;"/>
        </g>
    </g>
</svg>
