<?xml version="1.0" encoding="UTF-8" standalone="no"?>
<!DOCTYPE svg PUBLIC "-//W3C//DTD SVG 1.1//EN" "http://www.w3.org/Graphics/SVG/1.1/DTD/svg11.dtd">
<svg width="100%" height="100%" viewBox="0 0 98 128" version="1.1" xmlns="http://www.w3.org/2000/svg" xmlns:xlink="http://www.w3.org/1999/xlink" xml:space="preserve" xmlns:serif="http://www.serif.com/" style="fill-rule:evenodd;clip-rule:evenodd;stroke-linejoin:round;stroke-miterlimit:2;">
    <g transform="matrix(1,0,0,1,-801,-663)">
        <g>
            <path d="M884.8,790.2L815.2,790.2C807.7,790.2 801.7,784.1 801.7,776.7L801.7,676.9C801.7,669.4 807.8,663.4 815.2,663.4L884.8,663.4C892.3,663.4 898.3,669.5 898.3,676.9L898.3,776.7C898.3,784.1 892.3,790.2 884.8,790.2Z" style="fill:rgb(251,251,252);fill-rule:nonzero;"/>
            <g>
                <g>
                    <path d="M811,676.7C810.1,675.9 809.4,675.3 809.2,674.8C808.9,674.3 808.8,673.8 808.8,673.3C808.8,672.5 809.1,671.9 809.7,671.3C810.3,670.7 811.1,670.5 812.1,670.5C813.1,670.5 813.8,670.8 814.4,671.3C815,671.8 815.3,672.4 815.3,673.1C815.3,673.5 815.1,674 814.8,674.5C814.5,675 813.8,675.5 812.8,676.1C813.8,676.9 814.5,677.5 814.9,678C815.3,678.6 815.6,679.2 815.6,679.9C815.6,680.7 815.3,681.5 814.6,682.1C814,682.7 813.1,683 812.1,683C811,683 810.1,682.6 809.4,681.9C808.9,681.3 808.6,680.7 808.6,680C808.6,679.5 808.8,678.9 809.1,678.4C809.5,677.9 810.1,677.3 811,676.7ZM811.4,677C810.9,677.4 810.5,677.9 810.3,678.3C810.1,678.8 809.9,679.3 809.9,679.9C809.9,680.7 810.1,681.3 810.5,681.7C810.9,682.2 811.4,682.4 812.1,682.4C812.7,682.4 813.2,682.2 813.6,681.9C814,681.5 814.2,681.1 814.2,680.6C814.2,680.2 814.1,679.8 813.9,679.5C813.5,678.8 812.7,678 811.4,677ZM812.4,675.7C813.1,675.1 813.6,674.6 813.7,674.2C813.9,673.8 814,673.4 814,673C814,672.4 813.8,671.9 813.5,671.5C813.2,671.1 812.7,671 812.1,671C811.5,671 811,671.2 810.6,671.5C810.2,671.8 810,672.3 810,672.7C810,673 810.1,673.3 810.2,673.6C810.4,673.9 810.6,674.2 810.9,674.5L812.4,675.7Z" style="fill:rgb(35,31,32);fill-rule:nonzero;"/>
                </g>
            </g>
            <g>
                <g>
                    <path d="M889,776.8C889.9,777.6 890.6,778.2 890.8,778.7C891.1,779.2 891.2,779.7 891.2,780.2C891.2,781 890.9,781.6 890.3,782.2C889.7,782.8 888.9,783 887.9,783C886.9,783 886.2,782.7 885.6,782.2C885,781.7 884.7,781.1 884.7,780.4C884.7,780 884.9,779.5 885.2,779C885.5,778.5 886.2,778 887.2,777.4C886.2,776.6 885.5,776 885.1,775.5C884.7,774.9 884.4,774.3 884.4,773.6C884.4,772.8 884.7,772 885.4,771.4C886,770.8 886.9,770.5 887.9,770.5C889,770.5 889.9,770.9 890.6,771.6C891.1,772.2 891.4,772.8 891.4,773.5C891.4,774 891.2,774.6 890.9,775.1C890.5,775.6 889.9,776.2 889,776.8ZM888.6,776.5C889.1,776.1 889.5,775.6 889.7,775.2C889.9,774.7 890.1,774.2 890.1,773.6C890.1,772.8 889.9,772.2 889.5,771.8C889.1,771.3 888.6,771.1 887.9,771.1C887.3,771.1 886.8,771.3 886.4,771.6C886,772 885.8,772.4 885.8,772.9C885.8,773.3 885.9,773.7 886.1,774C886.5,774.7 887.3,775.5 888.6,776.5ZM887.6,777.8C886.9,778.4 886.4,778.9 886.3,779.3C886.1,779.7 886,780.1 886,780.5C886,781.1 886.2,781.6 886.5,782C886.8,782.4 887.3,782.5 887.9,782.5C888.5,782.5 889,782.3 889.4,782C889.8,781.7 890,781.2 890,780.8C890,780.5 889.9,780.2 889.8,779.9C889.6,779.6 889.4,779.3 889.1,779L887.6,777.8Z" style="fill:rgb(35,31,32);fill-rule:nonzero;"/>
                </g>
            </g>
            <path d="M814.7,687.7C813.4,686.6 812.1,685.6 812,685.1C811.9,685.6 810.6,686.6 809.3,687.7C808,688.8 807.8,689.8 808.4,690.8C808.9,691.7 809.6,692 810.4,691.9C810.9,691.8 811.8,690.9 811.8,690.9C811.6,692.7 809.5,693.8 809.5,693.8L814.5,693.8C814.5,693.8 812.4,692.7 812.2,690.9C812.2,690.9 813.1,691.8 813.6,691.9C814.4,692 815.1,691.7 815.6,690.8C816.2,689.8 816,688.8 814.7,687.7Z" style="fill:rgb(35,31,32);fill-rule:nonzero;"/>
            <path d="M890.6,765.8C889.3,766.9 888,767.9 887.9,768.4C887.8,767.9 886.5,766.9 885.2,765.8C883.9,764.7 883.7,763.7 884.3,762.7C884.8,761.8 885.5,761.5 886.3,761.6C886.8,761.7 887.7,762.6 887.7,762.6C887.5,760.8 885.4,759.7 885.4,759.7L890.4,759.7C890.4,759.7 888.3,760.8 888.1,762.6C888.1,762.6 889,761.7 889.5,761.6C890.3,761.5 891,761.8 891.5,762.7C892.1,763.8 891.9,764.7 890.6,765.8Z" style="fill:rgb(35,31,32);fill-rule:nonzero;"/>
            <g>
                <path d="M836.7,679.1C833.7,676.5 830.7,674.3 830.5,673C830.3,674.3 827.3,676.5 824.3,679.1C821.3,681.7 820.8,683.9 822.2,686.3C823.5,688.4 825,689.1 826.9,688.8C828.1,688.6 830.1,686.5 830.1,686.5C829.6,690.8 824.7,693.3 824.7,693.3L836.5,693.3C836.5,693.3 831.5,690.8 831.1,686.5C831.1,686.5 833.1,688.6 834.3,688.8C836.2,689.1 837.7,688.4 839,686.3C840.1,683.9 839.7,681.7 836.7,679.1Z" style="fill:rgb(35,31,32);fill-rule:nonzero;"/>
                <path d="M824.2,730.8C827.2,733.4 830.2,735.6 830.4,736.9C830.6,735.6 833.6,733.4 836.6,730.8C839.6,728.2 840.1,726 838.7,723.6C837.4,721.5 835.9,720.8 834,721.1C832.8,721.3 830.8,723.4 830.8,723.4C831.3,719.1 836.2,716.6 836.2,716.6L824.4,716.6C824.4,716.6 829.4,719.1 829.8,723.4C829.8,723.4 827.8,721.3 826.6,721.1C824.7,720.8 823.2,721.5 821.9,723.6C820.7,726 821.2,728.2 824.2,730.8Z" style="fill:rgb(35,31,32);fill-rule:nonzero;"/>
                <path d="M844.1,750.8C847.1,753.4 850.1,755.6 850.3,756.9C850.5,755.6 853.5,753.4 856.5,750.8C859.5,748.2 860,746 858.6,743.6C857.3,741.5 855.8,740.8 853.9,741.1C852.7,741.3 850.7,743.4 850.7,743.4C851.2,739.1 856.1,736.6 856.1,736.6L844.3,736.6C844.3,736.6 849.3,739.1 849.7,743.4C849.7,743.4 847.7,741.3 846.5,741.1C844.6,740.8 843.1,741.5 841.8,743.6C840.7,745.9 841.1,748.2 844.1,750.8Z" style="fill:rgb(35,31,32);fill-rule:nonzero;"/>
                <path d="M856.6,699.9C853.6,697.3 850.6,695.1 850.4,693.8C850.2,695.1 847.2,697.3 844.2,699.9C841.2,702.5 840.7,704.7 842.1,707.1C843.4,709.2 844.9,709.9 846.8,709.6C848,709.4 850,707.3 850,707.3C849.5,711.6 844.6,714.1 844.6,714.1L856.4,714.1C856.4,714.1 851.4,711.6 851,707.3C851,707.3 853,709.4 854.2,709.6C856.1,709.9 857.6,709.2 858.9,707.1C860.1,704.7 859.6,702.4 856.6,699.9Z" style="fill:rgb(35,31,32);fill-rule:nonzero;"/>
                <path d="M824.2,774.4C827.2,777 830.2,779.2 830.4,780.5C830.6,779.2 833.6,777 836.6,774.4C839.6,771.8 840.1,769.6 838.7,767.2C837.4,765.1 835.9,764.4 834,764.7C832.8,764.9 830.8,767 830.8,767C831.3,762.7 836.2,760.2 836.2,760.2L824.4,760.2C824.4,760.2 829.4,762.7 829.8,767C829.8,767 827.8,764.9 826.6,764.7C824.7,764.4 823.2,765.1 821.9,767.2C820.7,769.6 821.2,771.8 824.2,774.4Z" style="fill:rgb(35,31,32);fill-rule:nonzero;"/>
            </g>
            <g>
                <path d="M876.7,679.1C873.7,676.5 870.7,674.3 870.5,673C870.3,674.3 867.3,676.5 864.3,679.1C861.3,681.7 860.8,683.9 862.2,686.3C863.5,688.4 865,689.1 866.9,688.8C868.1,688.6 870.1,686.5 870.1,686.5C869.6,690.8 864.7,693.3 864.7,693.3L876.5,693.3C876.5,693.3 871.5,690.8 871.1,686.5C871.1,686.5 873.1,688.6 874.3,688.8C876.2,689.1 877.7,688.4 879,686.3C880.2,683.9 879.7,681.7 876.7,679.1Z" style="fill:rgb(35,31,32);fill-rule:nonzero;"/>
                <path d="M864.2,730.8C867.2,733.4 870.2,735.6 870.4,736.9C870.6,735.6 873.6,733.4 876.6,730.8C879.6,728.2 880.1,726 878.7,723.6C877.4,721.5 875.9,720.8 874,721.1C872.8,721.3 870.8,723.4 870.8,723.4C871.3,719.1 876.2,716.6 876.2,716.6L864.4,716.6C864.4,716.6 869.4,719.1 869.8,723.4C869.8,723.4 867.8,721.3 866.6,721.1C864.7,720.8 863.2,721.5 861.9,723.6C860.7,726 861.2,728.2 864.2,730.8Z" style="fill:rgb(35,31,32);fill-rule:nonzero;"/>
                <path d="M864.2,774.4C867.2,777 870.2,779.2 870.4,780.5C870.6,779.2 873.6,777 876.6,774.4C879.6,771.8 880.1,769.6 878.7,767.2C877.4,765.1 875.9,764.4 874,764.7C872.8,764.9 870.8,767 870.8,767C871.3,762.7 876.2,760.2 876.2,760.2L864.4,760.2C864.4,760.2 869.4,762.7 869.8,767C869.8,767 867.8,764.9 866.6,764.7C864.7,764.4 863.2,765.1 861.9,767.2C860.7,769.6 861.2,771.8 864.2,774.4Z" style="fill:rgb(35,31,32);fill-rule:nonzero;"/>
            </g>
        </g>
    </g>
</svg>
