<?xml version="1.0" encoding="UTF-8" standalone="no"?>
<!DOCTYPE svg PUBLIC "-//W3C//DTD SVG 1.1//EN" "http://www.w3.org/Graphics/SVG/1.1/DTD/svg11.dtd">
<svg width="100%" height="100%" viewBox="0 0 98 128" version="1.1" xmlns="http://www.w3.org/2000/svg" xmlns:xlink="http://www.w3.org/1999/xlink" xml:space="preserve" xmlns:serif="http://www.serif.com/" style="fill-rule:evenodd;clip-rule:evenodd;stroke-linejoin:round;stroke-miterlimit:2;">
    <g transform="matrix(1,0,0,1,-1043,-663)">
        <g>
            <path d="M1127,790.2L1057.4,790.2C1049.9,790.2 1043.9,784.1 1043.9,776.7L1043.9,676.9C1043.9,669.4 1050,663.4 1057.4,663.4L1127,663.4C1134.5,663.4 1140.5,669.5 1140.5,676.9L1140.5,776.7C1140.5,784.1 1134.4,790.2 1127,790.2Z" style="fill:rgb(251,251,252);fill-rule:nonzero;"/>
            <g>
                <g>
                    <path d="M1051.4,671.1L1053.8,669.9L1054,669.9L1054,678.1C1054,678.6 1054,679 1054.1,679.1C1054.1,679.2 1054.2,679.3 1054.4,679.4C1054.5,679.5 1054.8,679.5 1055.3,679.5L1055.3,679.8L1051.6,679.8L1051.6,679.5C1052.1,679.5 1052.4,679.5 1052.5,679.4C1052.6,679.3 1052.7,679.2 1052.8,679.1C1052.9,679 1052.9,678.6 1052.9,678L1052.9,673C1052.9,672.3 1052.9,671.8 1052.8,671.6C1052.8,671.4 1052.7,671.3 1052.6,671.3C1052.5,671.2 1052.4,671.2 1052.3,671.2C1052.1,671.2 1051.9,671.3 1051.6,671.4L1051.4,671.1Z" style="fill:rgb(35,31,32);fill-rule:nonzero;"/>
                    <path d="M1057.6,675.1C1057.6,674 1057.8,673 1058.1,672.2C1058.4,671.4 1058.9,670.8 1059.4,670.4C1059.8,670.1 1060.3,669.9 1060.7,669.9C1061.4,669.9 1062.1,670.3 1062.7,671C1063.4,671.9 1063.8,673.2 1063.8,674.8C1063.8,675.9 1063.6,676.9 1063.3,677.7C1063,678.5 1062.6,679.1 1062.1,679.4C1061.6,679.8 1061.1,679.9 1060.6,679.9C1059.7,679.9 1058.9,679.3 1058.3,678.2C1057.8,677.6 1057.6,676.4 1057.6,675.1ZM1059,675.3C1059,676.6 1059.2,677.7 1059.5,678.6C1059.8,679.3 1060.2,679.7 1060.7,679.7C1061,679.7 1061.2,679.6 1061.5,679.4C1061.8,679.2 1062,678.8 1062.1,678.2C1062.3,677.4 1062.4,676.2 1062.4,674.7C1062.4,673.6 1062.3,672.7 1062.1,671.9C1061.9,671.3 1061.7,671 1061.4,670.7C1061.2,670.5 1061,670.5 1060.7,670.5C1060.4,670.5 1060.1,670.6 1059.8,670.9C1059.5,671.3 1059.2,671.9 1059.1,672.8C1059.1,673.6 1059,674.5 1059,675.3Z" style="fill:rgb(35,31,32);fill-rule:nonzero;"/>
                </g>
            </g>
            <g>
                <g>
                    <path d="M1132.9,782.2L1130.4,783.4L1130.2,783.4L1130.2,774.9C1130.2,774.3 1130.2,774 1130.1,773.8C1130.1,773.7 1130,773.6 1129.8,773.5C1129.7,773.4 1129.3,773.4 1128.9,773.4L1128.9,773.1L1132.7,773.1L1132.7,773.4C1132.2,773.4 1131.9,773.5 1131.8,773.5C1131.7,773.6 1131.6,773.7 1131.5,773.8C1131.4,773.9 1131.4,774.3 1131.4,774.9L1131.4,780.4C1131.4,781.1 1131.4,781.6 1131.5,781.8C1131.5,782 1131.6,782.1 1131.7,782.2C1131.8,782.3 1131.9,782.3 1132,782.3C1132.2,782.3 1132.4,782.2 1132.8,782.1L1132.9,782.2Z" style="fill:rgb(35,31,32);fill-rule:nonzero;"/>
                    <path d="M1126.5,778.1C1126.5,779.3 1126.3,780.2 1126,781.1C1125.7,781.9 1125.2,782.6 1124.6,783C1124.2,783.3 1123.7,783.5 1123.2,783.5C1122.4,783.5 1121.7,783.1 1121.1,782.3C1120.3,781.3 1119.9,780 1119.9,778.3C1119.9,777.1 1120.1,776.1 1120.4,775.3C1120.7,774.5 1121.2,773.9 1121.7,773.5C1122.2,773.1 1122.7,772.9 1123.2,772.9C1124.2,772.9 1125,773.5 1125.6,774.6C1126.2,775.6 1126.5,776.8 1126.5,778.1ZM1125,777.9C1125,776.5 1124.8,775.4 1124.5,774.5C1124.2,773.8 1123.8,773.4 1123.2,773.4C1122.9,773.4 1122.7,773.5 1122.4,773.8C1122.1,774 1121.9,774.4 1121.7,775C1121.5,775.9 1121.4,777.1 1121.4,778.6C1121.4,779.8 1121.5,780.7 1121.8,781.5C1122,782.1 1122.2,782.5 1122.5,782.7C1122.7,782.9 1122.9,782.9 1123.2,782.9C1123.5,782.9 1123.8,782.7 1124.1,782.4C1124.5,782 1124.7,781.3 1124.8,780.5C1125,779.7 1125,778.8 1125,777.9Z" style="fill:rgb(35,31,32);fill-rule:nonzero;"/>
                </g>
            </g>
            <path d="M1056.8,687.7C1055.5,686.6 1054.2,685.6 1054.1,685.1C1054,685.6 1052.7,686.6 1051.4,687.7C1050.1,688.8 1049.9,689.8 1050.5,690.8C1051,691.7 1051.7,692 1052.5,691.9C1053,691.8 1053.9,690.9 1053.9,690.9C1053.7,692.7 1051.6,693.8 1051.6,693.8L1056.6,693.8C1056.6,693.8 1054.5,692.7 1054.3,690.9C1054.3,690.9 1055.2,691.8 1055.7,691.9C1056.5,692 1057.2,691.7 1057.7,690.8C1058.3,689.8 1058.1,688.8 1056.8,687.7Z" style="fill:rgb(35,31,32);fill-rule:nonzero;"/>
            <path d="M1132.8,765.8C1131.5,766.9 1130.2,767.9 1130.1,768.4C1130,767.9 1128.7,766.9 1127.4,765.8C1126.1,764.7 1125.9,763.7 1126.5,762.7C1127,761.8 1127.7,761.5 1128.5,761.6C1129,761.7 1129.9,762.6 1129.9,762.6C1129.7,760.8 1127.6,759.7 1127.6,759.7L1132.6,759.7C1132.6,759.7 1130.5,760.8 1130.3,762.6C1130.3,762.6 1131.2,761.7 1131.7,761.6C1132.5,761.5 1133.2,761.8 1133.7,762.7C1134.3,763.8 1134.1,764.7 1132.8,765.8Z" style="fill:rgb(35,31,32);fill-rule:nonzero;"/>
            <g>
                <g>
                    <path d="M1118.8,679.1C1115.8,676.5 1112.8,674.3 1112.6,673C1112.4,674.3 1109.4,676.5 1106.4,679.1C1103.4,681.7 1102.9,683.9 1104.3,686.3C1105.6,688.4 1107.1,689.1 1109,688.8C1110.2,688.6 1112.2,686.5 1112.2,686.5C1111.7,690.8 1106.8,693.3 1106.8,693.3L1118.6,693.3C1118.6,693.3 1113.6,690.8 1113.2,686.5C1113.2,686.5 1115.2,688.6 1116.4,688.8C1118.3,689.1 1119.8,688.4 1121.1,686.3C1122.2,683.9 1121.8,681.7 1118.8,679.1Z" style="fill:rgb(35,31,32);fill-rule:nonzero;"/>
                </g>
                <g>
                    <path d="M1118.8,707.4C1115.8,704.8 1112.8,702.6 1112.6,701.3C1112.4,702.6 1109.4,704.8 1106.4,707.4C1103.4,710 1102.9,712.2 1104.3,714.6C1105.6,716.7 1107.1,717.4 1109,717.1C1110.2,716.9 1112.2,714.8 1112.2,714.8C1111.7,719.1 1106.8,721.6 1106.8,721.6L1118.6,721.6C1118.6,721.6 1113.6,719.1 1113.2,714.8C1113.2,714.8 1115.2,716.9 1116.4,717.1C1118.3,717.4 1119.8,716.7 1121.1,714.6C1122.2,712.2 1121.8,710 1118.8,707.4Z" style="fill:rgb(35,31,32);fill-rule:nonzero;"/>
                </g>
                <g>
                    <path d="M1106.3,772.2C1109.3,774.8 1112.3,777 1112.5,778.3C1112.7,777 1115.7,774.8 1118.7,772.2C1121.7,769.6 1122.2,767.4 1120.8,765C1119.5,762.9 1118,762.2 1116.1,762.5C1114.9,762.7 1112.9,764.8 1112.9,764.8C1113.4,760.5 1118.3,758 1118.3,758L1106.5,758C1106.5,758 1111.5,760.5 1111.9,764.8C1111.9,764.8 1109.9,762.7 1108.7,762.5C1106.8,762.2 1105.3,762.9 1104,765C1102.8,767.4 1103.3,769.6 1106.3,772.2Z" style="fill:rgb(35,31,32);fill-rule:nonzero;"/>
                </g>
                <g>
                    <path d="M1106.3,743.9C1109.3,746.5 1112.3,748.7 1112.5,750C1112.7,748.7 1115.7,746.5 1118.7,743.9C1121.7,741.3 1122.2,739.1 1120.8,736.7C1119.5,734.6 1118,733.9 1116.1,734.2C1114.9,734.4 1112.9,736.5 1112.9,736.5C1113.4,732.2 1118.3,729.7 1118.3,729.7L1106.5,729.7C1106.5,729.7 1111.5,732.2 1111.9,736.5C1111.9,736.5 1109.9,734.4 1108.7,734.2C1106.8,733.9 1105.3,734.6 1104,736.7C1102.8,739 1103.3,741.3 1106.3,743.9Z" style="fill:rgb(35,31,32);fill-rule:nonzero;"/>
                </g>
                <g>
                    <path d="M1078.1,679.1C1075.1,676.5 1072.1,674.3 1071.9,673C1071.7,674.3 1068.7,676.5 1065.7,679.1C1062.7,681.7 1062.2,683.9 1063.6,686.3C1064.9,688.4 1066.4,689.1 1068.3,688.8C1069.5,688.6 1071.5,686.5 1071.5,686.5C1071,690.8 1066.1,693.3 1066.1,693.3L1077.9,693.3C1077.9,693.3 1072.9,690.8 1072.5,686.5C1072.5,686.5 1074.5,688.6 1075.7,688.8C1077.6,689.1 1079.1,688.4 1080.4,686.3C1081.5,683.9 1081.1,681.7 1078.1,679.1Z" style="fill:rgb(35,31,32);fill-rule:nonzero;"/>
                </g>
                <g>
                    <path d="M1078.1,707.4C1075.1,704.8 1072.1,702.6 1071.9,701.3C1071.7,702.6 1068.7,704.8 1065.7,707.4C1062.7,710 1062.2,712.2 1063.6,714.6C1064.9,716.7 1066.4,717.4 1068.3,717.1C1069.5,716.9 1071.5,714.8 1071.5,714.8C1071,719.1 1066.1,721.6 1066.1,721.6L1077.9,721.6C1077.9,721.6 1072.9,719.1 1072.5,714.8C1072.5,714.8 1074.5,716.9 1075.7,717.1C1077.6,717.4 1079.1,716.7 1080.4,714.6C1081.5,712.2 1081.1,710 1078.1,707.4Z" style="fill:rgb(35,31,32);fill-rule:nonzero;"/>
                </g>
                <g>
                    <g>
                        <path d="M1098.4,696.2C1095.4,693.6 1092.4,691.4 1092.2,690.1C1092,691.4 1089,693.6 1086,696.2C1083,698.8 1082.5,701 1083.9,703.4C1085.2,705.5 1086.7,706.2 1088.6,705.9C1089.8,705.7 1091.8,703.6 1091.8,703.6C1091.3,707.9 1086.4,710.4 1086.4,710.4L1098.2,710.4C1098.2,710.4 1093.2,707.9 1092.8,703.6C1092.8,703.6 1094.8,705.7 1096,705.9C1097.9,706.2 1099.4,705.5 1100.7,703.4C1101.9,701.1 1101.4,698.8 1098.4,696.2Z" style="fill:rgb(35,31,32);fill-rule:nonzero;"/>
                    </g>
                    <g>
                        <path d="M1085.9,757.3C1088.9,759.9 1091.9,762.1 1092.1,763.4C1092.3,762.1 1095.3,759.9 1098.3,757.3C1101.3,754.7 1101.8,752.5 1100.4,750.1C1099.1,748 1097.6,747.3 1095.7,747.6C1094.5,747.8 1092.5,749.9 1092.5,749.9C1093,745.6 1097.9,743.1 1097.9,743.1L1086.1,743.1C1086.1,743.1 1091.1,745.6 1091.5,749.9C1091.5,749.9 1089.5,747.8 1088.3,747.6C1086.4,747.3 1084.9,748 1083.6,750.1C1082.5,752.4 1082.9,754.7 1085.9,757.3Z" style="fill:rgb(35,31,32);fill-rule:nonzero;"/>
                    </g>
                </g>
                <g>
                    <path d="M1065.6,772.2C1068.6,774.8 1071.6,777 1071.8,778.3C1072,777 1075,774.8 1078,772.2C1081,769.6 1081.5,767.4 1080.1,765C1078.8,762.9 1077.3,762.2 1075.4,762.5C1074.2,762.7 1072.2,764.8 1072.2,764.8C1072.7,760.5 1077.6,758 1077.6,758L1065.8,758C1065.8,758 1070.8,760.5 1071.2,764.8C1071.2,764.8 1069.2,762.7 1068,762.5C1066.1,762.2 1064.6,762.9 1063.3,765C1062.1,767.4 1062.5,769.6 1065.6,772.2Z" style="fill:rgb(35,31,32);fill-rule:nonzero;"/>
                </g>
                <g>
                    <path d="M1065.6,743.9C1068.6,746.5 1071.6,748.7 1071.8,750C1072,748.7 1075,746.5 1078,743.9C1081,741.3 1081.5,739.1 1080.1,736.7C1078.8,734.6 1077.3,733.9 1075.4,734.2C1074.2,734.4 1072.2,736.5 1072.2,736.5C1072.7,732.2 1077.6,729.7 1077.6,729.7L1065.8,729.7C1065.8,729.7 1070.8,732.2 1071.2,736.5C1071.2,736.5 1069.2,734.4 1068,734.2C1066.1,733.9 1064.6,734.6 1063.3,736.7C1062.1,739 1062.5,741.3 1065.6,743.9Z" style="fill:rgb(35,31,32);fill-rule:nonzero;"/>
                </g>
            </g>
        </g>
    </g>
</svg>
