<?xml version="1.0" encoding="UTF-8" standalone="no"?>
<!DOCTYPE svg PUBLIC "-//W3C//DTD SVG 1.1//EN" "http://www.w3.org/Graphics/SVG/1.1/DTD/svg11.dtd">
<svg width="100%" height="100%" viewBox="0 0 98 128" version="1.1" xmlns="http://www.w3.org/2000/svg" xmlns:xlink="http://www.w3.org/1999/xlink" xml:space="preserve" xmlns:serif="http://www.serif.com/" style="fill-rule:evenodd;clip-rule:evenodd;stroke-linejoin:round;stroke-miterlimit:2;">
    <g transform="matrix(1,0,0,1,-680,-663)">
        <g>
            <path d="M763.7,790.2L694.1,790.2C686.6,790.2 680.6,784.1 680.6,776.7L680.6,676.9C680.6,669.4 686.7,663.4 694.1,663.4L763.7,663.4C771.2,663.4 777.2,669.5 777.2,676.9L777.2,776.7C777.2,784.1 771.2,790.2 763.7,790.2Z" style="fill:rgb(251,251,252);fill-rule:nonzero;"/>
            <g>
                <g>
                    <path d="M688.2,670.7L694.6,670.7L694.6,671L690.6,682.9L689.6,682.9L693.2,672.1L689.9,672.1C689.2,672.1 688.8,672.2 688.5,672.3C688,672.6 687.6,673 687.3,673.6L687,673.5L688.2,670.7Z" style="fill:rgb(35,31,32);fill-rule:nonzero;"/>
                </g>
            </g>
            <g>
                <g>
                    <path d="M769.6,782.8L763.2,782.8L763.2,782.5L767.2,770.6L768.2,770.6L764.6,781.4L767.9,781.4C768.6,781.4 769,781.3 769.3,781.2C769.8,780.9 770.2,780.5 770.5,779.9L770.8,780L769.6,782.8Z" style="fill:rgb(35,31,32);fill-rule:nonzero;"/>
                </g>
            </g>
            <path d="M693.6,687.7C692.3,686.6 691,685.6 690.9,685.1C690.8,685.6 689.5,686.6 688.2,687.7C686.9,688.8 686.7,689.8 687.3,690.8C687.8,691.7 688.5,692 689.3,691.9C689.8,691.8 690.7,690.9 690.7,690.9C690.5,692.7 688.4,693.8 688.4,693.8L693.4,693.8C693.4,693.8 691.3,692.7 691.1,690.9C691.1,690.9 692,691.8 692.5,691.9C693.3,692 694,691.7 694.5,690.8C695.1,689.8 694.9,688.8 693.6,687.7Z" style="fill:rgb(35,31,32);fill-rule:nonzero;"/>
            <path d="M769.6,765.8C768.3,766.9 767,767.9 766.9,768.4C766.8,767.9 765.5,766.9 764.2,765.8C762.9,764.7 762.7,763.7 763.3,762.7C763.8,761.8 764.5,761.5 765.3,761.6C765.8,761.7 766.7,762.6 766.7,762.6C766.5,760.8 764.4,759.7 764.4,759.7L769.4,759.7C769.4,759.7 767.3,760.8 767.1,762.6C767.1,762.6 768,761.7 768.5,761.6C769.3,761.5 770,761.8 770.5,762.7C771,763.8 770.8,764.7 769.6,765.8Z" style="fill:rgb(35,31,32);fill-rule:nonzero;"/>
            <g>
                <path d="M715.6,679.1C712.6,676.5 709.6,674.3 709.4,673C709.2,674.3 706.2,676.5 703.2,679.1C700.2,681.7 699.7,683.9 701.1,686.3C702.4,688.4 703.9,689.1 705.8,688.8C707,688.6 709,686.5 709,686.5C708.5,690.8 703.6,693.3 703.6,693.3L715.4,693.3C715.4,693.3 710.4,690.8 710,686.5C710,686.5 712,688.6 713.2,688.8C715.1,689.1 716.6,688.4 717.9,686.3C719.1,683.9 718.6,681.7 715.6,679.1Z" style="fill:rgb(35,31,32);fill-rule:nonzero;"/>
                <path d="M703.1,730.8C706.1,733.4 709.1,735.6 709.3,736.9C709.5,735.6 712.5,733.4 715.5,730.8C718.5,728.2 719,726 717.6,723.6C716.3,721.5 714.8,720.8 712.9,721.1C711.7,721.3 709.7,723.4 709.7,723.4C710.2,719.1 715.1,716.6 715.1,716.6L703.3,716.6C703.3,716.6 708.3,719.1 708.7,723.4C708.7,723.4 706.7,721.3 705.5,721.1C703.6,720.8 702.1,721.5 700.8,723.6C699.6,726 700.1,728.2 703.1,730.8Z" style="fill:rgb(35,31,32);fill-rule:nonzero;"/>
                <path d="M723.1,750.8C726.1,753.4 729.1,755.6 729.3,756.9C729.5,755.6 732.5,753.4 735.5,750.8C738.5,748.2 739,746 737.6,743.6C736.3,741.5 734.8,740.8 732.9,741.1C731.7,741.3 729.7,743.4 729.7,743.4C730.2,739.1 735.1,736.6 735.1,736.6L723.3,736.6C723.3,736.6 728.3,739.1 728.7,743.4C728.7,743.4 726.7,741.3 725.5,741.1C723.6,740.8 722.1,741.5 720.8,743.6C719.6,745.9 720,748.2 723.1,750.8Z" style="fill:rgb(35,31,32);fill-rule:nonzero;"/>
                <path d="M703.1,774.4C706.1,777 709.1,779.2 709.3,780.5C709.5,779.2 712.5,777 715.5,774.4C718.5,771.8 719,769.6 717.6,767.2C716.3,765.1 714.8,764.4 712.9,764.7C711.7,764.9 709.7,767 709.7,767C710.2,762.7 715.1,760.2 715.1,760.2L703.3,760.2C703.3,760.2 708.3,762.7 708.7,767C708.7,767 706.7,764.9 705.5,764.7C703.6,764.4 702.1,765.1 700.8,767.2C699.6,769.6 700.1,771.8 703.1,774.4Z" style="fill:rgb(35,31,32);fill-rule:nonzero;"/>
            </g>
            <g>
                <path d="M755.6,679.1C752.6,676.5 749.6,674.3 749.4,673C749.2,674.3 746.2,676.5 743.2,679.1C740.2,681.7 739.7,683.9 741.1,686.3C742.4,688.4 743.9,689.1 745.8,688.8C747,688.6 749,686.5 749,686.5C748.5,690.8 743.6,693.3 743.6,693.3L755.4,693.3C755.4,693.3 750.4,690.8 750,686.5C750,686.5 752,688.6 753.2,688.8C755.1,689.1 756.6,688.4 757.9,686.3C759.1,683.9 758.6,681.7 755.6,679.1Z" style="fill:rgb(35,31,32);fill-rule:nonzero;"/>
                <path d="M743.1,730.8C746.1,733.4 749.1,735.6 749.3,736.9C749.5,735.6 752.5,733.4 755.5,730.8C758.5,728.2 759,726 757.6,723.6C756.3,721.5 754.8,720.8 752.9,721.1C751.7,721.3 749.7,723.4 749.7,723.4C750.2,719.1 755.1,716.6 755.1,716.6L743.3,716.6C743.3,716.6 748.3,719.1 748.7,723.4C748.7,723.4 746.7,721.3 745.5,721.1C743.6,720.8 742.1,721.5 740.8,723.6C739.7,726 740.1,728.2 743.1,730.8Z" style="fill:rgb(35,31,32);fill-rule:nonzero;"/>
                <path d="M743.1,774.4C746.1,777 749.1,779.2 749.3,780.5C749.5,779.2 752.5,777 755.5,774.4C758.5,771.8 759,769.6 757.6,767.2C756.3,765.1 754.8,764.4 752.9,764.7C751.7,764.9 749.7,767 749.7,767C750.2,762.7 755.1,760.2 755.1,760.2L743.3,760.2C743.3,760.2 748.3,762.7 748.7,767C748.7,767 746.7,764.9 745.5,764.7C743.6,764.4 742.1,765.1 740.8,767.2C739.7,769.6 740.1,771.8 743.1,774.4Z" style="fill:rgb(35,31,32);fill-rule:nonzero;"/>
            </g>
        </g>
    </g>
</svg>
