<?xml version="1.0" encoding="UTF-8" standalone="no"?>
<!DOCTYPE svg PUBLIC "-//W3C//DTD SVG 1.1//EN" "http://www.w3.org/Graphics/SVG/1.1/DTD/svg11.dtd">
<svg width="100%" height="100%" viewBox="0 0 97 128" version="1.1" xmlns="http://www.w3.org/2000/svg" xmlns:xlink="http://www.w3.org/1999/xlink" xml:space="preserve" xmlns:serif="http://www.serif.com/" style="fill-rule:evenodd;clip-rule:evenodd;stroke-linejoin:round;stroke-miterlimit:2;">
    <g transform="matrix(1,0,0,1,-196,-663)">
        <g>
            <path d="M279.4,790.2L209.8,790.2C202.3,790.2 196.3,784.1 196.3,776.7L196.3,676.9C196.3,669.4 202.4,663.4 209.8,663.4L279.4,663.4C286.9,663.4 292.9,669.5 292.9,676.9L292.9,776.7C292.9,784.1 286.8,790.2 279.4,790.2Z" style="fill:rgb(251,251,252);fill-rule:nonzero;"/>
            <g>
                <g>
                    <path d="M203,673C203.3,672.2 203.8,671.6 204.3,671.1C204.8,670.7 205.5,670.4 206.2,670.4C207.2,670.4 207.9,670.7 208.4,671.3C208.8,671.8 209,672.3 209,672.8C209,673.7 208.5,674.6 207.4,675.5C208.1,675.8 208.7,676.2 209.1,676.7C209.5,677.2 209.7,677.9 209.7,678.6C209.7,679.6 209.4,680.5 208.7,681.3C207.8,682.3 206.6,682.8 205,682.8C204.2,682.8 203.6,682.7 203.4,682.5C203.1,682.3 203,682.1 203,681.9C203,681.7 203.1,681.6 203.2,681.4C203.3,681.3 203.5,681.2 203.7,681.2C203.8,681.2 204,681.2 204.1,681.3C204.2,681.3 204.4,681.4 204.8,681.6C205.2,681.8 205.4,681.9 205.5,681.9C205.7,682 205.9,682 206.2,682C206.8,682 207.3,681.8 207.8,681.3C208.2,680.8 208.5,680.3 208.5,679.7C208.5,679.2 208.4,678.8 208.2,678.3C208,678 207.9,677.7 207.7,677.6C207.4,677.4 207.1,677.2 206.7,677C206.3,676.8 205.8,676.7 205.3,676.7L205,676.7L205,676.4C205.5,676.3 205.9,676.2 206.4,675.9C206.9,675.6 207.2,675.3 207.4,674.9C207.6,674.5 207.7,674.1 207.7,673.6C207.7,673 207.5,672.5 207.1,672.1C206.7,671.7 206.2,671.5 205.7,671.5C204.8,671.5 204,672 203.4,673L203,673Z" style="fill:rgb(35,31,32);fill-rule:nonzero;"/>
                </g>
            </g>
            <g>
                <g>
                    <path d="M286.2,780.5C285.9,781.3 285.4,781.9 284.9,782.4C284.4,782.8 283.7,783.1 283,783.1C282,783.1 281.3,782.8 280.8,782.2C280.4,781.7 280.2,781.2 280.2,780.7C280.2,779.8 280.7,778.9 281.8,778C281.1,777.7 280.5,777.3 280.1,776.8C279.7,776.3 279.5,775.6 279.5,774.9C279.5,773.9 279.8,773 280.5,772.2C281.4,771.2 282.6,770.7 284.2,770.7C285,770.7 285.6,770.8 285.8,771C286.1,771.2 286.2,771.4 286.2,771.6C286.2,771.8 286.1,771.9 286,772.1C285.9,772.2 285.7,772.3 285.5,772.3C285.4,772.3 285.2,772.3 285.1,772.2C285,772.2 284.8,772.1 284.4,771.9C284,771.7 283.8,771.6 283.7,771.6C283.5,771.5 283.3,771.5 283,771.5C282.4,771.5 281.9,771.7 281.4,772.2C281,772.7 280.7,773.2 280.7,773.9C280.7,774.4 280.8,774.8 281,775.3C281.2,775.6 281.3,775.9 281.5,776C281.8,776.2 282.1,776.4 282.5,776.6C282.9,776.8 283.4,776.9 283.9,776.9L284.2,776.9L284.2,777.2C283.7,777.3 283.3,777.4 282.8,777.7C282.3,778 282,778.3 281.8,778.7C281.6,779.1 281.5,779.5 281.5,780C281.5,780.6 281.7,781.1 282.1,781.5C282.5,781.9 283,782.1 283.5,782.1C284.4,782.1 285.2,781.6 285.8,780.6L286.2,780.5Z" style="fill:rgb(35,31,32);fill-rule:nonzero;"/>
                </g>
            </g>
            <g>
                <path d="M250.8,679.1C247.8,676.5 244.8,674.3 244.6,673C244.4,674.3 241.4,676.5 238.4,679.1C235.4,681.7 234.9,683.9 236.3,686.3C237.6,688.4 239.1,689.1 241,688.8C242.2,688.6 244.2,686.5 244.2,686.5C243.7,690.8 238.8,693.3 238.8,693.3L250.6,693.3C250.6,693.3 245.6,690.8 245.2,686.5C245.2,686.5 247.2,688.6 248.4,688.8C250.3,689.1 251.8,688.4 253.1,686.3C254.3,683.9 253.8,681.7 250.8,679.1Z" style="fill:rgb(35,31,32);fill-rule:nonzero;"/>
                <path d="M238.3,730.8C241.3,733.4 244.3,735.6 244.5,736.9C244.7,735.6 247.7,733.4 250.7,730.8C253.7,728.2 254.2,726 252.8,723.6C251.5,721.5 250,720.8 248.1,721.1C246.9,721.3 244.9,723.4 244.9,723.4C245.4,719.1 250.3,716.6 250.3,716.6L238.5,716.6C238.5,716.6 243.5,719.1 243.9,723.4C243.9,723.4 241.9,721.3 240.7,721.1C238.8,720.8 237.3,721.5 236,723.6C234.9,726 235.3,728.2 238.3,730.8Z" style="fill:rgb(35,31,32);fill-rule:nonzero;"/>
                <path d="M238.3,774.4C241.3,777 244.3,779.2 244.5,780.5C244.7,779.2 247.7,777 250.7,774.4C253.7,771.8 254.2,769.6 252.8,767.2C251.5,765.1 250,764.4 248.1,764.7C246.9,764.9 244.9,767 244.9,767C245.4,762.7 250.3,760.2 250.3,760.2L238.5,760.2C238.5,760.2 243.5,762.7 243.9,767C243.9,767 241.9,764.9 240.7,764.7C238.8,764.4 237.3,765.1 236,767.2C234.9,769.6 235.3,771.8 238.3,774.4Z" style="fill:rgb(35,31,32);fill-rule:nonzero;"/>
            </g>
            <path d="M209.2,687.7C207.9,686.6 206.6,685.6 206.5,685.1C206.4,685.6 205.1,686.6 203.8,687.7C202.5,688.8 202.3,689.8 202.9,690.8C203.4,691.7 204.1,692 204.9,691.9C205.4,691.8 206.3,690.9 206.3,690.9C206.1,692.7 204,693.8 204,693.8L209,693.8C209,693.8 206.9,692.7 206.7,690.9C206.7,690.9 207.6,691.8 208.1,691.9C208.9,692 209.6,691.7 210.1,690.8C210.7,689.8 210.5,688.8 209.2,687.7Z" style="fill:rgb(35,31,32);fill-rule:nonzero;"/>
            <path d="M285.2,765.8C283.9,766.9 282.6,767.9 282.5,768.4C282.4,767.9 281.1,766.9 279.8,765.8C278.5,764.7 278.3,763.7 278.9,762.7C279.4,761.8 280.1,761.5 280.9,761.6C281.4,761.7 282.3,762.6 282.3,762.6C282.1,760.8 280,759.7 280,759.7L285,759.7C285,759.7 282.9,760.8 282.7,762.6C282.7,762.6 283.6,761.7 284.1,761.6C284.9,761.5 285.6,761.8 286.1,762.7C286.7,763.8 286.5,764.7 285.2,765.8Z" style="fill:rgb(35,31,32);fill-rule:nonzero;"/>
        </g>
    </g>
</svg>
