<?xml version="1.0" encoding="UTF-8" standalone="no"?>
<!DOCTYPE svg PUBLIC "-//W3C//DTD SVG 1.1//EN" "http://www.w3.org/Graphics/SVG/1.1/DTD/svg11.dtd">
<svg width="100%" height="100%" viewBox="0 0 97 128" version="1.1" xmlns="http://www.w3.org/2000/svg" xmlns:xlink="http://www.w3.org/1999/xlink" xml:space="preserve" xmlns:serif="http://www.serif.com/" style="fill-rule:evenodd;clip-rule:evenodd;stroke-linejoin:round;stroke-miterlimit:2;">
    <g transform="matrix(1,0,0,1,-75,-663)">
        <g>
            <path d="M158.3,790.2L88.7,790.2C81.2,790.2 75.2,784.1 75.2,776.7L75.2,676.9C75.2,669.4 81.3,663.4 88.7,663.4L158.3,663.4C165.8,663.4 171.8,669.5 171.8,676.9L171.8,776.7C171.8,784.1 165.7,790.2 158.3,790.2Z" style="fill:rgb(251,251,252);fill-rule:nonzero;"/>
            <g>
                <g>
                    <path d="M89.1,680.3L88.3,682.4L81.9,682.4L81.9,682.1C83.8,680.4 85.1,679 85.9,677.9C86.7,676.8 87.1,675.8 87.1,674.9C87.1,674.2 86.9,673.6 86.5,673.2C86.1,672.8 85.6,672.5 85,672.5C84.5,672.5 84,672.7 83.6,673C83.2,673.3 82.9,673.8 82.7,674.4L82.4,674.4C82.5,673.4 82.9,672.7 83.4,672.1C84,671.6 84.6,671.3 85.5,671.3C86.4,671.3 87.1,671.6 87.7,672.1C88.3,672.7 88.6,673.3 88.6,674.1C88.6,674.7 88.5,675.2 88.2,675.8C87.8,676.7 87.2,677.6 86.3,678.5C85,680 84.1,680.8 83.8,681.1L86.6,681.1C87.2,681.1 87.6,681.1 87.8,681C88,681 88.2,680.9 88.4,680.7C88.6,680.6 88.7,680.4 88.9,680.1L89.1,680.1L89.1,680.3Z" style="fill:rgb(35,31,32);fill-rule:nonzero;"/>
                </g>
            </g>
            <g>
                <g>
                    <path d="M157.9,772.9L158.7,770.8L165.1,770.8L165.1,771.1C163.2,772.8 161.9,774.2 161.1,775.3C160.3,776.4 159.9,777.4 159.9,778.3C159.9,779 160.1,779.6 160.5,780C160.9,780.4 161.4,780.7 162,780.7C162.5,780.7 163,780.5 163.4,780.2C163.8,779.9 164.1,779.4 164.3,778.8L164.6,778.8C164.5,779.8 164.1,780.5 163.6,781.1C163,781.6 162.4,781.9 161.5,781.9C160.6,781.9 159.9,781.6 159.3,781.1C158.7,780.5 158.4,779.9 158.4,779.1C158.4,778.5 158.5,778 158.8,777.4C159.2,776.5 159.8,775.6 160.7,774.7C162,773.2 162.9,772.4 163.2,772.1L160.4,772.1C159.8,772.1 159.4,772.1 159.2,772.2C159,772.2 158.8,772.3 158.6,772.5C158.4,772.6 158.3,772.8 158.1,773.1L157.9,773.1L157.9,772.9Z" style="fill:rgb(35,31,32);fill-rule:nonzero;"/>
                </g>
            </g>
            <g>
                <path d="M129.7,679.1C126.7,676.5 123.7,674.3 123.5,673C123.3,674.3 120.3,676.5 117.3,679.1C114.3,681.7 113.8,683.9 115.2,686.3C116.5,688.4 118,689.1 119.9,688.8C121.1,688.6 123.1,686.5 123.1,686.5C122.6,690.8 117.7,693.3 117.7,693.3L129.5,693.3C129.5,693.3 124.5,690.8 124.1,686.5C124.1,686.5 126.1,688.6 127.3,688.8C129.2,689.1 130.7,688.4 132,686.3C133.2,683.9 132.7,681.7 129.7,679.1Z" style="fill:rgb(35,31,32);fill-rule:nonzero;"/>
                <path d="M117.2,774.4C120.2,777 123.2,779.2 123.4,780.5C123.6,779.2 126.6,777 129.6,774.4C132.6,771.8 133.1,769.6 131.7,767.2C130.4,765.1 128.9,764.4 127,764.7C125.8,764.9 123.8,767 123.8,767C124.3,762.7 129.2,760.2 129.2,760.2L117.4,760.2C117.4,760.2 122.4,762.7 122.8,767C122.8,767 120.8,764.9 119.6,764.7C117.7,764.4 116.2,765.1 114.9,767.2C113.8,769.6 114.2,771.8 117.2,774.4Z" style="fill:rgb(35,31,32);fill-rule:nonzero;"/>
            </g>
            <path d="M88.2,687.7C86.9,686.6 85.6,685.6 85.5,685.1C85.4,685.6 84.1,686.6 82.8,687.7C81.5,688.8 81.3,689.8 81.9,690.8C82.4,691.7 83.1,692 83.9,691.9C84.4,691.8 85.3,690.9 85.3,690.9C85.1,692.7 83,693.8 83,693.8L88,693.8C88,693.8 85.9,692.7 85.7,690.9C85.7,690.9 86.6,691.8 87.1,691.9C87.9,692 88.6,691.7 89.1,690.8C89.6,689.8 89.4,688.8 88.2,687.7Z" style="fill:rgb(35,31,32);fill-rule:nonzero;"/>
            <path d="M164.1,765.8C162.8,766.9 161.5,767.9 161.4,768.4C161.3,767.9 160,766.9 158.7,765.8C157.4,764.7 157.2,763.7 157.8,762.7C158.3,761.8 159,761.5 159.8,761.6C160.3,761.7 161.2,762.6 161.2,762.6C161,760.8 158.9,759.7 158.9,759.7L163.9,759.7C163.9,759.7 161.8,760.8 161.6,762.6C161.6,762.6 162.5,761.7 163,761.6C163.8,761.5 164.5,761.8 165,762.7C165.6,763.8 165.4,764.7 164.1,765.8Z" style="fill:rgb(35,31,32);fill-rule:nonzero;"/>
        </g>
    </g>
</svg>
