<?xml version="1.0" encoding="UTF-8" standalone="no"?>
<!DOCTYPE svg PUBLIC "-//W3C//DTD SVG 1.1//EN" "http://www.w3.org/Graphics/SVG/1.1/DTD/svg11.dtd">
<svg width="100%" height="100%" viewBox="0 0 98 128" version="1.1" xmlns="http://www.w3.org/2000/svg" xmlns:xlink="http://www.w3.org/1999/xlink" xml:space="preserve" xmlns:serif="http://www.serif.com/" style="fill-rule:evenodd;clip-rule:evenodd;stroke-linejoin:round;stroke-miterlimit:2;">
    <g transform="matrix(1,0,0,1,-559,-663)">
        <g>
            <path d="M642.6,790.2L573,790.2C565.5,790.2 559.5,784.1 559.5,776.7L559.5,676.9C559.5,669.4 565.6,663.4 573,663.4L642.6,663.4C650.1,663.4 656.1,669.5 656.1,676.9L656.1,776.7C656.1,784.1 650.1,790.2 642.6,790.2Z" style="fill:rgb(251,251,252);fill-rule:nonzero;"/>
            <g>
                <g>
                    <path d="M573.4,670.4L573.4,670.8C572.6,670.9 572,671 571.5,671.3C571,671.5 570.5,671.9 570,672.4C569.5,672.9 569.1,673.4 568.8,674C568.5,674.6 568.2,675.3 568,676.1C568.8,675.5 569.7,675.2 570.6,675.2C571.4,675.2 572.1,675.5 572.7,676.2C573.3,676.9 573.6,677.7 573.6,678.7C573.6,679.7 573.3,680.6 572.7,681.4C572,682.4 571,682.9 569.8,682.9C569,682.9 568.3,682.6 567.7,682.1C566.6,681 566,679.7 566,678C566,676.9 566.2,675.9 566.6,674.9C567,673.9 567.6,673.1 568.4,672.3C569.2,671.6 570,671 570.7,670.8C571.4,670.5 572.1,670.4 572.7,670.4L573.4,670.4ZM567.9,676.7C567.8,677.5 567.7,678.1 567.7,678.6C567.7,679.2 567.8,679.8 568,680.4C568.2,681 568.5,681.6 568.9,682C569.2,682.3 569.6,682.4 570,682.4C570.5,682.4 571,682.2 571.4,681.7C571.8,681.2 572,680.5 572,679.6C572,678.6 571.8,677.7 571.4,677C571,676.3 570.4,675.9 569.7,675.9C569.5,675.9 569.2,675.9 569,676C568.8,676.2 568.4,676.4 567.9,676.7Z" style="fill:rgb(35,31,32);fill-rule:nonzero;"/>
                </g>
            </g>
            <g>
                <g>
                    <path d="M642.2,783.1L642.2,782.7C643,782.6 643.6,782.5 644.1,782.2C644.6,782 645.1,781.6 645.6,781.1C646.1,780.6 646.5,780.1 646.8,779.5C647.1,778.9 647.4,778.2 647.6,777.4C646.8,778 645.9,778.3 645,778.3C644.2,778.3 643.5,778 642.9,777.3C642.3,776.6 642,775.8 642,774.8C642,773.8 642.3,772.9 642.9,772.1C643.6,771.1 644.6,770.6 645.8,770.6C646.6,770.6 647.3,770.9 647.9,771.4C649,772.5 649.6,773.8 649.6,775.5C649.6,776.6 649.4,777.6 649,778.6C648.6,779.6 648,780.4 647.2,781.2C646.4,781.9 645.6,782.5 644.9,782.7C644.2,783 643.5,783.1 642.9,783.1L642.2,783.1ZM647.7,776.8C647.8,776 647.9,775.4 647.9,774.9C647.9,774.3 647.8,773.7 647.6,773.1C647.4,772.5 647.1,771.9 646.7,771.5C646.4,771.2 646,771.1 645.6,771.1C645.1,771.1 644.6,771.3 644.2,771.8C643.8,772.3 643.6,773 643.6,773.9C643.6,774.9 643.8,775.8 644.2,776.5C644.6,777.2 645.2,777.6 645.9,777.6C646.1,777.6 646.4,777.6 646.6,777.5C646.8,777.3 647.2,777.1 647.7,776.8Z" style="fill:rgb(35,31,32);fill-rule:nonzero;"/>
                </g>
            </g>
            <path d="M572.5,687.7C571.2,686.6 569.9,685.6 569.8,685.1C569.7,685.6 568.4,686.6 567.1,687.7C565.8,688.8 565.6,689.8 566.2,690.8C566.7,691.7 567.4,692 568.2,691.9C568.7,691.8 569.6,690.9 569.6,690.9C569.4,692.7 567.3,693.8 567.3,693.8L572.3,693.8C572.3,693.8 570.2,692.7 570,690.9C570,690.9 570.9,691.8 571.4,691.9C572.2,692 572.9,691.7 573.4,690.8C574,689.8 573.8,688.8 572.5,687.7Z" style="fill:rgb(35,31,32);fill-rule:nonzero;"/>
            <path d="M648.5,765.8C647.2,766.9 645.9,767.9 645.8,768.4C645.7,767.9 644.4,766.9 643.1,765.8C641.8,764.7 641.6,763.7 642.2,762.7C642.7,761.8 643.4,761.5 644.2,761.6C644.7,761.7 645.6,762.6 645.6,762.6C645.4,760.8 643.3,759.7 643.3,759.7L648.3,759.7C648.3,759.7 646.2,760.8 646,762.6C646,762.6 646.9,761.7 647.4,761.6C648.2,761.5 648.9,761.8 649.4,762.7C650,763.8 649.8,764.7 648.5,765.8Z" style="fill:rgb(35,31,32);fill-rule:nonzero;"/>
            <g>
                <path d="M594.5,679.1C591.5,676.5 588.5,674.3 588.3,673C588.1,674.3 585.1,676.5 582.1,679.1C579.1,681.7 578.6,683.9 580,686.3C581.3,688.4 582.8,689.1 584.7,688.8C585.9,688.6 587.9,686.5 587.9,686.5C587.4,690.8 582.5,693.3 582.5,693.3L594.3,693.3C594.3,693.3 589.3,690.8 588.9,686.5C588.9,686.5 590.9,688.6 592.1,688.8C594,689.1 595.5,688.4 596.8,686.3C598,683.9 597.5,681.7 594.5,679.1Z" style="fill:rgb(35,31,32);fill-rule:nonzero;"/>
                <path d="M582,730.8C585,733.4 588,735.6 588.2,736.9C588.4,735.6 591.4,733.4 594.4,730.8C597.4,728.2 597.9,726 596.5,723.6C595.2,721.5 593.7,720.8 591.8,721.1C590.6,721.3 588.6,723.4 588.6,723.4C589.1,719.1 594,716.6 594,716.6L582.2,716.6C582.2,716.6 587.2,719.1 587.6,723.4C587.6,723.4 585.6,721.3 584.4,721.1C582.5,720.8 581,721.5 579.7,723.6C578.5,726 579,728.2 582,730.8Z" style="fill:rgb(35,31,32);fill-rule:nonzero;"/>
                <path d="M582,774.4C585,777 588,779.2 588.2,780.5C588.4,779.2 591.4,777 594.4,774.4C597.4,771.8 597.9,769.6 596.5,767.2C595.2,765.1 593.7,764.4 591.8,764.7C590.6,764.9 588.6,767 588.6,767C589.1,762.7 594,760.2 594,760.2L582.2,760.2C582.2,760.2 587.2,762.7 587.6,767C587.6,767 585.6,764.9 584.4,764.7C582.5,764.4 581,765.1 579.7,767.2C578.5,769.6 579,771.8 582,774.4Z" style="fill:rgb(35,31,32);fill-rule:nonzero;"/>
            </g>
            <g>
                <path d="M634.5,679.1C631.5,676.5 628.5,674.3 628.3,673C628.1,674.3 625.1,676.5 622.1,679.1C619.1,681.7 618.6,683.9 620,686.3C621.3,688.4 622.8,689.1 624.7,688.8C625.9,688.6 627.9,686.5 627.9,686.5C627.4,690.8 622.5,693.3 622.5,693.3L634.3,693.3C634.3,693.3 629.3,690.8 628.9,686.5C628.9,686.5 630.9,688.6 632.1,688.8C634,689.1 635.5,688.4 636.8,686.3C638,683.9 637.5,681.7 634.5,679.1Z" style="fill:rgb(35,31,32);fill-rule:nonzero;"/>
                <path d="M622,730.8C625,733.4 628,735.6 628.2,736.9C628.4,735.6 631.4,733.4 634.4,730.8C637.4,728.2 637.9,726 636.5,723.6C635.2,721.5 633.7,720.8 631.8,721.1C630.6,721.3 628.6,723.4 628.6,723.4C629.1,719.1 634,716.6 634,716.6L622.2,716.6C622.2,716.6 627.2,719.1 627.6,723.4C627.6,723.4 625.6,721.3 624.4,721.1C622.5,720.8 621,721.5 619.7,723.6C618.6,726 619,728.2 622,730.8Z" style="fill:rgb(35,31,32);fill-rule:nonzero;"/>
                <path d="M622,774.4C625,777 628,779.2 628.2,780.5C628.4,779.2 631.4,777 634.4,774.4C637.4,771.8 637.9,769.6 636.5,767.2C635.2,765.1 633.7,764.4 631.8,764.7C630.6,764.9 628.6,767 628.6,767C629.1,762.7 634,760.2 634,760.2L622.2,760.2C622.2,760.2 627.2,762.7 627.6,767C627.6,767 625.6,764.9 624.4,764.7C622.5,764.4 621,765.1 619.7,767.2C618.6,769.6 619,771.8 622,774.4Z" style="fill:rgb(35,31,32);fill-rule:nonzero;"/>
            </g>
        </g>
    </g>
</svg>
