<?xml version="1.0" encoding="UTF-8" standalone="no"?>
<!DOCTYPE svg PUBLIC "-//W3C//DTD SVG 1.1//EN" "http://www.w3.org/Graphics/SVG/1.1/DTD/svg11.dtd">
<svg width="100%" height="100%" viewBox="0 0 97 128" version="1.1" xmlns="http://www.w3.org/2000/svg" xmlns:xlink="http://www.w3.org/1999/xlink" xml:space="preserve" xmlns:serif="http://www.serif.com/" style="fill-rule:evenodd;clip-rule:evenodd;stroke-linejoin:round;stroke-miterlimit:2;">
    <g transform="matrix(1,0,0,1,-317,-663)">
        <g>
            <path d="M400.4,790.2L330.8,790.2C323.3,790.2 317.3,784.1 317.3,776.7L317.3,676.9C317.3,669.4 323.4,663.4 330.8,663.4L400.4,663.4C407.9,663.4 413.9,669.5 413.9,676.9L413.9,776.7C414,784.1 407.9,790.2 400.4,790.2Z" style="fill:rgb(251,251,252);fill-rule:nonzero;"/>
            <g>
                <g>
                    <path d="M331.6,678.3L331.6,679.6L330,679.6L330,682.8L328.5,682.8L328.5,679.6L323.4,679.6L323.4,678.5L329,670.6L330,670.6L330,678.4L331.6,678.4L331.6,678.3ZM328.5,678.3L328.5,672.4L324.3,678.3L328.5,678.3Z" style="fill:rgb(35,31,32);fill-rule:nonzero;"/>
                </g>
            </g>
            <g>
                <g>
                    <path d="M399.7,775.2L399.7,774L401.3,774L401.3,770.8L402.8,770.8L402.8,774L407.9,774L407.9,775.1L402.3,783L401.3,783L401.3,775.2L399.7,775.2ZM402.8,775.2L402.8,781.1L407,775.2L402.8,775.2Z" style="fill:rgb(35,31,32);fill-rule:nonzero;"/>
                </g>
            </g>
            <g>
                <g>
                    <path d="M352.3,679.1C349.3,676.5 346.3,674.3 346.1,673C345.9,674.3 342.9,676.5 339.9,679.1C336.9,681.7 336.4,683.9 337.8,686.3C339.1,688.4 340.6,689.1 342.5,688.8C343.7,688.6 345.7,686.5 345.7,686.5C345.2,690.8 340.3,693.3 340.3,693.3L352.1,693.3C352.1,693.3 347.1,690.8 346.7,686.5C346.7,686.5 348.7,688.6 349.9,688.8C351.8,689.1 353.3,688.4 354.6,686.3C355.8,683.9 355.3,681.7 352.3,679.1Z" style="fill:rgb(35,31,32);fill-rule:nonzero;"/>
                    <path d="M339.8,774.4C342.8,777 345.8,779.2 346,780.5C346.2,779.2 349.2,777 352.2,774.4C355.2,771.8 355.7,769.6 354.3,767.2C353,765.1 351.5,764.4 349.6,764.7C348.4,764.9 346.4,767 346.4,767C346.9,762.7 351.8,760.2 351.8,760.2L340,760.2C340,760.2 345,762.7 345.4,767C345.4,767 343.4,764.9 342.2,764.7C340.3,764.4 338.8,765.1 337.5,767.2C336.4,769.6 336.8,771.8 339.8,774.4Z" style="fill:rgb(35,31,32);fill-rule:nonzero;"/>
                </g>
                <g>
                    <path d="M391.5,679.1C388.5,676.5 385.5,674.3 385.3,673C385.1,674.3 382.1,676.5 379.1,679.1C376.1,681.7 375.6,683.9 377,686.3C378.3,688.4 379.8,689.1 381.7,688.8C382.9,688.6 384.9,686.5 384.9,686.5C384.4,690.8 379.5,693.3 379.5,693.3L391.3,693.3C391.3,693.3 386.3,690.8 385.9,686.5C385.9,686.5 387.9,688.6 389.1,688.8C391,689.1 392.5,688.4 393.8,686.3C394.9,683.9 394.5,681.7 391.5,679.1Z" style="fill:rgb(35,31,32);fill-rule:nonzero;"/>
                    <path d="M379,774.4C382,777 385,779.2 385.2,780.5C385.4,779.2 388.4,777 391.4,774.4C394.4,771.8 394.9,769.6 393.5,767.2C392.2,765.1 390.7,764.4 388.8,764.7C387.6,764.9 385.6,767 385.6,767C386.1,762.7 391,760.2 391,760.2L379.2,760.2C379.2,760.2 384.2,762.7 384.6,767C384.6,767 382.6,764.9 381.4,764.7C379.5,764.4 378,765.1 376.7,767.2C375.5,769.6 376,771.8 379,774.4Z" style="fill:rgb(35,31,32);fill-rule:nonzero;"/>
                </g>
            </g>
            <path d="M330.3,687.7C329,686.6 327.7,685.6 327.6,685.1C327.5,685.6 326.2,686.6 324.9,687.7C323.6,688.8 323.4,689.8 324,690.8C324.5,691.7 325.2,692 326,691.9C326.5,691.8 327.4,690.9 327.4,690.9C327.2,692.7 325.1,693.8 325.1,693.8L330.1,693.8C330.1,693.8 328,692.7 327.8,690.9C327.8,690.9 328.7,691.8 329.2,691.9C330,692 330.7,691.7 331.2,690.8C331.8,689.8 331.6,688.8 330.3,687.7Z" style="fill:rgb(35,31,32);fill-rule:nonzero;"/>
            <path d="M406.3,765.8C405,766.9 403.7,767.9 403.6,768.4C403.5,767.9 402.2,766.9 400.9,765.8C399.6,764.7 399.4,763.7 400,762.7C400.5,761.8 401.2,761.5 402,761.6C402.5,761.7 403.4,762.6 403.4,762.6C403.2,760.8 401.1,759.7 401.1,759.7L406.1,759.7C406.1,759.7 404,760.8 403.8,762.6C403.8,762.6 404.7,761.7 405.2,761.6C406,761.5 406.7,761.8 407.2,762.7C407.8,763.8 407.6,764.7 406.3,765.8Z" style="fill:rgb(35,31,32);fill-rule:nonzero;"/>
        </g>
    </g>
</svg>
