<?xml version="1.0" encoding="UTF-8" standalone="no"?>
<!DOCTYPE svg PUBLIC "-//W3C//DTD SVG 1.1//EN" "http://www.w3.org/Graphics/SVG/1.1/DTD/svg11.dtd">
<svg width="100%" height="100%" viewBox="0 0 98 128" version="1.1" xmlns="http://www.w3.org/2000/svg" xmlns:xlink="http://www.w3.org/1999/xlink" xml:space="preserve" xmlns:serif="http://www.serif.com/" style="fill-rule:evenodd;clip-rule:evenodd;stroke-linejoin:round;stroke-miterlimit:2;">
    <g transform="matrix(1,0,0,1,-922,-663)">
        <g>
            <path d="M1005.9,790.2L936.3,790.2C928.8,790.2 922.8,784.1 922.8,776.7L922.8,676.9C922.8,669.4 928.9,663.4 936.3,663.4L1005.9,663.4C1013.4,663.4 1019.4,669.5 1019.4,676.9L1019.4,776.7C1019.4,784.1 1013.3,790.2 1005.9,790.2Z" style="fill:rgb(251,251,252);fill-rule:nonzero;"/>
            <g>
                <g>
                    <path d="M929.5,683L929.5,682.7C930.3,682.7 931,682.5 931.6,682.2C932.3,681.9 932.9,681.3 933.5,680.4C934.1,679.5 934.5,678.6 934.8,677.6C933.9,678.2 933,678.5 932.3,678.5C931.5,678.5 930.7,678.2 930.1,677.5C929.5,676.9 929.2,676 929.2,674.9C929.2,673.9 929.5,672.9 930.1,672.1C930.8,671.1 931.8,670.6 932.9,670.6C933.9,670.6 934.7,671 935.4,671.8C936.3,672.8 936.7,674 936.7,675.5C936.7,676.8 936.4,678.1 935.7,679.2C935,680.4 934.1,681.3 933,682.1C932.1,682.7 931,683 929.9,683L929.5,683ZM935,676.8C935.1,676 935.2,675.4 935.2,675C935.2,674.4 935.1,673.8 934.9,673.2C934.7,672.5 934.4,672 934.1,671.7C933.7,671.3 933.3,671.2 932.9,671.2C932.4,671.2 931.9,671.4 931.5,671.9C931.1,672.4 930.9,673.1 930.9,674C930.9,675.2 931.2,676.2 931.7,676.9C932.1,677.4 932.6,677.7 933.1,677.7C933.4,677.7 933.7,677.6 934.1,677.5C934.4,677.2 934.7,677 935,676.8Z" style="fill:rgb(35,31,32);fill-rule:nonzero;"/>
                </g>
            </g>
            <g>
                <g>
                    <path d="M1012.6,770.5L1012.6,770.8C1011.8,770.8 1011.1,771 1010.5,771.3C1009.8,771.6 1009.2,772.2 1008.6,773.1C1008,774 1007.6,774.9 1007.3,775.9C1008.2,775.3 1009.1,775 1009.8,775C1010.6,775 1011.4,775.3 1012,776C1012.6,776.6 1012.9,777.5 1012.9,778.6C1012.9,779.6 1012.6,780.6 1012,781.4C1011.3,782.4 1010.3,782.9 1009.2,782.9C1008.2,782.9 1007.4,782.5 1006.7,781.7C1005.8,780.7 1005.4,779.5 1005.4,778C1005.4,776.7 1005.7,775.4 1006.4,774.3C1007.1,773.1 1008,772.2 1009.1,771.4C1010,770.8 1011.1,770.5 1012.2,770.5L1012.6,770.5ZM1007.2,776.7C1007.1,777.5 1007,778.1 1007,778.5C1007,779.1 1007.1,779.7 1007.3,780.3C1007.5,781 1007.8,781.5 1008.1,781.8C1008.5,782.2 1008.9,782.3 1009.3,782.3C1009.8,782.3 1010.3,782.1 1010.7,781.6C1011.1,781.1 1011.3,780.4 1011.3,779.5C1011.3,778.3 1011,777.3 1010.5,776.6C1010.1,776.1 1009.6,775.8 1009.1,775.8C1008.8,775.8 1008.5,775.9 1008.1,776C1007.8,776.3 1007.4,776.5 1007.2,776.7Z" style="fill:rgb(35,31,32);fill-rule:nonzero;"/>
                </g>
            </g>
            <path d="M935.8,687.7C934.5,686.6 933.2,685.6 933.1,685.1C933,685.6 931.7,686.6 930.4,687.7C929.1,688.8 928.9,689.8 929.5,690.8C930,691.7 930.7,692 931.5,691.9C932,691.8 932.9,690.9 932.9,690.9C932.7,692.7 930.6,693.8 930.6,693.8L935.6,693.8C935.6,693.8 933.5,692.7 933.3,690.9C933.3,690.9 934.2,691.8 934.7,691.9C935.5,692 936.2,691.7 936.7,690.8C937.2,689.8 937,688.8 935.8,687.7Z" style="fill:rgb(35,31,32);fill-rule:nonzero;"/>
            <path d="M1011.7,765.8C1010.4,766.9 1009.1,767.9 1009,768.4C1008.9,767.9 1007.6,766.9 1006.3,765.8C1005,764.7 1004.8,763.7 1005.4,762.7C1005.9,761.8 1006.6,761.5 1007.4,761.6C1007.9,761.7 1008.8,762.6 1008.8,762.6C1008.6,760.8 1006.5,759.7 1006.5,759.7L1011.5,759.7C1011.5,759.7 1009.4,760.8 1009.2,762.6C1009.2,762.6 1010.1,761.7 1010.6,761.6C1011.4,761.5 1012.1,761.8 1012.6,762.7C1013.2,763.8 1013,764.7 1011.7,765.8Z" style="fill:rgb(35,31,32);fill-rule:nonzero;"/>
            <g>
                <g>
                    <path d="M997.7,679.1C994.7,676.5 991.7,674.3 991.5,673C991.3,674.3 988.3,676.5 985.3,679.1C982.3,681.7 981.8,683.9 983.2,686.3C984.5,688.4 986,689.1 987.9,688.8C989.1,688.6 991.1,686.5 991.1,686.5C990.6,690.8 985.7,693.3 985.7,693.3L997.5,693.3C997.5,693.3 992.5,690.8 992.1,686.5C992.1,686.5 994.1,688.6 995.3,688.8C997.2,689.1 998.7,688.4 1000,686.3C1001.2,683.9 1000.7,681.7 997.7,679.1Z" style="fill:rgb(35,31,32);fill-rule:nonzero;"/>
                </g>
                <g>
                    <path d="M997.7,707.4C994.7,704.8 991.7,702.6 991.5,701.3C991.3,702.6 988.3,704.8 985.3,707.4C982.3,710 981.8,712.2 983.2,714.6C984.5,716.7 986,717.4 987.9,717.1C989.1,716.9 991.1,714.8 991.1,714.8C990.6,719.1 985.7,721.6 985.7,721.6L997.5,721.6C997.5,721.6 992.5,719.1 992.1,714.8C992.1,714.8 994.1,716.9 995.3,717.1C997.2,717.4 998.7,716.7 1000,714.6C1001.2,712.2 1000.7,710 997.7,707.4Z" style="fill:rgb(35,31,32);fill-rule:nonzero;"/>
                </g>
                <g>
                    <path d="M985.2,772.2C988.2,774.8 991.2,777 991.4,778.3C991.6,777 994.6,774.8 997.6,772.2C1000.6,769.6 1001.1,767.4 999.7,765C998.4,762.9 996.9,762.2 995,762.5C993.8,762.7 991.8,764.8 991.8,764.8C992.3,760.5 997.2,758 997.2,758L985.4,758C985.4,758 990.4,760.5 990.8,764.8C990.8,764.8 988.8,762.7 987.6,762.5C985.7,762.2 984.2,762.9 982.9,765C981.7,767.4 982.2,769.6 985.2,772.2Z" style="fill:rgb(35,31,32);fill-rule:nonzero;"/>
                </g>
                <g>
                    <path d="M985.2,743.9C988.2,746.5 991.2,748.7 991.4,750C991.6,748.7 994.6,746.5 997.6,743.9C1000.6,741.3 1001.1,739.1 999.7,736.7C998.4,734.6 996.9,733.9 995,734.2C993.8,734.4 991.8,736.5 991.8,736.5C992.3,732.2 997.2,729.7 997.2,729.7L985.4,729.7C985.4,729.7 990.4,732.2 990.8,736.5C990.8,736.5 988.8,734.4 987.6,734.2C985.7,733.9 984.2,734.6 982.9,736.7C981.7,739 982.2,741.3 985.2,743.9Z" style="fill:rgb(35,31,32);fill-rule:nonzero;"/>
                </g>
                <g>
                    <path d="M957,679.1C954,676.5 951,674.3 950.8,673C950.6,674.3 947.6,676.5 944.6,679.1C941.6,681.7 941.1,683.9 942.5,686.3C943.8,688.4 945.3,689.1 947.2,688.8C948.4,688.6 950.4,686.5 950.4,686.5C949.9,690.8 945,693.3 945,693.3L956.8,693.3C956.8,693.3 951.8,690.8 951.4,686.5C951.4,686.5 953.4,688.6 954.6,688.8C956.5,689.1 958,688.4 959.3,686.3C960.4,683.9 960,681.7 957,679.1Z" style="fill:rgb(35,31,32);fill-rule:nonzero;"/>
                </g>
                <g>
                    <path d="M957,707.4C954,704.8 951,702.6 950.8,701.3C950.6,702.6 947.6,704.8 944.6,707.4C941.6,710 941.1,712.2 942.5,714.6C943.8,716.7 945.3,717.4 947.2,717.1C948.4,716.9 950.4,714.8 950.4,714.8C949.9,719.1 945,721.6 945,721.6L956.8,721.6C956.8,721.6 951.8,719.1 951.4,714.8C951.4,714.8 953.4,716.9 954.6,717.1C956.5,717.4 958,716.7 959.3,714.6C960.4,712.2 960,710 957,707.4Z" style="fill:rgb(35,31,32);fill-rule:nonzero;"/>
                </g>
                <g>
                    <path d="M977.3,720.2C974.3,717.6 971.3,715.4 971.1,714.1C970.9,715.4 967.9,717.6 964.9,720.2C961.9,722.8 961.4,725 962.8,727.4C964.1,729.5 965.6,730.2 967.5,729.9C968.7,729.7 970.7,727.6 970.7,727.6C970.2,731.9 965.3,734.4 965.3,734.4L977.1,734.4C977.1,734.4 972.1,731.9 971.7,727.6C971.7,727.6 973.7,729.7 974.9,729.9C976.8,730.2 978.3,729.5 979.6,727.4C980.8,725 980.4,722.8 977.3,720.2Z" style="fill:rgb(35,31,32);fill-rule:nonzero;"/>
                </g>
                <g>
                    <path d="M944.5,772.2C947.5,774.8 950.5,777 950.7,778.3C950.9,777 953.9,774.8 956.9,772.2C959.9,769.6 960.4,767.4 959,765C957.7,762.9 956.2,762.2 954.3,762.5C953.1,762.7 951.1,764.8 951.1,764.8C951.6,760.5 956.5,758 956.5,758L944.7,758C944.7,758 949.7,760.5 950.1,764.8C950.1,764.8 948.1,762.7 946.9,762.5C945,762.2 943.5,762.9 942.2,765C941,767.4 941.5,769.6 944.5,772.2Z" style="fill:rgb(35,31,32);fill-rule:nonzero;"/>
                </g>
                <g>
                    <path d="M944.5,743.9C947.5,746.5 950.5,748.7 950.7,750C950.9,748.7 953.9,746.5 956.9,743.9C959.9,741.3 960.4,739.1 959,736.7C957.7,734.6 956.2,733.9 954.3,734.2C953.1,734.4 951.1,736.5 951.1,736.5C951.6,732.2 956.5,729.7 956.5,729.7L944.7,729.7C944.7,729.7 949.7,732.2 950.1,736.5C950.1,736.5 948.1,734.4 946.9,734.2C945,733.9 943.5,734.6 942.2,736.7C941,739 941.5,741.3 944.5,743.9Z" style="fill:rgb(35,31,32);fill-rule:nonzero;"/>
                </g>
            </g>
        </g>
    </g>
</svg>
