<?xml version="1.0" encoding="UTF-8" standalone="no"?>
<!DOCTYPE svg PUBLIC "-//W3C//DTD SVG 1.1//EN" "http://www.w3.org/Graphics/SVG/1.1/DTD/svg11.dtd">
<svg width="100%" height="100%" viewBox="0 0 97 128" version="1.1" xmlns="http://www.w3.org/2000/svg" xmlns:xlink="http://www.w3.org/1999/xlink" xml:space="preserve" xmlns:serif="http://www.serif.com/" style="fill-rule:evenodd;clip-rule:evenodd;stroke-linejoin:round;stroke-miterlimit:2;">
    <g transform="matrix(1,0,0,1,-196,-304)">
        <g>
            <path d="M279.4,431.4L209.8,431.4C202.3,431.4 196.3,425.3 196.3,417.9L196.3,318.1C196.3,310.6 202.4,304.6 209.8,304.6L279.4,304.6C286.9,304.6 292.9,310.7 292.9,318.1L292.9,417.9C292.9,425.4 286.8,431.4 279.4,431.4Z" style="fill:rgb(251,251,252);fill-rule:nonzero;"/>
            <g>
                <path d="M203,314.3C203.3,313.5 203.8,312.9 204.3,312.4C204.8,312 205.5,311.7 206.2,311.7C207.2,311.7 207.9,312 208.4,312.6C208.8,313.1 209,313.6 209,314.1C209,315 208.5,315.9 207.4,316.8C208.1,317.1 208.7,317.5 209.1,318C209.5,318.5 209.7,319.2 209.7,319.9C209.7,320.9 209.4,321.8 208.7,322.6C207.8,323.6 206.6,324.1 205,324.1C204.2,324.1 203.6,324 203.4,323.8C203.1,323.6 203,323.4 203,323.2C203,323 203.1,322.9 203.2,322.7C203.3,322.6 203.5,322.5 203.7,322.5C203.8,322.5 204,322.5 204.1,322.6C204.2,322.6 204.4,322.7 204.8,322.9C205.2,323.1 205.4,323.2 205.5,323.2C205.7,323.3 205.9,323.3 206.2,323.3C206.8,323.3 207.3,323.1 207.8,322.6C208.2,322.1 208.5,321.6 208.5,320.9C208.5,320.4 208.4,320 208.2,319.5C208,319.2 207.9,318.9 207.7,318.8C207.4,318.6 207.1,318.4 206.7,318.2C206.3,318 205.8,317.9 205.3,317.9L205,317.9L205,317.6C205.5,317.5 205.9,317.4 206.4,317.1C206.9,316.8 207.2,316.5 207.4,316.1C207.6,315.7 207.7,315.3 207.7,314.8C207.7,314.2 207.5,313.7 207.1,313.3C206.7,312.9 206.2,312.7 205.7,312.7C204.8,312.7 204,313.2 203.4,314.2L203,314.3Z" style="fill:rgb(35,31,32);fill-rule:nonzero;"/>
            </g>
            <g>
                <path d="M286.2,421.7C285.9,422.5 285.4,423.1 284.9,423.6C284.4,424 283.7,424.3 283,424.3C282,424.3 281.3,424 280.8,423.4C280.4,422.9 280.2,422.4 280.2,421.9C280.2,421 280.7,420.1 281.8,419.2C281.1,418.9 280.5,418.5 280.1,418C279.7,417.5 279.5,416.8 279.5,416.1C279.5,415.1 279.8,414.2 280.5,413.4C281.4,412.4 282.6,411.9 284.2,411.9C285,411.9 285.6,412 285.8,412.2C286.1,412.4 286.2,412.6 286.2,412.8C286.2,413 286.1,413.1 286,413.3C285.9,413.4 285.7,413.5 285.5,413.5C285.4,413.5 285.2,413.5 285.1,413.4C285,413.4 284.8,413.3 284.4,413.1C284,412.9 283.8,412.8 283.7,412.8C283.5,412.7 283.3,412.7 283,412.7C282.4,412.7 281.9,412.9 281.4,413.4C281,413.9 280.7,414.4 280.7,415.1C280.7,415.6 280.8,416 281,416.5C281.2,416.8 281.3,417.1 281.5,417.2C281.8,417.4 282.1,417.6 282.5,417.8C282.9,418 283.4,418.1 283.9,418.1L284.2,418.1L284.2,418.4C283.7,418.5 283.3,418.6 282.8,418.9C282.3,419.2 282,419.5 281.8,419.9C281.6,420.3 281.5,420.7 281.5,421.2C281.5,421.8 281.7,422.3 282.1,422.7C282.5,423.1 283,423.3 283.5,423.3C284.4,423.3 285.2,422.8 285.8,421.8L286.2,421.7Z" style="fill:rgb(35,31,32);fill-rule:nonzero;"/>
            </g>
            <g>
                <path d="M248.5,331.6C250.9,331.6 252.8,329.7 252.8,327.3C252.8,325 251,323.1 248.7,323C248.8,322.6 248.9,322.2 248.9,321.8C248.9,319.4 247,317.5 244.6,317.5C242.2,317.5 240.3,319.4 240.3,321.8C240.3,322.2 240.4,322.6 240.5,323C238.2,323.1 236.4,325 236.4,327.3C236.4,329.7 238.3,331.6 240.7,331.6C242.2,331.6 243.5,330.8 244.3,329.7L244.3,329.8C243.9,333.2 239.4,335.2 239.4,335.2L249.8,335.2C249.8,335.2 245.3,333.2 244.9,329.8L244.9,329.7C245.7,330.9 247,331.6 248.5,331.6Z" style="fill:rgb(35,31,32);fill-rule:nonzero;"/>
                <path d="M240.6,404.4C238.2,404.4 236.3,406.3 236.3,408.7C236.3,411 238.1,412.9 240.4,413C240.3,413.4 240.2,413.8 240.2,414.2C240.2,416.6 242.1,418.5 244.5,418.5C246.9,418.5 248.8,416.6 248.8,414.2C248.8,413.8 248.7,413.4 248.6,413C250.9,412.9 252.7,411 252.7,408.7C252.7,406.3 250.8,404.4 248.4,404.4C246.9,404.4 245.6,405.2 244.8,406.3L244.8,406.2C245.2,402.8 249.7,400.8 249.7,400.8L239.3,400.8C239.3,400.8 243.8,402.8 244.2,406.2L244.2,406.3C243.4,405.1 242.1,404.4 240.6,404.4Z" style="fill:rgb(35,31,32);fill-rule:nonzero;"/>
                <path d="M240.6,362.7C238.2,362.7 236.3,364.6 236.3,367C236.3,369.3 238.1,371.2 240.4,371.3C240.3,371.7 240.2,372.1 240.2,372.5C240.2,374.9 242.1,376.8 244.5,376.8C246.9,376.8 248.8,374.9 248.8,372.5C248.8,372.1 248.7,371.7 248.6,371.3C250.9,371.2 252.7,369.3 252.7,367C252.7,364.6 250.8,362.7 248.4,362.7C246.9,362.7 245.6,363.5 244.8,364.6L244.8,364.5C245.2,361.1 249.7,359.1 249.7,359.1L239.3,359.1C239.3,359.1 243.8,361.1 244.2,364.5L244.2,364.6C243.4,363.5 242.1,362.7 240.6,362.7Z" style="fill:rgb(35,31,32);fill-rule:nonzero;"/>
            </g>
            <path d="M284.5,402.7C285.7,402.7 286.6,403.7 286.6,404.8C286.6,405.9 285.7,406.9 284.6,406.9C284.7,407.1 284.7,407.3 284.7,407.5C284.7,408.7 283.7,409.6 282.6,409.6C281.4,409.6 280.5,408.6 280.5,407.5C280.5,407.3 280.5,407.1 280.6,406.9C279.5,406.9 278.6,405.9 278.6,404.8C278.6,403.6 279.6,402.7 280.7,402.7C281.4,402.7 282.1,403.1 282.5,403.7C282.3,402 280.1,401 280.1,401L285.3,401C285.3,401 283.1,402 282.9,403.7C283.1,403.1 283.8,402.7 284.5,402.7Z" style="fill:rgb(35,31,32);fill-rule:nonzero;"/>
            <path d="M208.5,333.3C209.7,333.3 210.6,332.3 210.6,331.2C210.6,330.1 209.7,329.1 208.6,329.1C208.7,328.9 208.7,328.7 208.7,328.5C208.7,327.3 207.7,326.4 206.6,326.4C205.4,326.4 204.5,327.4 204.5,328.5C204.5,328.7 204.5,328.9 204.6,329.1C203.5,329.1 202.6,330.1 202.6,331.2C202.6,332.4 203.6,333.3 204.7,333.3C205.4,333.3 206.1,332.9 206.5,332.3C206.3,334 204.1,335 204.1,335L209.3,335C209.3,335 207.1,334 206.9,332.3C207.1,332.9 207.8,333.3 208.5,333.3Z" style="fill:rgb(35,31,32);fill-rule:nonzero;"/>
        </g>
    </g>
</svg>
