<?xml version="1.0" encoding="UTF-8" standalone="no"?>
<!DOCTYPE svg PUBLIC "-//W3C//DTD SVG 1.1//EN" "http://www.w3.org/Graphics/SVG/1.1/DTD/svg11.dtd">
<svg width="100%" height="100%" viewBox="0 0 97 128" version="1.1" xmlns="http://www.w3.org/2000/svg" xmlns:xlink="http://www.w3.org/1999/xlink" xml:space="preserve" xmlns:serif="http://www.serif.com/" style="fill-rule:evenodd;clip-rule:evenodd;stroke-linejoin:round;stroke-miterlimit:2;">
    <g transform="matrix(1,0,0,1,-317,-304)">
        <g>
            <path d="M400.4,431.4L330.8,431.4C323.3,431.4 317.3,425.3 317.3,417.9L317.3,318.1C317.3,310.6 323.4,304.6 330.8,304.6L400.4,304.6C407.9,304.6 413.9,310.7 413.9,318.1L413.9,417.9C414,425.4 407.9,431.4 400.4,431.4Z" style="fill:rgb(251,251,252);fill-rule:nonzero;"/>
            <g>
                <path d="M331.6,319.6L331.6,320.9L330,320.9L330,324.1L328.5,324.1L328.5,320.9L323.4,320.9L323.4,319.8L329,311.9L330,311.9L330,319.7L331.6,319.7L331.6,319.6ZM328.5,319.6L328.5,313.7L324.3,319.6L328.5,319.6Z" style="fill:rgb(35,31,32);fill-rule:nonzero;"/>
            </g>
            <g>
                <path d="M399.7,416.5L399.7,415.2L401.3,415.2L401.3,412L402.8,412L402.8,415.2L407.9,415.2L407.9,416.3L402.3,424.2L401.3,424.2L401.3,416.4L399.7,416.4L399.7,416.5ZM402.8,416.5L402.8,422.4L407,416.5L402.8,416.5Z" style="fill:rgb(35,31,32);fill-rule:nonzero;"/>
            </g>
            <g>
                <g>
                    <path d="M348.4,331.6C350.8,331.6 352.7,329.7 352.7,327.3C352.7,325 350.9,323.1 348.6,323C348.7,322.6 348.8,322.2 348.8,321.8C348.8,319.4 346.9,317.5 344.5,317.5C342.1,317.5 340.2,319.4 340.2,321.8C340.2,322.2 340.3,322.6 340.4,323C338.1,323.1 336.3,325 336.3,327.3C336.3,329.7 338.2,331.6 340.6,331.6C342.1,331.6 343.4,330.8 344.2,329.7L344.2,329.8C343.8,333.2 339.3,335.2 339.3,335.2L349.7,335.2C349.7,335.2 345.2,333.2 344.8,329.8L344.8,329.7C345.6,330.9 346.9,331.6 348.4,331.6Z" style="fill:rgb(35,31,32);fill-rule:nonzero;"/>
                    <path d="M340.4,404.4C338,404.4 336.1,406.3 336.1,408.7C336.1,411 337.9,412.9 340.2,413C340.1,413.4 340,413.8 340,414.2C340,416.6 341.9,418.5 344.3,418.5C346.7,418.5 348.6,416.6 348.6,414.2C348.6,413.8 348.5,413.4 348.4,413C350.7,412.9 352.5,411 352.5,408.7C352.5,406.3 350.6,404.4 348.2,404.4C346.7,404.4 345.4,405.2 344.6,406.3L344.6,406.2C345,402.8 349.5,400.8 349.5,400.8L339.1,400.8C339.1,400.8 343.6,402.8 344,406.2L344,406.3C343.3,405.1 341.9,404.4 340.4,404.4Z" style="fill:rgb(35,31,32);fill-rule:nonzero;"/>
                </g>
                <g>
                    <path d="M390.9,331.6C393.3,331.6 395.2,329.7 395.2,327.3C395.2,325 393.4,323.1 391.1,323C391.2,322.6 391.3,322.2 391.3,321.8C391.3,319.4 389.4,317.5 387,317.5C384.6,317.5 382.7,319.4 382.7,321.8C382.7,322.2 382.8,322.6 382.9,323C380.6,323.1 378.8,325 378.8,327.3C378.8,329.7 380.7,331.6 383.1,331.6C384.6,331.6 385.9,330.8 386.7,329.7L386.7,329.8C386.3,333.2 381.8,335.2 381.8,335.2L392.2,335.2C392.2,335.2 387.7,333.2 387.3,329.8L387.3,329.7C388,330.9 389.4,331.6 390.9,331.6Z" style="fill:rgb(35,31,32);fill-rule:nonzero;"/>
                    <path d="M382.9,404.4C380.5,404.4 378.6,406.3 378.6,408.7C378.6,411 380.4,412.9 382.7,413C382.6,413.4 382.5,413.8 382.5,414.2C382.5,416.6 384.4,418.5 386.8,418.5C389.2,418.5 391.1,416.6 391.1,414.2C391.1,413.8 391,413.4 390.9,413C393.2,412.9 395,411 395,408.7C395,406.3 393.1,404.4 390.7,404.4C389.2,404.4 387.9,405.2 387.1,406.3L387.1,406.2C387.5,402.8 392,400.8 392,400.8L381.6,400.8C381.6,400.8 386.1,402.8 386.5,406.2L386.5,406.3C385.8,405.1 384.4,404.4 382.9,404.4Z" style="fill:rgb(35,31,32);fill-rule:nonzero;"/>
                </g>
            </g>
            <path d="M405.6,402.7C406.8,402.7 407.7,403.7 407.7,404.8C407.7,405.9 406.8,406.9 405.7,406.9C405.8,407.1 405.8,407.3 405.8,407.5C405.8,408.7 404.8,409.6 403.7,409.6C402.5,409.6 401.6,408.6 401.6,407.5C401.6,407.3 401.6,407.1 401.7,406.9C400.6,406.9 399.7,405.9 399.7,404.8C399.7,403.6 400.7,402.7 401.8,402.7C402.5,402.7 403.2,403.1 403.6,403.7C403.4,402 401.2,401 401.2,401L406.4,401C406.4,401 404.2,402 404,403.7C404.2,403.1 404.9,402.7 405.6,402.7Z" style="fill:rgb(35,31,32);fill-rule:nonzero;"/>
            <path d="M329.6,333.3C330.8,333.3 331.7,332.3 331.7,331.2C331.7,330.1 330.8,329.1 329.7,329.1C329.8,328.9 329.8,328.7 329.8,328.5C329.8,327.3 328.8,326.4 327.7,326.4C326.5,326.4 325.6,327.4 325.6,328.5C325.6,328.7 325.6,328.9 325.7,329.1C324.6,329.1 323.7,330.1 323.7,331.2C323.7,332.4 324.7,333.3 325.8,333.3C326.5,333.3 327.2,332.9 327.6,332.3C327.4,334 325.2,335 325.2,335L330.4,335C330.4,335 328.2,334 328,332.3C328.2,332.9 328.9,333.3 329.6,333.3Z" style="fill:rgb(35,31,32);fill-rule:nonzero;"/>
        </g>
    </g>
</svg>
