<?xml version="1.0" encoding="UTF-8" standalone="no"?>
<!DOCTYPE svg PUBLIC "-//W3C//DTD SVG 1.1//EN" "http://www.w3.org/Graphics/SVG/1.1/DTD/svg11.dtd">
<svg width="100%" height="100%" viewBox="0 0 98 128" version="1.1" xmlns="http://www.w3.org/2000/svg" xmlns:xlink="http://www.w3.org/1999/xlink" xml:space="preserve" xmlns:serif="http://www.serif.com/" style="fill-rule:evenodd;clip-rule:evenodd;stroke-linejoin:round;stroke-miterlimit:2;">
    <g transform="matrix(1,0,0,1,-801,-304)">
        <g>
            <path d="M884.8,431.4L815.2,431.4C807.7,431.4 801.7,425.3 801.7,417.9L801.7,318.1C801.7,310.6 807.8,304.6 815.2,304.6L884.8,304.6C892.3,304.6 898.3,310.7 898.3,318.1L898.3,417.9C898.3,425.4 892.3,431.4 884.8,431.4Z" style="fill:rgb(251,251,252);fill-rule:nonzero;"/>
            <g>
                <path d="M811,317.9C810.1,317.1 809.4,316.5 809.2,316C808.9,315.5 808.8,315 808.8,314.5C808.8,313.7 809.1,313.1 809.7,312.5C810.3,311.9 811.1,311.7 812.1,311.7C813.1,311.7 813.8,312 814.4,312.5C815,313 815.3,313.6 815.3,314.3C815.3,314.7 815.1,315.2 814.8,315.7C814.5,316.2 813.8,316.7 812.8,317.3C813.8,318.1 814.5,318.7 814.9,319.2C815.3,319.8 815.6,320.4 815.6,321.1C815.6,321.9 815.3,322.7 814.6,323.3C814,323.9 813.1,324.2 812.1,324.2C811,324.2 810.1,323.8 809.4,323.1C808.9,322.5 808.6,321.9 808.6,321.2C808.6,320.7 808.8,320.1 809.1,319.6C809.5,319.1 810.1,318.6 811,317.9ZM811.4,318.3C810.9,318.7 810.5,319.2 810.3,319.6C810.1,320.1 809.9,320.6 809.9,321.2C809.9,322 810.1,322.6 810.5,323C810.9,323.5 811.4,323.7 812.1,323.7C812.7,323.7 813.2,323.5 813.6,323.2C814,322.8 814.2,322.4 814.2,321.9C814.2,321.5 814.1,321.1 813.9,320.8C813.5,320.1 812.7,319.3 811.4,318.3ZM812.4,317C813.1,316.4 813.6,315.9 813.7,315.5C813.9,315.1 814,314.7 814,314.3C814,313.7 813.8,313.2 813.5,312.8C813.2,312.4 812.7,312.3 812.1,312.3C811.5,312.3 811,312.5 810.6,312.8C810.2,313.1 810,313.6 810,314C810,314.3 810.1,314.6 810.2,314.9C810.4,315.2 810.6,315.5 810.9,315.8L812.4,317Z" style="fill:rgb(35,31,32);fill-rule:nonzero;"/>
            </g>
            <g>
                <path d="M889,418.1C889.9,418.9 890.6,419.5 890.8,420C891.1,420.5 891.2,421 891.2,421.5C891.2,422.3 890.9,422.9 890.3,423.5C889.7,424.1 888.9,424.3 887.9,424.3C886.9,424.3 886.2,424 885.6,423.5C885,423 884.7,422.4 884.7,421.7C884.7,421.3 884.9,420.8 885.2,420.3C885.5,419.8 886.2,419.3 887.2,418.7C886.2,417.9 885.5,417.3 885.1,416.8C884.7,416.2 884.4,415.6 884.4,414.9C884.4,414.1 884.7,413.3 885.4,412.7C886,412.1 886.9,411.8 887.9,411.8C889,411.8 889.9,412.2 890.6,412.9C891.1,413.5 891.4,414.1 891.4,414.8C891.4,415.3 891.2,415.9 890.9,416.4C890.5,416.9 889.9,417.4 889,418.1ZM888.6,417.7C889.1,417.3 889.5,416.8 889.7,416.4C889.9,415.9 890.1,415.4 890.1,414.8C890.1,414 889.9,413.4 889.5,413C889.1,412.5 888.6,412.3 887.9,412.3C887.3,412.3 886.8,412.5 886.4,412.8C886,413.2 885.8,413.6 885.8,414.1C885.8,414.5 885.9,414.9 886.1,415.2C886.5,415.9 887.3,416.7 888.6,417.7ZM887.6,419C886.9,419.6 886.4,420.1 886.3,420.5C886.1,420.9 886,421.3 886,421.7C886,422.3 886.2,422.8 886.5,423.2C886.8,423.6 887.3,423.7 887.9,423.7C888.5,423.7 889,423.5 889.4,423.2C889.8,422.9 890,422.4 890,422C890,421.7 889.9,421.4 889.8,421.1C889.6,420.8 889.4,420.5 889.1,420.2L887.6,419Z" style="fill:rgb(35,31,32);fill-rule:nonzero;"/>
            </g>
            <path d="M889.9,402.7C891.1,402.7 892,403.7 892,404.8C892,405.9 891.1,406.9 890,406.9C890.1,407.1 890.1,407.3 890.1,407.5C890.1,408.7 889.1,409.6 888,409.6C886.8,409.6 885.9,408.6 885.9,407.5C885.9,407.3 885.9,407.1 886,406.9C884.9,406.9 884,405.9 884,404.8C884,403.6 885,402.7 886.1,402.7C886.8,402.7 887.5,403.1 887.9,403.7C887.7,402 885.5,401 885.5,401L890.7,401C890.7,401 888.5,402 888.3,403.7C888.5,403.1 889.2,402.7 889.9,402.7Z" style="fill:rgb(35,31,32);fill-rule:nonzero;"/>
            <path d="M814,333.3C815.2,333.3 816.1,332.3 816.1,331.2C816.1,330.1 815.2,329.1 814.1,329.1C814.2,328.9 814.2,328.7 814.2,328.5C814.2,327.3 813.2,326.4 812.1,326.4C810.9,326.4 810,327.4 810,328.5C810,328.7 810,328.9 810.1,329.1C809,329.1 808.1,330.1 808.1,331.2C808.1,332.4 809.1,333.3 810.2,333.3C810.9,333.3 811.6,332.9 812,332.3C811.8,334 809.6,335 809.6,335L814.8,335C814.8,335 812.6,334 812.4,332.3C812.6,332.9 813.2,333.3 814,333.3Z" style="fill:rgb(35,31,32);fill-rule:nonzero;"/>
            <g>
                <g>
                    <path d="M832.6,331.6C835,331.6 836.9,329.7 836.9,327.3C836.9,325 835.1,323.1 832.8,323C832.9,322.6 833,322.2 833,321.8C833,319.4 831.1,317.5 828.7,317.5C826.3,317.5 824.4,319.4 824.4,321.8C824.4,322.2 824.5,322.6 824.6,323C822.3,323.1 820.5,325 820.5,327.3C820.5,329.7 822.4,331.6 824.8,331.6C826.3,331.6 827.6,330.8 828.4,329.7L828.4,329.8C828,333.2 823.5,335.2 823.5,335.2L833.9,335.2C833.9,335.2 829.4,333.2 829,329.8L829,329.7C829.7,330.9 831,331.6 832.6,331.6Z" style="fill:rgb(35,31,32);fill-rule:nonzero;"/>
                    <path d="M824.6,404.4C822.2,404.4 820.3,406.3 820.3,408.7C820.3,411 822.1,412.9 824.4,413C824.3,413.4 824.2,413.8 824.2,414.2C824.2,416.6 826.1,418.5 828.5,418.5C830.9,418.5 832.8,416.6 832.8,414.2C832.8,413.8 832.7,413.4 832.6,413C834.9,412.9 836.7,411 836.7,408.7C836.7,406.3 834.8,404.4 832.4,404.4C830.9,404.4 829.6,405.2 828.8,406.3L828.8,406.2C829.2,402.8 833.7,400.8 833.7,400.8L823.3,400.8C823.3,400.8 827.8,402.8 828.2,406.2L828.2,406.3C827.4,405.1 826.1,404.4 824.6,404.4Z" style="fill:rgb(35,31,32);fill-rule:nonzero;"/>
                    <path d="M824.6,362.7C822.2,362.7 820.3,364.6 820.3,367C820.3,369.3 822.1,371.2 824.4,371.3C824.3,371.7 824.2,372.1 824.2,372.5C824.2,374.9 826.1,376.8 828.5,376.8C830.9,376.8 832.8,374.9 832.8,372.5C832.8,372.1 832.7,371.7 832.6,371.3C834.9,371.2 836.7,369.3 836.7,367C836.7,364.6 834.8,362.7 832.4,362.7C830.9,362.7 829.6,363.5 828.8,364.6L828.8,364.5C829.2,361.1 833.7,359.1 833.7,359.1L823.3,359.1C823.3,359.1 827.8,361.1 828.2,364.5L828.2,364.6C827.4,363.5 826.1,362.7 824.6,362.7Z" style="fill:rgb(35,31,32);fill-rule:nonzero;"/>
                    <path d="M846,383.5C843.6,383.5 841.7,385.4 841.7,387.8C841.7,390.1 843.5,392 845.8,392.1C845.7,392.5 845.6,392.9 845.6,393.3C845.6,395.7 847.5,397.6 849.9,397.6C852.3,397.6 854.2,395.7 854.2,393.3C854.2,392.9 854.1,392.5 854,392.1C856.3,392 858.1,390.1 858.1,387.8C858.1,385.4 856.2,383.5 853.8,383.5C852.3,383.5 851,384.3 850.2,385.4L850.2,385.3C850.6,381.9 855.1,379.9 855.1,379.9L844.8,379.9C844.8,379.9 849.3,381.9 849.7,385.3L849.7,385.4C848.9,384.3 847.5,383.5 846,383.5Z" style="fill:rgb(35,31,32);fill-rule:nonzero;"/>
                    <path d="M854,352.8C856.4,352.8 858.3,350.9 858.3,348.5C858.3,346.2 856.5,344.3 854.2,344.2C854.3,343.8 854.4,343.4 854.4,343C854.4,340.6 852.5,338.7 850.1,338.7C847.7,338.7 845.8,340.6 845.8,343C845.8,343.4 845.9,343.8 846,344.2C843.7,344.3 841.9,346.2 841.9,348.5C841.9,350.9 843.8,352.8 846.2,352.8C847.7,352.8 849,352 849.8,350.9L849.8,351C849.4,354.4 844.9,356.4 844.9,356.4L855.3,356.4C855.3,356.4 850.8,354.4 850.4,351L850.4,350.9C851.1,352.1 852.5,352.8 854,352.8Z" style="fill:rgb(35,31,32);fill-rule:nonzero;"/>
                </g>
                <g>
                    <path d="M875.4,331.6C877.8,331.6 879.7,329.7 879.7,327.3C879.7,325 877.9,323.1 875.6,323C875.7,322.6 875.8,322.2 875.8,321.8C875.8,319.4 873.9,317.5 871.5,317.5C869.1,317.5 867.2,319.4 867.2,321.8C867.2,322.2 867.3,322.6 867.4,323C865.1,323.1 863.3,325 863.3,327.3C863.3,329.7 865.2,331.6 867.6,331.6C869.1,331.6 870.4,330.8 871.2,329.7L871.2,329.8C870.8,333.2 866.3,335.2 866.3,335.2L876.7,335.2C876.7,335.2 872.2,333.2 871.8,329.8L871.8,329.7C872.6,330.9 873.9,331.6 875.4,331.6Z" style="fill:rgb(35,31,32);fill-rule:nonzero;"/>
                    <path d="M867.4,404.4C865,404.4 863.1,406.3 863.1,408.7C863.1,411 864.9,412.9 867.2,413C867.1,413.4 867,413.8 867,414.2C867,416.6 868.9,418.5 871.3,418.5C873.7,418.5 875.6,416.6 875.6,414.2C875.6,413.8 875.5,413.4 875.4,413C877.7,412.9 879.5,411 879.5,408.7C879.5,406.3 877.6,404.4 875.2,404.4C873.7,404.4 872.4,405.2 871.6,406.3L871.6,406.2C872,402.8 876.5,400.8 876.5,400.8L866.1,400.8C866.1,400.8 870.6,402.8 871,406.2L871,406.3C870.3,405.1 869,404.4 867.4,404.4Z" style="fill:rgb(35,31,32);fill-rule:nonzero;"/>
                    <path d="M867.4,362.7C865,362.7 863.1,364.6 863.1,367C863.1,369.3 864.9,371.2 867.2,371.3C867.1,371.7 867,372.1 867,372.5C867,374.9 868.9,376.8 871.3,376.8C873.7,376.8 875.6,374.9 875.6,372.5C875.6,372.1 875.5,371.7 875.4,371.3C877.7,371.2 879.5,369.3 879.5,367C879.5,364.6 877.6,362.7 875.2,362.7C873.7,362.7 872.4,363.5 871.6,364.6L871.6,364.5C872,361.1 876.5,359.1 876.5,359.1L866.1,359.1C866.1,359.1 870.6,361.1 871,364.5L871,364.6C870.3,363.5 869,362.7 867.4,362.7Z" style="fill:rgb(35,31,32);fill-rule:nonzero;"/>
                </g>
            </g>
        </g>
    </g>
</svg>
