<?xml version="1.0" encoding="UTF-8" standalone="no"?>
<!DOCTYPE svg PUBLIC "-//W3C//DTD SVG 1.1//EN" "http://www.w3.org/Graphics/SVG/1.1/DTD/svg11.dtd">
<svg width="100%" height="100%" viewBox="0 0 98 128" version="1.1" xmlns="http://www.w3.org/2000/svg" xmlns:xlink="http://www.w3.org/1999/xlink" xml:space="preserve" xmlns:serif="http://www.serif.com/" style="fill-rule:evenodd;clip-rule:evenodd;stroke-linejoin:round;stroke-miterlimit:2;">
    <g transform="matrix(1,0,0,1,-1043,-304)">
        <g>
            <path d="M1127,431.4L1057.4,431.4C1049.9,431.4 1043.9,425.3 1043.9,417.9L1043.9,318.1C1043.9,310.6 1050,304.6 1057.4,304.6L1127,304.6C1134.5,304.6 1140.5,310.7 1140.5,318.1L1140.5,417.9C1140.5,425.4 1134.4,431.4 1127,431.4Z" style="fill:rgb(251,251,252);fill-rule:nonzero;"/>
            <g>
                <path d="M1051.4,312.4L1053.8,311.2L1054,311.2L1054,319.4C1054,319.9 1054,320.3 1054.1,320.4C1054.1,320.5 1054.2,320.6 1054.4,320.7C1054.5,320.8 1054.8,320.8 1055.3,320.8L1055.3,321.1L1051.6,321.1L1051.6,320.8C1052.1,320.8 1052.4,320.8 1052.5,320.7C1052.6,320.6 1052.7,320.5 1052.8,320.4C1052.9,320.3 1052.9,319.9 1052.9,319.3L1052.9,314C1052.9,313.3 1052.9,312.8 1052.8,312.6C1052.8,312.4 1052.7,312.3 1052.6,312.3C1052.5,312.2 1052.4,312.2 1052.3,312.2C1052.1,312.2 1051.9,312.3 1051.6,312.4L1051.4,312.4Z" style="fill:rgb(35,31,32);fill-rule:nonzero;"/>
                <path d="M1057.6,316.4C1057.6,315.3 1057.8,314.3 1058.1,313.5C1058.4,312.7 1058.9,312.1 1059.4,311.7C1059.8,311.4 1060.3,311.2 1060.7,311.2C1061.4,311.2 1062.1,311.6 1062.7,312.3C1063.4,313.2 1063.8,314.5 1063.8,316.1C1063.8,317.2 1063.6,318.2 1063.3,319C1063,319.8 1062.6,320.4 1062.1,320.7C1061.6,321.1 1061.1,321.2 1060.6,321.2C1059.7,321.2 1058.9,320.6 1058.3,319.5C1057.8,318.8 1057.6,317.7 1057.6,316.4ZM1059,316.6C1059,317.9 1059.2,319 1059.5,319.9C1059.8,320.6 1060.2,321 1060.7,321C1061,321 1061.2,320.9 1061.5,320.7C1061.8,320.5 1062,320.1 1062.1,319.5C1062.3,318.7 1062.4,317.5 1062.4,316C1062.4,314.9 1062.3,314 1062.1,313.2C1061.9,312.6 1061.7,312.3 1061.4,312C1061.2,311.8 1061,311.8 1060.7,311.8C1060.4,311.8 1060.1,311.9 1059.8,312.2C1059.5,312.6 1059.2,313.2 1059.1,314.1C1059.1,314.9 1059,315.7 1059,316.6Z" style="fill:rgb(35,31,32);fill-rule:nonzero;"/>
            </g>
            <g>
                <path d="M1133,423.7L1130.6,424.8L1130.4,424.8L1130.4,416.6C1130.4,416.1 1130.4,415.7 1130.3,415.6C1130.3,415.5 1130.2,415.4 1130,415.3C1129.9,415.2 1129.6,415.2 1129.1,415.2L1129.1,414.9L1132.7,414.9L1132.7,415.2C1132.2,415.2 1132,415.2 1131.8,415.3C1131.7,415.4 1131.6,415.5 1131.5,415.6C1131.4,415.7 1131.4,416.1 1131.4,416.6L1131.4,421.8C1131.4,422.5 1131.4,423 1131.5,423.2C1131.5,423.4 1131.6,423.5 1131.7,423.5C1131.8,423.6 1131.9,423.6 1132,423.6C1132.2,423.6 1132.4,423.5 1132.7,423.4L1133,423.7Z" style="fill:rgb(35,31,32);fill-rule:nonzero;"/>
                <path d="M1126.9,419.7C1126.9,420.8 1126.7,421.7 1126.4,422.5C1126.1,423.3 1125.6,423.9 1125.1,424.3C1124.7,424.6 1124.2,424.8 1123.8,424.8C1123.1,424.8 1122.4,424.4 1121.8,423.7C1121.1,422.8 1120.7,421.5 1120.7,419.9C1120.7,418.8 1120.9,417.8 1121.2,417C1121.5,416.2 1121.9,415.6 1122.4,415.3C1122.9,415 1123.4,414.8 1123.8,414.8C1124.7,414.8 1125.5,415.3 1126.1,416.4C1126.6,417.3 1126.9,418.4 1126.9,419.7ZM1125.5,419.5C1125.5,418.2 1125.3,417.1 1125,416.2C1124.7,415.5 1124.3,415.1 1123.8,415.1C1123.5,415.1 1123.3,415.2 1123,415.4C1122.7,415.6 1122.5,416 1122.4,416.6C1122.2,417.4 1122.1,418.6 1122.1,420.1C1122.1,421.2 1122.2,422.1 1122.4,422.9C1122.6,423.4 1122.8,423.8 1123.1,424.1C1123.3,424.3 1123.5,424.3 1123.8,424.3C1124.1,424.3 1124.4,424.2 1124.7,423.9C1125,423.5 1125.3,422.9 1125.4,422C1125.4,421.2 1125.5,420.4 1125.5,419.5Z" style="fill:rgb(35,31,32);fill-rule:nonzero;"/>
            </g>
            <path d="M1132.1,402.7C1133.3,402.7 1134.2,403.7 1134.2,404.8C1134.2,405.9 1133.3,406.9 1132.2,406.9C1132.3,407.1 1132.3,407.3 1132.3,407.5C1132.3,408.7 1131.3,409.6 1130.2,409.6C1129,409.6 1128.1,408.6 1128.1,407.5C1128.1,407.3 1128.1,407.1 1128.2,406.9C1127.1,406.9 1126.2,405.9 1126.2,404.8C1126.2,403.6 1127.2,402.7 1128.3,402.7C1129,402.7 1129.7,403.1 1130.1,403.7C1129.9,402 1127.7,401 1127.7,401L1132.9,401C1132.9,401 1130.7,402 1130.5,403.7C1130.7,403.1 1131.4,402.7 1132.1,402.7Z" style="fill:rgb(35,31,32);fill-rule:nonzero;"/>
            <path d="M1056.1,333.3C1057.3,333.3 1058.2,332.3 1058.2,331.2C1058.2,330.1 1057.3,329.1 1056.2,329.1C1056.3,328.9 1056.3,328.7 1056.3,328.5C1056.3,327.3 1055.3,326.4 1054.2,326.4C1053,326.4 1052.1,327.4 1052.1,328.5C1052.1,328.7 1052.1,328.9 1052.2,329.1C1051.1,329.1 1050.2,330.1 1050.2,331.2C1050.2,332.4 1051.2,333.3 1052.3,333.3C1053,333.3 1053.7,332.9 1054.1,332.3C1053.9,334 1051.7,335 1051.7,335L1056.9,335C1056.9,335 1054.7,334 1054.5,332.3C1054.8,332.9 1055.4,333.3 1056.1,333.3Z" style="fill:rgb(35,31,32);fill-rule:nonzero;"/>
            <g>
                <g>
                    <path d="M1075.3,331.6C1077.7,331.6 1079.6,329.7 1079.6,327.3C1079.6,325 1077.8,323.1 1075.5,323C1075.6,322.6 1075.7,322.2 1075.7,321.8C1075.7,319.4 1073.8,317.5 1071.4,317.5C1069,317.5 1067.1,319.4 1067.1,321.8C1067.1,322.2 1067.2,322.6 1067.3,323C1065,323.1 1063.2,325 1063.2,327.3C1063.2,329.7 1065.1,331.6 1067.5,331.6C1069,331.6 1070.3,330.8 1071.1,329.7L1071.1,329.8C1070.7,333.2 1066.2,335.2 1066.2,335.2L1076.6,335.2C1076.6,335.2 1072.1,333.2 1071.7,329.8L1071.7,329.7C1072.5,330.9 1073.8,331.6 1075.3,331.6Z" style="fill:rgb(35,31,32);fill-rule:nonzero;"/>
                </g>
                <g>
                    <path d="M1075.3,359.2C1077.7,359.2 1079.6,357.3 1079.6,354.9C1079.6,352.6 1077.8,350.7 1075.5,350.6C1075.6,350.2 1075.7,349.8 1075.7,349.4C1075.7,347 1073.8,345.1 1071.4,345.1C1069,345.1 1067.1,347 1067.1,349.4C1067.1,349.8 1067.2,350.2 1067.3,350.6C1065,350.7 1063.2,352.6 1063.2,354.9C1063.2,357.3 1065.1,359.2 1067.5,359.2C1069,359.2 1070.3,358.4 1071.1,357.3L1071.1,357.4C1070.7,360.8 1066.2,362.8 1066.2,362.8L1076.6,362.8C1076.6,362.8 1072.1,360.8 1071.7,357.4L1071.7,357.3C1072.5,358.4 1073.8,359.2 1075.3,359.2Z" style="fill:rgb(35,31,32);fill-rule:nonzero;"/>
                </g>
                <g>
                    <path d="M1067.4,403.7C1065,403.7 1063.1,405.6 1063.1,408C1063.1,410.3 1064.9,412.2 1067.2,412.3C1067.1,412.7 1067,413.1 1067,413.5C1067,415.9 1068.9,417.8 1071.3,417.8C1073.7,417.8 1075.6,415.9 1075.6,413.5C1075.6,413.1 1075.5,412.7 1075.4,412.3C1077.7,412.2 1079.5,410.3 1079.5,408C1079.5,405.6 1077.6,403.7 1075.2,403.7C1073.7,403.7 1072.4,404.5 1071.6,405.6L1071.6,405.5C1072,402.1 1076.5,400.1 1076.5,400.1L1066.1,400.1C1066.1,400.1 1070.6,402.1 1071,405.5L1071,405.6C1070.2,404.4 1068.9,403.7 1067.4,403.7Z" style="fill:rgb(35,31,32);fill-rule:nonzero;"/>
                </g>
                <g>
                    <path d="M1067.4,376.1C1065,376.1 1063.1,378 1063.1,380.4C1063.1,382.7 1064.9,384.6 1067.2,384.7C1067.1,385.1 1067,385.5 1067,385.9C1067,388.3 1068.9,390.2 1071.3,390.2C1073.7,390.2 1075.6,388.3 1075.6,385.9C1075.6,385.5 1075.5,385.1 1075.4,384.7C1077.7,384.6 1079.5,382.7 1079.5,380.4C1079.5,378 1077.6,376.1 1075.2,376.1C1073.7,376.1 1072.4,376.9 1071.6,378L1071.6,377.9C1072,374.5 1076.5,372.5 1076.5,372.5L1066.1,372.5C1066.1,372.5 1070.6,374.5 1071,377.9L1071,378C1070.2,376.9 1068.9,376.1 1067.4,376.1Z" style="fill:rgb(35,31,32);fill-rule:nonzero;"/>
                </g>
                <g>
                    <path d="M1117,331.6C1119.4,331.6 1121.3,329.7 1121.3,327.3C1121.3,325 1119.5,323.1 1117.2,323C1117.3,322.6 1117.4,322.2 1117.4,321.8C1117.4,319.4 1115.5,317.5 1113.1,317.5C1110.7,317.5 1108.8,319.4 1108.8,321.8C1108.8,322.2 1108.9,322.6 1109,323C1106.7,323.1 1104.9,325 1104.9,327.3C1104.9,329.7 1106.8,331.6 1109.2,331.6C1110.7,331.6 1112,330.8 1112.8,329.7L1112.8,329.8C1112.4,333.2 1107.9,335.2 1107.9,335.2L1118.3,335.2C1118.3,335.2 1113.8,333.2 1113.4,329.8L1113.4,329.7C1114.2,330.9 1115.5,331.6 1117,331.6Z" style="fill:rgb(35,31,32);fill-rule:nonzero;"/>
                </g>
                <g>
                    <path d="M1117,359.2C1119.4,359.2 1121.3,357.3 1121.3,354.9C1121.3,352.6 1119.5,350.7 1117.2,350.6C1117.3,350.2 1117.4,349.8 1117.4,349.4C1117.4,347 1115.5,345.1 1113.1,345.1C1110.7,345.1 1108.8,347 1108.8,349.4C1108.8,349.8 1108.9,350.2 1109,350.6C1106.7,350.7 1104.9,352.6 1104.9,354.9C1104.9,357.3 1106.8,359.2 1109.2,359.2C1110.7,359.2 1112,358.4 1112.8,357.3L1112.8,357.4C1112.4,360.8 1107.9,362.8 1107.9,362.8L1118.3,362.8C1118.3,362.8 1113.8,360.8 1113.4,357.4L1113.4,357.3C1114.2,358.4 1115.5,359.2 1117,359.2Z" style="fill:rgb(35,31,32);fill-rule:nonzero;"/>
                </g>
                <g>
                    <path d="M1109,403.7C1106.6,403.7 1104.7,405.6 1104.7,408C1104.7,410.3 1106.5,412.2 1108.8,412.3C1108.7,412.7 1108.6,413.1 1108.6,413.5C1108.6,415.9 1110.5,417.8 1112.9,417.8C1115.3,417.8 1117.2,415.9 1117.2,413.5C1117.2,413.1 1117.1,412.7 1117,412.3C1119.3,412.2 1121.1,410.3 1121.1,408C1121.1,405.6 1119.2,403.7 1116.8,403.7C1115.3,403.7 1114,404.5 1113.2,405.6L1113.2,405.5C1113.6,402.1 1118.1,400.1 1118.1,400.1L1107.7,400.1C1107.7,400.1 1112.2,402.1 1112.6,405.5L1112.6,405.6C1111.9,404.4 1110.6,403.7 1109,403.7Z" style="fill:rgb(35,31,32);fill-rule:nonzero;"/>
                </g>
                <g>
                    <path d="M1109,376.1C1106.6,376.1 1104.7,378 1104.7,380.4C1104.7,382.7 1106.5,384.6 1108.8,384.7C1108.7,385.1 1108.6,385.5 1108.6,385.9C1108.6,388.3 1110.5,390.2 1112.9,390.2C1115.3,390.2 1117.2,388.3 1117.2,385.9C1117.2,385.5 1117.1,385.1 1117,384.7C1119.3,384.6 1121.1,382.7 1121.1,380.4C1121.1,378 1119.2,376.1 1116.8,376.1C1115.3,376.1 1114,376.9 1113.2,378L1113.2,377.9C1113.6,374.5 1118.1,372.5 1118.1,372.5L1107.7,372.5C1107.7,372.5 1112.2,374.5 1112.6,377.9L1112.6,378C1111.9,376.9 1110.6,376.1 1109,376.1Z" style="fill:rgb(35,31,32);fill-rule:nonzero;"/>
                </g>
                <g>
                    <path d="M1096.7,349.2C1099.1,349.2 1101,347.3 1101,344.9C1101,342.6 1099.2,340.7 1096.9,340.6C1097,340.2 1097.1,339.8 1097.1,339.4C1097.1,337 1095.2,335.1 1092.8,335.1C1090.4,335.1 1088.5,337 1088.5,339.4C1088.5,339.8 1088.6,340.2 1088.7,340.6C1086.4,340.7 1084.6,342.6 1084.6,344.9C1084.6,347.3 1086.5,349.2 1088.9,349.2C1090.4,349.2 1091.7,348.4 1092.5,347.3L1092.5,347.4C1092.1,350.8 1087.6,352.8 1087.6,352.8L1098,352.8C1098,352.8 1093.5,350.8 1093.1,347.4L1093.1,347.3C1093.9,348.4 1095.2,349.2 1096.7,349.2Z" style="fill:rgb(35,31,32);fill-rule:nonzero;"/>
                </g>
                <g>
                    <path d="M1088.8,385C1086.4,385 1084.5,386.9 1084.5,389.3C1084.5,391.6 1086.3,393.5 1088.6,393.6C1088.5,394 1088.4,394.4 1088.4,394.8C1088.4,397.2 1090.3,399.1 1092.7,399.1C1095.1,399.1 1097,397.2 1097,394.8C1097,394.4 1096.9,394 1096.8,393.6C1099.1,393.5 1100.9,391.6 1100.9,389.3C1100.9,386.9 1099,385 1096.6,385C1095.1,385 1093.8,385.8 1093,386.9L1093,386.8C1093.4,383.4 1097.9,381.4 1097.9,381.4L1087.5,381.4C1087.5,381.4 1092,383.4 1092.4,386.8L1092.4,386.9C1091.6,385.7 1090.3,385 1088.8,385Z" style="fill:rgb(35,31,32);fill-rule:nonzero;"/>
                </g>
            </g>
        </g>
    </g>
</svg>
