<?xml version="1.0" encoding="UTF-8" standalone="no"?>
<!DOCTYPE svg PUBLIC "-//W3C//DTD SVG 1.1//EN" "http://www.w3.org/Graphics/SVG/1.1/DTD/svg11.dtd">
<svg width="100%" height="100%" viewBox="0 0 98 128" version="1.1" xmlns="http://www.w3.org/2000/svg" xmlns:xlink="http://www.w3.org/1999/xlink" xml:space="preserve" xmlns:serif="http://www.serif.com/" style="fill-rule:evenodd;clip-rule:evenodd;stroke-linejoin:round;stroke-miterlimit:2;">
    <g transform="matrix(1,0,0,1,-922,-304)">
        <g>
            <path d="M1005.9,431.4L936.3,431.4C928.8,431.4 922.8,425.3 922.8,417.9L922.8,318.1C922.8,310.6 928.9,304.6 936.3,304.6L1005.9,304.6C1013.4,304.6 1019.4,310.7 1019.4,318.1L1019.4,417.9C1019.4,425.4 1013.3,431.4 1005.9,431.4Z" style="fill:rgb(251,251,252);fill-rule:nonzero;"/>
            <g>
                <path d="M929.5,324.2L929.5,323.9C930.3,323.9 931,323.7 931.6,323.4C932.3,323.1 932.9,322.5 933.5,321.6C934.1,320.7 934.5,319.8 934.8,318.8C933.9,319.4 933,319.7 932.3,319.7C931.5,319.7 930.7,319.4 930.1,318.7C929.5,318.1 929.2,317.2 929.2,316.1C929.2,315.1 929.5,314.1 930.1,313.3C930.8,312.3 931.8,311.8 932.9,311.8C933.9,311.8 934.7,312.2 935.4,313C936.3,314 936.7,315.2 936.7,316.7C936.7,318 936.4,319.3 935.7,320.4C935,321.6 934.1,322.5 933,323.3C932.1,323.9 931,324.2 929.9,324.2L929.5,324.2ZM935,318.1C935.1,317.3 935.2,316.7 935.2,316.3C935.2,315.7 935.1,315.1 934.9,314.5C934.7,313.8 934.4,313.3 934.1,313C933.7,312.6 933.3,312.5 932.9,312.5C932.4,312.5 931.9,312.7 931.5,313.2C931.1,313.7 930.9,314.4 930.9,315.3C930.9,316.5 931.2,317.5 931.7,318.2C932.1,318.7 932.6,319 933.1,319C933.4,319 933.7,318.9 934.1,318.8C934.4,318.5 934.7,318.3 935,318.1Z" style="fill:rgb(35,31,32);fill-rule:nonzero;"/>
            </g>
            <g>
                <path d="M1012.6,411.8L1012.6,412.1C1011.8,412.1 1011.1,412.3 1010.5,412.6C1009.8,412.9 1009.2,413.5 1008.6,414.4C1008,415.3 1007.6,416.2 1007.3,417.2C1008.2,416.6 1009.1,416.3 1009.8,416.3C1010.6,416.3 1011.4,416.6 1012,417.3C1012.6,417.9 1012.9,418.8 1012.9,419.9C1012.9,420.9 1012.6,421.9 1012,422.7C1011.3,423.7 1010.3,424.2 1009.2,424.2C1008.2,424.2 1007.4,423.8 1006.7,423C1005.8,422 1005.4,420.8 1005.4,419.3C1005.4,418 1005.7,416.7 1006.4,415.6C1007.1,414.4 1008,413.5 1009.1,412.7C1010,412.1 1011.1,411.8 1012.2,411.8L1012.6,411.8ZM1007.2,417.9C1007.1,418.7 1007,419.3 1007,419.7C1007,420.3 1007.1,420.9 1007.3,421.5C1007.5,422.2 1007.8,422.7 1008.1,423C1008.5,423.4 1008.9,423.5 1009.3,423.5C1009.8,423.5 1010.3,423.3 1010.7,422.8C1011.1,422.3 1011.3,421.6 1011.3,420.7C1011.3,419.5 1011,418.5 1010.5,417.8C1010.1,417.3 1009.6,417 1009.1,417C1008.8,417 1008.5,417.1 1008.1,417.2C1007.8,417.5 1007.4,417.7 1007.2,417.9Z" style="fill:rgb(35,31,32);fill-rule:nonzero;"/>
            </g>
            <path d="M1011,402.7C1012.2,402.7 1013.1,403.7 1013.1,404.8C1013.1,405.9 1012.2,406.9 1011.1,406.9C1011.2,407.1 1011.2,407.3 1011.2,407.5C1011.2,408.7 1010.2,409.6 1009.1,409.6C1007.9,409.6 1007,408.6 1007,407.5C1007,407.3 1007,407.1 1007.1,406.9C1006,406.9 1005.1,405.9 1005.1,404.8C1005.1,403.6 1006.1,402.7 1007.2,402.7C1007.9,402.7 1008.6,403.1 1009,403.7C1008.8,402 1006.6,401 1006.6,401L1011.8,401C1011.8,401 1009.6,402 1009.4,403.7C1009.6,403.1 1010.3,402.7 1011,402.7Z" style="fill:rgb(35,31,32);fill-rule:nonzero;"/>
            <path d="M935.1,333.3C936.3,333.3 937.2,332.3 937.2,331.2C937.2,330.1 936.3,329.1 935.2,329.1C935.3,328.9 935.3,328.7 935.3,328.5C935.3,327.3 934.3,326.4 933.2,326.4C932,326.4 931.1,327.4 931.1,328.5C931.1,328.7 931.1,328.9 931.2,329.1C930.1,329.1 929.2,330.1 929.2,331.2C929.2,332.4 930.2,333.3 931.3,333.3C932,333.3 932.7,332.9 933.1,332.3C932.9,334 930.7,335 930.7,335L935.9,335C935.9,335 933.7,334 933.5,332.3C933.7,332.9 934.3,333.3 935.1,333.3Z" style="fill:rgb(35,31,32);fill-rule:nonzero;"/>
            <g>
                <g>
                    <path d="M954.2,331.6C956.6,331.6 958.5,329.7 958.5,327.3C958.5,325 956.7,323.1 954.4,323C954.5,322.6 954.6,322.2 954.6,321.8C954.6,319.4 952.7,317.5 950.3,317.5C947.9,317.5 946,319.4 946,321.8C946,322.2 946.1,322.6 946.2,323C943.9,323.1 942.1,325 942.1,327.3C942.1,329.7 944,331.6 946.4,331.6C947.9,331.6 949.2,330.8 950,329.7L950,329.8C949.6,333.2 945.1,335.2 945.1,335.2L955.5,335.2C955.5,335.2 951,333.2 950.6,329.8L950.6,329.7C951.4,330.9 952.7,331.6 954.2,331.6Z" style="fill:rgb(35,31,32);fill-rule:nonzero;"/>
                </g>
                <g>
                    <path d="M954.2,359.2C956.6,359.2 958.5,357.3 958.5,354.9C958.5,352.6 956.7,350.7 954.4,350.6C954.5,350.2 954.6,349.8 954.6,349.4C954.6,347 952.7,345.1 950.3,345.1C947.9,345.1 946,347 946,349.4C946,349.8 946.1,350.2 946.2,350.6C943.9,350.7 942.1,352.6 942.1,354.9C942.1,357.3 944,359.2 946.4,359.2C947.9,359.2 949.2,358.4 950,357.3L950,357.4C949.6,360.8 945.1,362.8 945.1,362.8L955.5,362.8C955.5,362.8 951,360.8 950.6,357.4L950.6,357.3C951.4,358.4 952.7,359.2 954.2,359.2Z" style="fill:rgb(35,31,32);fill-rule:nonzero;"/>
                </g>
                <g>
                    <path d="M946.3,403.7C943.9,403.7 942,405.6 942,408C942,410.3 943.8,412.2 946.1,412.3C946,412.7 945.9,413.1 945.9,413.5C945.9,415.9 947.8,417.8 950.2,417.8C952.6,417.8 954.5,415.9 954.5,413.5C954.5,413.1 954.4,412.7 954.3,412.3C956.6,412.2 958.4,410.3 958.4,408C958.4,405.6 956.5,403.7 954.1,403.7C952.6,403.7 951.3,404.5 950.5,405.6L950.5,405.5C950.9,402.1 955.4,400.1 955.4,400.1L945,400.1C945,400.1 949.5,402.1 949.9,405.5L949.9,405.6C949.1,404.4 947.8,403.7 946.3,403.7Z" style="fill:rgb(35,31,32);fill-rule:nonzero;"/>
                </g>
                <g>
                    <path d="M946.3,376.1C943.9,376.1 942,378 942,380.4C942,382.7 943.8,384.6 946.1,384.7C946,385.1 945.9,385.5 945.9,385.9C945.9,388.3 947.8,390.2 950.2,390.2C952.6,390.2 954.5,388.3 954.5,385.9C954.5,385.5 954.4,385.1 954.3,384.7C956.6,384.6 958.4,382.7 958.4,380.4C958.4,378 956.5,376.1 954.1,376.1C952.6,376.1 951.3,376.9 950.5,378L950.5,377.9C950.9,374.5 955.4,372.5 955.4,372.5L945,372.5C945,372.5 949.5,374.5 949.9,377.9L949.9,378C949.1,376.9 947.8,376.1 946.3,376.1Z" style="fill:rgb(35,31,32);fill-rule:nonzero;"/>
                </g>
                <g>
                    <path d="M995.9,331.6C998.3,331.6 1000.2,329.7 1000.2,327.3C1000.2,325 998.4,323.1 996.1,323C996.2,322.6 996.3,322.2 996.3,321.8C996.3,319.4 994.4,317.5 992,317.5C989.6,317.5 987.7,319.4 987.7,321.8C987.7,322.2 987.8,322.6 987.9,323C985.6,323.1 983.8,325 983.8,327.3C983.8,329.7 985.7,331.6 988.1,331.6C989.6,331.6 990.9,330.8 991.7,329.7L991.7,329.8C991.3,333.2 986.8,335.2 986.8,335.2L997.2,335.2C997.2,335.2 992.7,333.2 992.3,329.8L992.3,329.7C993.1,330.9 994.4,331.6 995.9,331.6Z" style="fill:rgb(35,31,32);fill-rule:nonzero;"/>
                </g>
                <g>
                    <path d="M995.9,359.2C998.3,359.2 1000.2,357.3 1000.2,354.9C1000.2,352.6 998.4,350.7 996.1,350.6C996.2,350.2 996.3,349.8 996.3,349.4C996.3,347 994.4,345.1 992,345.1C989.6,345.1 987.7,347 987.7,349.4C987.7,349.8 987.8,350.2 987.9,350.6C985.6,350.7 983.8,352.6 983.8,354.9C983.8,357.3 985.7,359.2 988.1,359.2C989.6,359.2 990.9,358.4 991.7,357.3L991.7,357.4C991.3,360.8 986.8,362.8 986.8,362.8L997.2,362.8C997.2,362.8 992.7,360.8 992.3,357.4L992.3,357.3C993.1,358.4 994.4,359.2 995.9,359.2Z" style="fill:rgb(35,31,32);fill-rule:nonzero;"/>
                </g>
                <g>
                    <path d="M988,403.7C985.6,403.7 983.7,405.6 983.7,408C983.7,410.3 985.5,412.2 987.8,412.3C987.7,412.7 987.6,413.1 987.6,413.5C987.6,415.9 989.5,417.8 991.9,417.8C994.3,417.8 996.2,415.9 996.2,413.5C996.2,413.1 996.1,412.7 996,412.3C998.3,412.2 1000.1,410.3 1000.1,408C1000.1,405.6 998.2,403.7 995.8,403.7C994.3,403.7 993,404.5 992.2,405.6L992.2,405.5C992.6,402.1 997.1,400.1 997.1,400.1L986.7,400.1C986.7,400.1 991.2,402.1 991.6,405.5L991.6,405.6C990.8,404.4 989.5,403.7 988,403.7Z" style="fill:rgb(35,31,32);fill-rule:nonzero;"/>
                </g>
                <g>
                    <path d="M988,376.1C985.6,376.1 983.7,378 983.7,380.4C983.7,382.7 985.5,384.6 987.8,384.7C987.7,385.1 987.6,385.5 987.6,385.9C987.6,388.3 989.5,390.2 991.9,390.2C994.3,390.2 996.2,388.3 996.2,385.9C996.2,385.5 996.1,385.1 996,384.7C998.3,384.6 1000.1,382.7 1000.1,380.4C1000.1,378 998.2,376.1 995.8,376.1C994.3,376.1 993,376.9 992.2,378L992.2,377.9C992.6,374.5 997.1,372.5 997.1,372.5L986.7,372.5C986.7,372.5 991.2,374.5 991.6,377.9L991.6,378C990.8,376.9 989.5,376.1 988,376.1Z" style="fill:rgb(35,31,32);fill-rule:nonzero;"/>
                </g>
                <g>
                    <path d="M975.6,373.3C978,373.3 979.9,371.4 979.9,369C979.9,366.7 978.1,364.8 975.8,364.7C975.9,364.3 976,363.9 976,363.5C976,361.1 974.1,359.2 971.7,359.2C969.3,359.2 967.4,361.1 967.4,363.5C967.4,363.9 967.5,364.3 967.6,364.7C965.3,364.8 963.5,366.7 963.5,369C963.5,371.4 965.4,373.3 967.8,373.3C969.3,373.3 970.6,372.5 971.4,371.4L971.4,371.5C971,374.9 966.5,376.9 966.5,376.9L976.9,376.9C976.9,376.9 972.4,374.9 972,371.5L972,371.4C972.8,372.5 974.1,373.3 975.6,373.3Z" style="fill:rgb(35,31,32);fill-rule:nonzero;"/>
                </g>
            </g>
        </g>
    </g>
</svg>
