<?xml version="1.0" encoding="UTF-8" standalone="no"?>
<!DOCTYPE svg PUBLIC "-//W3C//DTD SVG 1.1//EN" "http://www.w3.org/Graphics/SVG/1.1/DTD/svg11.dtd">
<svg width="100%" height="100%" viewBox="0 0 98 128" version="1.1" xmlns="http://www.w3.org/2000/svg" xmlns:xlink="http://www.w3.org/1999/xlink" xml:space="preserve" xmlns:serif="http://www.serif.com/" style="fill-rule:evenodd;clip-rule:evenodd;stroke-linejoin:round;stroke-miterlimit:2;">
    <g transform="matrix(1,0,0,1,-559,-304)">
        <g>
            <path d="M642.6,431.4L573,431.4C565.5,431.4 559.5,425.3 559.5,417.9L559.5,318.1C559.5,310.6 565.6,304.6 573,304.6L642.6,304.6C650.1,304.6 656.1,310.7 656.1,318.1L656.1,417.9C656.1,425.4 650.1,431.4 642.6,431.4Z" style="fill:rgb(251,251,252);fill-rule:nonzero;"/>
            <g>
                <path d="M573.4,311.7L573.4,312.1C572.6,312.2 572,312.3 571.5,312.6C571,312.8 570.5,313.2 570,313.7C569.5,314.2 569.1,314.7 568.8,315.3C568.5,315.9 568.2,316.6 568,317.4C568.8,316.8 569.7,316.5 570.6,316.5C571.4,316.5 572.1,316.8 572.7,317.5C573.3,318.2 573.6,319 573.6,320C573.6,321 573.3,321.9 572.7,322.7C572,323.7 571,324.2 569.8,324.2C569,324.2 568.3,323.9 567.7,323.4C566.6,322.3 566,321 566,319.3C566,318.2 566.2,317.2 566.6,316.2C567,315.2 567.6,314.4 568.4,313.6C569.2,312.9 570,312.3 570.7,312.1C571.4,311.8 572.1,311.7 572.7,311.7L573.4,311.7ZM567.9,317.9C567.8,318.7 567.7,319.3 567.7,319.8C567.7,320.4 567.8,321 568,321.6C568.2,322.3 568.5,322.8 568.9,323.2C569.2,323.5 569.6,323.6 570,323.6C570.5,323.6 571,323.4 571.4,322.9C571.8,322.4 572,321.7 572,320.8C572,319.8 571.8,318.9 571.4,318.2C571,317.5 570.4,317.1 569.7,317.1C569.5,317.1 569.2,317.1 569,317.2C568.8,317.4 568.4,317.6 567.9,317.9Z" style="fill:rgb(35,31,32);fill-rule:nonzero;"/>
            </g>
            <g>
                <path d="M642.2,424.4L642.2,424C643,423.9 643.6,423.8 644.1,423.5C644.6,423.3 645.1,422.9 645.6,422.4C646.1,421.9 646.5,421.4 646.8,420.8C647.1,420.2 647.4,419.5 647.6,418.7C646.8,419.3 645.9,419.6 645,419.6C644.2,419.6 643.5,419.3 642.9,418.6C642.3,417.9 642,417.1 642,416.1C642,415.1 642.3,414.2 642.9,413.4C643.6,412.4 644.6,411.9 645.8,411.9C646.6,411.9 647.3,412.2 647.9,412.7C649,413.8 649.6,415.1 649.6,416.8C649.6,417.9 649.4,418.9 649,419.9C648.6,420.9 648,421.7 647.2,422.5C646.4,423.2 645.6,423.8 644.9,424C644.2,424.3 643.5,424.4 642.9,424.4L642.2,424.4ZM647.7,418.1C647.8,417.3 647.9,416.7 647.9,416.2C647.9,415.6 647.8,415 647.6,414.4C647.4,413.7 647.1,413.2 646.7,412.8C646.4,412.5 646,412.4 645.6,412.4C645.1,412.4 644.6,412.6 644.2,413.1C643.8,413.6 643.6,414.3 643.6,415.2C643.6,416.2 643.8,417.1 644.2,417.8C644.6,418.5 645.2,418.9 645.9,418.9C646.1,418.9 646.4,418.9 646.6,418.8C646.8,418.6 647.2,418.4 647.7,418.1Z" style="fill:rgb(35,31,32);fill-rule:nonzero;"/>
            </g>
            <path d="M647.8,402.7C649,402.7 649.9,403.7 649.9,404.8C649.9,405.9 649,406.9 647.9,406.9C648,407.1 648,407.3 648,407.5C648,408.7 647,409.6 645.9,409.6C644.7,409.6 643.8,408.6 643.8,407.5C643.8,407.3 643.8,407.1 643.9,406.9C642.8,406.9 641.9,405.9 641.9,404.8C641.9,403.6 642.9,402.7 644,402.7C644.7,402.7 645.4,403.1 645.8,403.7C645.6,402 643.4,401 643.4,401L648.6,401C648.6,401 646.4,402 646.2,403.7C646.4,403.1 647,402.7 647.8,402.7Z" style="fill:rgb(35,31,32);fill-rule:nonzero;"/>
            <path d="M571.8,333.3C573,333.3 573.9,332.3 573.9,331.2C573.9,330.1 573,329.1 571.9,329.1C572,328.9 572,328.7 572,328.5C572,327.3 571,326.4 569.9,326.4C568.7,326.4 567.8,327.4 567.8,328.5C567.8,328.7 567.8,328.9 567.9,329.1C566.8,329.1 565.9,330.1 565.9,331.2C565.9,332.4 566.9,333.3 568,333.3C568.7,333.3 569.4,332.9 569.8,332.3C569.6,334 567.4,335 567.4,335L572.6,335C572.6,335 570.4,334 570.2,332.3C570.4,332.9 571.1,333.3 571.8,333.3Z" style="fill:rgb(35,31,32);fill-rule:nonzero;"/>
            <g>
                <g>
                    <path d="M590.4,331.6C592.8,331.6 594.7,329.7 594.7,327.3C594.7,325 592.9,323.1 590.6,323C590.7,322.6 590.8,322.2 590.8,321.8C590.8,319.4 588.9,317.5 586.5,317.5C584.1,317.5 582.2,319.4 582.2,321.8C582.2,322.2 582.3,322.6 582.4,323C580.1,323.1 578.3,325 578.3,327.3C578.3,329.7 580.2,331.6 582.6,331.6C584.1,331.6 585.4,330.8 586.2,329.7L586.2,329.8C585.8,333.2 581.3,335.2 581.3,335.2L591.7,335.2C591.7,335.2 587.2,333.2 586.8,329.8L586.8,329.7C587.6,330.9 588.9,331.6 590.4,331.6Z" style="fill:rgb(35,31,32);fill-rule:nonzero;"/>
                    <path d="M582.4,404.4C580,404.4 578.1,406.3 578.1,408.7C578.1,411 579.9,412.9 582.2,413C582.1,413.4 582,413.8 582,414.2C582,416.6 583.9,418.5 586.3,418.5C588.7,418.5 590.6,416.6 590.6,414.2C590.6,413.8 590.5,413.4 590.4,413C592.7,412.9 594.5,411 594.5,408.7C594.5,406.3 592.6,404.4 590.2,404.4C588.7,404.4 587.4,405.2 586.6,406.3L586.6,406.2C587,402.8 591.5,400.8 591.5,400.8L581.1,400.8C581.1,400.8 585.6,402.8 586,406.2L586,406.3C585.3,405.1 583.9,404.4 582.4,404.4Z" style="fill:rgb(35,31,32);fill-rule:nonzero;"/>
                    <path d="M582.4,362.7C580,362.7 578.1,364.6 578.1,367C578.1,369.3 579.9,371.2 582.2,371.3C582.1,371.7 582,372.1 582,372.5C582,374.9 583.9,376.8 586.3,376.8C588.7,376.8 590.6,374.9 590.6,372.5C590.6,372.1 590.5,371.7 590.4,371.3C592.7,371.2 594.5,369.3 594.5,367C594.5,364.6 592.6,362.7 590.2,362.7C588.7,362.7 587.4,363.5 586.6,364.6L586.6,364.5C587,361.1 591.5,359.1 591.5,359.1L581.1,359.1C581.1,359.1 585.6,361.1 586,364.5L586,364.6C585.3,363.5 583.9,362.7 582.4,362.7Z" style="fill:rgb(35,31,32);fill-rule:nonzero;"/>
                </g>
                <g>
                    <path d="M633.2,331.6C635.6,331.6 637.5,329.7 637.5,327.3C637.5,325 635.7,323.1 633.4,323C633.5,322.6 633.6,322.2 633.6,321.8C633.6,319.4 631.7,317.5 629.3,317.5C626.9,317.5 625,319.4 625,321.8C625,322.2 625.1,322.6 625.2,323C622.9,323.1 621.1,325 621.1,327.3C621.1,329.7 623,331.6 625.4,331.6C626.9,331.6 628.2,330.8 629,329.7L629,329.8C628.6,333.2 624.1,335.2 624.1,335.2L634.5,335.2C634.5,335.2 630,333.2 629.6,329.8L629.6,329.7C630.4,330.9 631.7,331.6 633.2,331.6Z" style="fill:rgb(35,31,32);fill-rule:nonzero;"/>
                    <path d="M625.3,404.4C622.9,404.4 621,406.3 621,408.7C621,411 622.8,412.9 625.1,413C625,413.4 624.9,413.8 624.9,414.2C624.9,416.6 626.8,418.5 629.2,418.5C631.6,418.5 633.5,416.6 633.5,414.2C633.5,413.8 633.4,413.4 633.3,413C635.6,412.9 637.4,411 637.4,408.7C637.4,406.3 635.5,404.4 633.1,404.4C631.6,404.4 630.3,405.2 629.5,406.3L629.5,406.2C629.9,402.8 634.4,400.8 634.4,400.8L624,400.8C624,400.8 628.5,402.8 628.9,406.2L628.9,406.3C628.1,405.1 626.8,404.4 625.3,404.4Z" style="fill:rgb(35,31,32);fill-rule:nonzero;"/>
                    <path d="M625.3,362.7C622.9,362.7 621,364.6 621,367C621,369.3 622.8,371.2 625.1,371.3C625,371.7 624.9,372.1 624.9,372.5C624.9,374.9 626.8,376.8 629.2,376.8C631.6,376.8 633.5,374.9 633.5,372.5C633.5,372.1 633.4,371.7 633.3,371.3C635.6,371.2 637.4,369.3 637.4,367C637.4,364.6 635.5,362.7 633.1,362.7C631.6,362.7 630.3,363.5 629.5,364.6L629.5,364.5C629.9,361.1 634.4,359.1 634.4,359.1L624,359.1C624,359.1 628.5,361.1 628.9,364.5L628.9,364.6C628.1,363.5 626.8,362.7 625.3,362.7Z" style="fill:rgb(35,31,32);fill-rule:nonzero;"/>
                </g>
            </g>
        </g>
    </g>
</svg>
