<?xml version="1.0" encoding="UTF-8" standalone="no"?>
<!DOCTYPE svg PUBLIC "-//W3C//DTD SVG 1.1//EN" "http://www.w3.org/Graphics/SVG/1.1/DTD/svg11.dtd">
<svg width="100%" height="100%" viewBox="0 0 97 128" version="1.1" xmlns="http://www.w3.org/2000/svg" xmlns:xlink="http://www.w3.org/1999/xlink" xml:space="preserve" xmlns:serif="http://www.serif.com/" style="fill-rule:evenodd;clip-rule:evenodd;stroke-linejoin:round;stroke-miterlimit:2;">
    <g transform="matrix(1,0,0,1,-1528,-304)">
        <g>
            <g>
                <path d="M1611.3,431.4L1541.7,431.4C1534.2,431.4 1528.2,425.3 1528.2,417.9L1528.2,318.1C1528.2,310.6 1534.3,304.6 1541.7,304.6L1611.3,304.6C1618.8,304.6 1624.8,310.7 1624.8,318.1L1624.8,417.9C1624.8,425.4 1618.8,431.4 1611.3,431.4Z" style="fill:rgb(251,251,252);fill-rule:nonzero;"/>
                <path d="M1584.1,378.1C1588.6,378.1 1592.3,374.4 1592.3,369.9C1592.3,365.5 1588.8,361.9 1584.4,361.7C1584.6,361 1584.7,360.2 1584.7,359.4C1584.7,354.9 1581,351.2 1576.5,351.2C1572,351.2 1568.3,354.9 1568.3,359.4C1568.3,360.2 1568.4,361 1568.6,361.7C1564.2,361.9 1560.7,365.5 1560.7,369.9C1560.7,374.4 1564.4,378.1 1568.9,378.1C1571.8,378.1 1574.3,376.6 1575.8,374.4L1575.8,374.6C1575.1,381.2 1566.5,384.9 1566.5,384.9L1586.5,384.9C1586.5,384.9 1577.9,381.2 1577.2,374.6L1577.2,374.4C1578.7,376.6 1581.2,378.1 1584.1,378.1Z" style="fill:rgb(35,31,32);fill-rule:nonzero;"/>
                <g>
                    <g>
                        <g>
                            <g>
                                <path d="M1540.2,319.9L1535.9,319.9L1535.1,321.8C1534.9,322.3 1534.8,322.6 1534.8,322.9L1534.8,323.2C1534.8,323.3 1534.9,323.4 1535,323.4C1535.1,323.5 1535.2,323.5 1535.4,323.6C1535.6,323.6 1535.8,323.7 1536.1,323.7L1536.1,324L1532.6,324L1532.6,323.7C1532.9,323.7 1533.1,323.6 1533.3,323.5C1533.5,323.4 1533.6,323.3 1533.7,323.1C1533.8,322.9 1533.9,322.7 1534,322.5C1534.1,322.3 1534.2,321.9 1534.4,321.6L1538.3,311.6L1538.6,311.6L1542.5,321.7C1542.7,322.1 1542.8,322.5 1542.9,322.7C1543,323 1543.2,323.2 1543.3,323.3C1543.4,323.4 1543.6,323.5 1543.8,323.6C1544,323.7 1544.2,323.7 1544.4,323.7L1544.4,324L1540,324L1540,323.7C1540.4,323.7 1540.7,323.6 1540.9,323.5C1541.1,323.4 1541.1,323.2 1541.1,323C1541.1,322.7 1541,322.3 1540.8,321.7L1540.2,319.9ZM1539.9,319.2L1538,314.3L1536.1,319.2L1539.9,319.2Z" style="fill:rgb(35,31,32);fill-rule:nonzero;"/>
                            </g>
                        </g>
                        <g>
                            <g>
                                <path d="M1616.8,414.4C1617,413.8 1617.1,413.4 1617.1,413.1C1617.1,412.9 1617,412.7 1616.9,412.6C1616.7,412.5 1616.4,412.4 1616,412.4L1616,412L1620.4,412L1620.4,412.3C1620.2,412.3 1620,412.3 1619.8,412.4C1619.6,412.5 1619.5,412.6 1619.3,412.7C1619.2,412.8 1619,413 1618.9,413.3C1618.8,413.6 1618.6,413.9 1618.5,414.3L1614.6,424.4L1614.3,424.4L1610.4,414.4C1610.3,414 1610.1,413.7 1610,413.5C1609.9,413.3 1609.8,413 1609.7,412.9C1609.6,412.7 1609.4,412.6 1609.3,412.5C1609.1,412.4 1608.9,412.3 1608.6,412.3L1608.6,412L1612.1,412L1612.1,412.3C1611.8,412.3 1611.6,412.4 1611.4,412.4C1611.2,412.4 1611.1,412.5 1611,412.6C1610.9,412.7 1610.8,412.7 1610.8,412.8L1610.8,413.1C1610.8,413.3 1610.9,413.7 1611.1,414.2L1611.9,416.1L1616.2,416.1L1616.8,414.4ZM1612.1,416.8L1614,421.7L1615.9,416.8L1612.1,416.8Z" style="fill:rgb(35,31,32);fill-rule:nonzero;"/>
                            </g>
                        </g>
                        <path d="M1616.5,402.7C1617.7,402.7 1618.6,403.7 1618.6,404.8C1618.6,405.9 1617.7,406.9 1616.6,406.9C1616.7,407.1 1616.7,407.3 1616.7,407.5C1616.7,408.7 1615.7,409.6 1614.6,409.6C1613.4,409.6 1612.5,408.6 1612.5,407.5C1612.5,407.3 1612.5,407.1 1612.6,406.9C1611.5,406.9 1610.6,405.9 1610.6,404.8C1610.6,403.6 1611.6,402.7 1612.7,402.7C1613.4,402.7 1614.1,403.1 1614.5,403.7C1614.3,402 1612.1,401 1612.1,401L1617.3,401C1617.3,401 1615.1,402 1614.9,403.7C1615.1,403.1 1615.7,402.7 1616.5,402.7Z" style="fill:rgb(35,31,32);fill-rule:nonzero;"/>
                    </g>
                    <path d="M1540.5,333.3C1541.7,333.3 1542.6,332.3 1542.6,331.2C1542.6,330.1 1541.7,329.1 1540.6,329.1C1540.7,328.9 1540.7,328.7 1540.7,328.5C1540.7,327.3 1539.7,326.4 1538.6,326.4C1537.4,326.4 1536.5,327.4 1536.5,328.5C1536.5,328.7 1536.5,328.9 1536.6,329.1C1535.5,329.1 1534.6,330.1 1534.6,331.2C1534.6,332.4 1535.6,333.3 1536.7,333.3C1537.4,333.3 1538.1,332.9 1538.5,332.3C1538.3,334 1536.1,335 1536.1,335L1541.3,335C1541.3,335 1539.1,334 1538.9,332.3C1539.1,332.9 1539.7,333.3 1540.5,333.3Z" style="fill:rgb(35,31,32);fill-rule:nonzero;"/>
                </g>
            </g>
        </g>
    </g>
</svg>
