<?xml version="1.0" encoding="UTF-8" standalone="no"?>
<!DOCTYPE svg PUBLIC "-//W3C//DTD SVG 1.1//EN" "http://www.w3.org/Graphics/SVG/1.1/DTD/svg11.dtd">
<svg width="100%" height="100%" viewBox="0 0 98 128" version="1.1" xmlns="http://www.w3.org/2000/svg" xmlns:xlink="http://www.w3.org/1999/xlink" xml:space="preserve" xmlns:serif="http://www.serif.com/" style="fill-rule:evenodd;clip-rule:evenodd;stroke-linejoin:round;stroke-miterlimit:2;">
    <g transform="matrix(1,0,0,1,-680,-304)">
        <g>
            <path d="M763.7,431.4L694.1,431.4C686.6,431.4 680.6,425.3 680.6,417.9L680.6,318.1C680.6,310.6 686.7,304.6 694.1,304.6L763.7,304.6C771.2,304.6 777.2,310.7 777.2,318.1L777.2,417.9C777.2,425.4 771.2,431.4 763.7,431.4Z" style="fill:rgb(251,251,252);fill-rule:nonzero;"/>
            <g>
                <path d="M688.2,312L694.6,312L694.6,312.3L690.6,324.2L689.6,324.2L693.2,313.4L689.9,313.4C689.2,313.4 688.8,313.5 688.5,313.6C688,313.9 687.6,314.3 687.3,314.9L687,314.8L688.2,312Z" style="fill:rgb(35,31,32);fill-rule:nonzero;"/>
            </g>
            <g>
                <path d="M769.6,424L763.2,424L763.2,423.7L767.2,411.8L768.2,411.8L764.6,422.6L767.9,422.6C768.6,422.6 769,422.5 769.3,422.4C769.8,422.1 770.2,421.7 770.5,421.1L770.8,421.2L769.6,424Z" style="fill:rgb(35,31,32);fill-rule:nonzero;"/>
            </g>
            <path d="M768.9,402.7C770.1,402.7 771,403.7 771,404.8C771,405.9 770.1,406.9 769,406.9C769.1,407.1 769.1,407.3 769.1,407.5C769.1,408.7 768.1,409.6 767,409.6C765.8,409.6 764.9,408.6 764.9,407.5C764.9,407.3 764.9,407.1 765,406.9C763.9,406.9 763,405.9 763,404.8C763,403.6 764,402.7 765.1,402.7C765.8,402.7 766.5,403.1 766.9,403.7C766.7,402 764.5,401 764.5,401L769.7,401C769.7,401 767.5,402 767.3,403.7C767.5,403.1 768.1,402.7 768.9,402.7Z" style="fill:rgb(35,31,32);fill-rule:nonzero;"/>
            <path d="M692.9,333.3C694.1,333.3 695,332.3 695,331.2C695,330.1 694.1,329.1 693,329.1C693.1,328.9 693.1,328.7 693.1,328.5C693.1,327.3 692.1,326.4 691,326.4C689.8,326.4 688.9,327.4 688.9,328.5C688.9,328.7 688.9,328.9 689,329.1C687.9,329.1 687,330.1 687,331.2C687,332.4 688,333.3 689.1,333.3C689.8,333.3 690.5,332.9 690.9,332.3C690.7,334 688.5,335 688.5,335L693.7,335C693.7,335 691.5,334 691.3,332.3C691.5,332.9 692.1,333.3 692.9,333.3Z" style="fill:rgb(35,31,32);fill-rule:nonzero;"/>
            <g>
                <g>
                    <path d="M711.5,331.6C713.9,331.6 715.8,329.7 715.8,327.3C715.8,325 714,323.1 711.7,323C711.8,322.6 711.9,322.2 711.9,321.8C711.9,319.4 710,317.5 707.6,317.5C705.2,317.5 703.3,319.4 703.3,321.8C703.3,322.2 703.4,322.6 703.5,323C701.2,323.1 699.4,325 699.4,327.3C699.4,329.7 701.3,331.6 703.7,331.6C705.2,331.6 706.5,330.8 707.3,329.7L707.3,329.8C706.9,333.2 702.4,335.2 702.4,335.2L712.8,335.2C712.8,335.2 708.3,333.2 707.9,329.8L707.9,329.7C708.6,330.9 710,331.6 711.5,331.6Z" style="fill:rgb(35,31,32);fill-rule:nonzero;"/>
                    <path d="M703.5,404.4C701.1,404.4 699.2,406.3 699.2,408.7C699.2,411 701,412.9 703.3,413C703.2,413.4 703.1,413.8 703.1,414.2C703.1,416.6 705,418.5 707.4,418.5C709.8,418.5 711.7,416.6 711.7,414.2C711.7,413.8 711.6,413.4 711.5,413C713.8,412.9 715.6,411 715.6,408.7C715.6,406.3 713.7,404.4 711.3,404.4C709.8,404.4 708.5,405.2 707.7,406.3L707.7,406.2C708.1,402.8 712.6,400.8 712.6,400.8L702.2,400.8C702.2,400.8 706.7,402.8 707.1,406.2L707.1,406.3C706.4,405.1 705,404.4 703.5,404.4Z" style="fill:rgb(35,31,32);fill-rule:nonzero;"/>
                    <path d="M703.5,362.7C701.1,362.7 699.2,364.6 699.2,367C699.2,369.3 701,371.2 703.3,371.3C703.2,371.7 703.1,372.1 703.1,372.5C703.1,374.9 705,376.8 707.4,376.8C709.8,376.8 711.7,374.9 711.7,372.5C711.7,372.1 711.6,371.7 711.5,371.3C713.8,371.2 715.6,369.3 715.6,367C715.6,364.6 713.7,362.7 711.3,362.7C709.8,362.7 708.5,363.5 707.7,364.6L707.7,364.5C708.1,361.1 712.6,359.1 712.6,359.1L702.2,359.1C702.2,359.1 706.7,361.1 707.1,364.5L707.1,364.6C706.4,363.5 705,362.7 703.5,362.7Z" style="fill:rgb(35,31,32);fill-rule:nonzero;"/>
                    <path d="M724.9,383.5C722.5,383.5 720.6,385.4 720.6,387.8C720.6,390.1 722.4,392 724.7,392.1C724.6,392.5 724.5,392.9 724.5,393.3C724.5,395.7 726.4,397.6 728.8,397.6C731.2,397.6 733.1,395.7 733.1,393.3C733.1,392.9 733,392.5 732.9,392.1C735.2,392 737,390.1 737,387.8C737,385.4 735.1,383.5 732.7,383.5C731.2,383.5 729.9,384.3 729.1,385.4L729.1,385.3C729.5,381.9 734,379.9 734,379.9L723.6,379.9C723.6,379.9 728.1,381.9 728.5,385.3L728.5,385.4C727.8,384.3 726.4,383.5 724.9,383.5Z" style="fill:rgb(35,31,32);fill-rule:nonzero;"/>
                </g>
                <g>
                    <path d="M754.3,331.6C756.7,331.6 758.6,329.7 758.6,327.3C758.6,325 756.8,323.1 754.5,323C754.6,322.6 754.7,322.2 754.7,321.8C754.7,319.4 752.8,317.5 750.4,317.5C748,317.5 746.1,319.4 746.1,321.8C746.1,322.2 746.2,322.6 746.3,323C744,323.1 742.2,325 742.2,327.3C742.2,329.7 744.1,331.6 746.5,331.6C748,331.6 749.3,330.8 750.1,329.7L750.1,329.8C749.7,333.2 745.2,335.2 745.2,335.2L755.6,335.2C755.6,335.2 751.1,333.2 750.7,329.8L750.7,329.7C751.5,330.9 752.8,331.6 754.3,331.6Z" style="fill:rgb(35,31,32);fill-rule:nonzero;"/>
                    <path d="M746.4,404.4C744,404.4 742.1,406.3 742.1,408.7C742.1,411 743.9,412.9 746.2,413C746.1,413.4 746,413.8 746,414.2C746,416.6 747.9,418.5 750.3,418.5C752.7,418.5 754.6,416.6 754.6,414.2C754.6,413.8 754.5,413.4 754.4,413C756.7,412.9 758.5,411 758.5,408.7C758.5,406.3 756.6,404.4 754.2,404.4C752.7,404.4 751.4,405.2 750.6,406.3L750.6,406.2C751,402.8 755.5,400.8 755.5,400.8L745.1,400.8C745.1,400.8 749.6,402.8 750,406.2L750,406.3C749.2,405.1 747.9,404.4 746.4,404.4Z" style="fill:rgb(35,31,32);fill-rule:nonzero;"/>
                    <path d="M746.4,362.7C744,362.7 742.1,364.6 742.1,367C742.1,369.3 743.9,371.2 746.2,371.3C746.1,371.7 746,372.1 746,372.5C746,374.9 747.9,376.8 750.3,376.8C752.7,376.8 754.6,374.9 754.6,372.5C754.6,372.1 754.5,371.7 754.4,371.3C756.7,371.2 758.5,369.3 758.5,367C758.5,364.6 756.6,362.7 754.2,362.7C752.7,362.7 751.4,363.5 750.6,364.6L750.6,364.5C751,361.1 755.5,359.1 755.5,359.1L745.1,359.1C745.1,359.1 749.6,361.1 750,364.5L750,364.6C749.2,363.5 747.9,362.7 746.4,362.7Z" style="fill:rgb(35,31,32);fill-rule:nonzero;"/>
                </g>
            </g>
        </g>
    </g>
</svg>
