<?xml version="1.0" encoding="UTF-8" standalone="no"?>
<!DOCTYPE svg PUBLIC "-//W3C//DTD SVG 1.1//EN" "http://www.w3.org/Graphics/SVG/1.1/DTD/svg11.dtd">
<svg width="100%" height="100%" viewBox="0 0 97 128" version="1.1" xmlns="http://www.w3.org/2000/svg" xmlns:xlink="http://www.w3.org/1999/xlink" xml:space="preserve" xmlns:serif="http://www.serif.com/" style="fill-rule:evenodd;clip-rule:evenodd;stroke-linejoin:round;stroke-miterlimit:2;">
    <g transform="matrix(1,0,0,1,-75,-304)">
        <g>
            <path d="M158.3,431.4L88.7,431.4C81.2,431.4 75.2,425.3 75.2,417.9L75.2,318.1C75.2,310.6 81.3,304.6 88.7,304.6L158.3,304.6C165.8,304.6 171.8,310.7 171.8,318.1L171.8,417.9C171.8,425.4 165.7,431.4 158.3,431.4Z" style="fill:rgb(251,251,252);fill-rule:nonzero;"/>
            <g>
                <path d="M89.1,321.6L88.3,323.7L81.9,323.7L81.9,323.4C83.8,321.7 85.1,320.3 85.9,319.2C86.7,318.1 87.1,317.1 87.1,316.2C87.1,315.5 86.9,314.9 86.5,314.5C86.1,314.1 85.6,313.8 85,313.8C84.5,313.8 84,314 83.6,314.3C83.2,314.6 82.9,315.1 82.7,315.7L82.4,315.7C82.5,314.7 82.9,314 83.4,313.4C84,312.9 84.6,312.6 85.5,312.6C86.4,312.6 87.1,312.9 87.7,313.4C88.3,314 88.6,314.6 88.6,315.4C88.6,316 88.5,316.5 88.2,317.1C87.8,318 87.2,318.9 86.3,319.8C85,321.3 84.1,322.1 83.8,322.4L86.6,322.4C87.2,322.4 87.6,322.4 87.8,322.3C88,322.3 88.2,322.2 88.4,322C88.6,321.9 88.7,321.7 88.9,321.4L89.1,321.4L89.1,321.6Z" style="fill:rgb(35,31,32);fill-rule:nonzero;"/>
            </g>
            <g>
                <path d="M157.9,414.1L158.7,412L165.1,412L165.1,412.3C163.2,414 161.9,415.4 161.1,416.5C160.3,417.6 159.9,418.6 159.9,419.5C159.9,420.2 160.1,420.8 160.5,421.2C160.9,421.6 161.4,421.9 162,421.9C162.5,421.9 163,421.7 163.4,421.4C163.8,421.1 164.1,420.6 164.3,420L164.6,420C164.5,421 164.1,421.7 163.6,422.3C163,422.8 162.4,423.1 161.5,423.1C160.6,423.1 159.9,422.8 159.3,422.3C158.7,421.7 158.4,421.1 158.4,420.3C158.4,419.7 158.5,419.2 158.8,418.6C159.2,417.7 159.8,416.8 160.7,415.9C162,414.4 162.9,413.6 163.2,413.3L160.4,413.3C159.8,413.3 159.4,413.3 159.2,413.4C159,413.4 158.8,413.5 158.6,413.7C158.4,413.8 158.3,414 158.1,414.3L157.9,414.3L157.9,414.1Z" style="fill:rgb(35,31,32);fill-rule:nonzero;"/>
            </g>
            <g>
                <path d="M126.8,331.6C129.2,331.6 131.1,329.7 131.1,327.3C131.1,325 129.3,323.1 127,323C127.1,322.6 127.2,322.2 127.2,321.8C127.2,319.4 125.3,317.5 122.9,317.5C120.5,317.5 118.6,319.4 118.6,321.8C118.6,322.2 118.7,322.6 118.8,323C116.5,323.1 114.7,325 114.7,327.3C114.7,329.7 116.6,331.6 119,331.6C120.5,331.6 121.8,330.8 122.6,329.7L122.6,329.8C122.2,333.2 117.7,335.2 117.7,335.2L128.1,335.2C128.1,335.2 123.6,333.2 123.2,329.8L123.2,329.7C124,330.9 125.3,331.6 126.8,331.6Z" style="fill:rgb(35,31,32);fill-rule:nonzero;"/>
                <path d="M118.9,404.4C116.5,404.4 114.6,406.3 114.6,408.7C114.6,411 116.4,412.9 118.7,413C118.6,413.4 118.5,413.8 118.5,414.2C118.5,416.6 120.4,418.5 122.8,418.5C125.2,418.5 127.1,416.6 127.1,414.2C127.1,413.8 127,413.4 126.9,413C129.2,412.9 131,411 131,408.7C131,406.3 129.1,404.4 126.7,404.4C125.2,404.4 123.9,405.2 123.1,406.3L123.1,406.2C123.5,402.8 128,400.8 128,400.8L117.6,400.8C117.6,400.8 122.1,402.8 122.5,406.2L122.5,406.3C121.7,405.1 120.4,404.4 118.9,404.4Z" style="fill:rgb(35,31,32);fill-rule:nonzero;"/>
            </g>
            <path d="M162.8,402.7C164,402.7 164.9,403.7 164.9,404.8C164.9,405.9 164,406.9 162.9,406.9C163,407.1 163,407.3 163,407.5C163,408.7 162,409.6 160.9,409.6C159.7,409.6 158.8,408.6 158.8,407.5C158.8,407.3 158.8,407.1 158.9,406.9C157.8,406.9 156.9,405.9 156.9,404.8C156.9,403.6 157.9,402.7 159,402.7C159.7,402.7 160.4,403.1 160.8,403.7C160.6,402 158.4,401 158.4,401L163.6,401C163.6,401 161.4,402 161.2,403.7C161.4,403.1 162.1,402.7 162.8,402.7Z" style="fill:rgb(35,31,32);fill-rule:nonzero;"/>
            <path d="M86.8,333.3C88,333.3 88.9,332.3 88.9,331.2C88.9,330.1 88,329.1 86.9,329.1C87,328.9 87,328.7 87,328.5C87,327.3 86,326.4 84.9,326.4C83.7,326.4 82.8,327.4 82.8,328.5C82.8,328.7 82.8,328.9 82.9,329.1C81.8,329.1 80.9,330.1 80.9,331.2C80.9,332.4 81.9,333.3 83,333.3C83.7,333.3 84.4,332.9 84.8,332.3C84.6,334 82.4,335 82.4,335L87.6,335C87.6,335 85.4,334 85.2,332.3C85.4,332.9 86.1,333.3 86.8,333.3Z" style="fill:rgb(35,31,32);fill-rule:nonzero;"/>
        </g>
    </g>
</svg>
