<?xml version="1.0" encoding="UTF-8" standalone="no"?>
<!DOCTYPE svg PUBLIC "-//W3C//DTD SVG 1.1//EN" "http://www.w3.org/Graphics/SVG/1.1/DTD/svg11.dtd">
<svg width="100%" height="100%" viewBox="0 0 97 128" version="1.1" xmlns="http://www.w3.org/2000/svg" xmlns:xlink="http://www.w3.org/1999/xlink" xml:space="preserve" xmlns:serif="http://www.serif.com/" style="fill-rule:evenodd;clip-rule:evenodd;stroke-linejoin:round;stroke-miterlimit:2;">
    <g transform="matrix(1,0,0,1,-438,-304)">
        <g>
            <path d="M521.5,431.4L451.9,431.4C444.4,431.4 438.4,425.3 438.4,417.9L438.4,318.1C438.4,310.6 444.5,304.6 451.9,304.6L521.5,304.6C529,304.6 535,310.7 535,318.1L535,417.9C535.1,425.4 529,431.4 521.5,431.4Z" style="fill:rgb(251,251,252);fill-rule:nonzero;"/>
            <g>
                <path d="M452.1,312L451.4,313.5L447.8,313.5L447,315.1C448.6,315.3 449.8,315.9 450.7,316.8C451.5,317.6 451.9,318.5 451.9,319.6C451.9,320.2 451.8,320.8 451.5,321.3C451.2,321.8 450.9,322.3 450.5,322.7C450.1,323.1 449.7,323.4 449.2,323.6C448.5,323.9 447.8,324.1 447.1,324.1C446.4,324.1 445.9,324 445.5,323.7C445.2,323.5 445,323.2 445,322.9C445,322.7 445.1,322.6 445.2,322.5C445.3,322.4 445.5,322.3 445.7,322.3C445.9,322.3 446,322.3 446.1,322.4C446.2,322.4 446.4,322.6 446.7,322.8C447.1,323.1 447.6,323.3 448,323.3C448.7,323.3 449.3,323 449.8,322.5C450.3,322 450.6,321.3 450.6,320.6C450.6,319.9 450.4,319.2 449.9,318.6C449.4,318 448.8,317.5 448,317.1C447.4,316.8 446.5,316.7 445.4,316.6L447.7,311.9L452.1,311.9L452.1,312Z" style="fill:rgb(35,31,32);fill-rule:nonzero;"/>
            </g>
            <g>
                <path d="M521.4,424L522.1,422.5L525.7,422.5L526.5,420.9C524.9,420.7 523.7,420.1 522.8,419.2C522,418.4 521.6,417.5 521.6,416.4C521.6,415.8 521.7,415.2 522,414.7C522.3,414.2 522.6,413.7 523,413.3C523.4,412.9 523.8,412.6 524.3,412.4C525,412.1 525.7,411.9 526.4,411.9C527.1,411.9 527.6,412 528,412.3C528.3,412.5 528.5,412.8 528.5,413.1C528.5,413.3 528.4,413.4 528.3,413.5C528.2,413.6 528,413.7 527.8,413.7C527.6,413.7 527.5,413.7 527.4,413.6C527.3,413.6 527.1,413.4 526.8,413.2C526.4,412.9 525.9,412.7 525.5,412.7C524.8,412.7 524.2,413 523.7,413.5C523.2,414 522.9,414.7 522.9,415.4C522.9,416.1 523.1,416.8 523.6,417.4C524.1,418 524.7,418.5 525.5,418.9C526.1,419.2 527,419.3 528.1,419.4L525.8,424.1L521.4,424.1L521.4,424Z" style="fill:rgb(35,31,32);fill-rule:nonzero;"/>
            </g>
            <g>
                <g>
                    <path d="M469.5,331.6C471.9,331.6 473.8,329.7 473.8,327.3C473.8,325 472,323.1 469.7,323C469.8,322.6 469.9,322.2 469.9,321.8C469.9,319.4 468,317.5 465.6,317.5C463.2,317.5 461.3,319.4 461.3,321.8C461.3,322.2 461.4,322.6 461.5,323C459.2,323.1 457.4,325 457.4,327.3C457.4,329.7 459.3,331.6 461.7,331.6C463.2,331.6 464.5,330.8 465.3,329.7L465.3,329.8C464.9,333.2 460.4,335.2 460.4,335.2L470.8,335.2C470.8,335.2 466.3,333.2 465.9,329.8L465.9,329.7C466.6,330.9 468,331.6 469.5,331.6Z" style="fill:rgb(35,31,32);fill-rule:nonzero;"/>
                    <path d="M490.7,373.3C493.1,373.3 495,371.4 495,369C495,366.7 493.2,364.8 490.9,364.7C491,364.3 491.1,363.9 491.1,363.5C491.1,361.1 489.2,359.2 486.8,359.2C484.4,359.2 482.5,361.1 482.5,363.5C482.5,363.9 482.6,364.3 482.7,364.7C480.4,364.8 478.6,366.7 478.6,369C478.6,371.4 480.5,373.3 482.9,373.3C484.4,373.3 485.7,372.5 486.5,371.4L486.5,371.5C486.1,374.9 481.6,376.9 481.6,376.9L492,376.9C492,376.9 487.5,374.9 487.1,371.5L487.1,371.4C487.9,372.5 489.2,373.3 490.7,373.3Z" style="fill:rgb(35,31,32);fill-rule:nonzero;"/>
                    <path d="M461.5,404.4C459.1,404.4 457.2,406.3 457.2,408.7C457.2,411 459,412.9 461.3,413C461.2,413.4 461.1,413.8 461.1,414.2C461.1,416.6 463,418.5 465.4,418.5C467.8,418.5 469.7,416.6 469.7,414.2C469.7,413.8 469.6,413.4 469.5,413C471.8,412.9 473.6,411 473.6,408.7C473.6,406.3 471.7,404.4 469.3,404.4C467.8,404.4 466.5,405.2 465.7,406.3L465.7,406.2C466.1,402.8 470.6,400.8 470.6,400.8L460.2,400.8C460.2,400.8 464.7,402.8 465.1,406.2L465.1,406.3C464.4,405.1 463,404.4 461.5,404.4Z" style="fill:rgb(35,31,32);fill-rule:nonzero;"/>
                </g>
                <g>
                    <path d="M512,331.6C514.4,331.6 516.3,329.7 516.3,327.3C516.3,325 514.5,323.1 512.2,323C512.3,322.6 512.4,322.2 512.4,321.8C512.4,319.4 510.5,317.5 508.1,317.5C505.7,317.5 503.8,319.4 503.8,321.8C503.8,322.2 503.9,322.6 504,323C501.7,323.1 499.9,325 499.9,327.3C499.9,329.7 501.8,331.6 504.2,331.6C505.7,331.6 507,330.8 507.8,329.7L507.8,329.8C507.4,333.2 502.9,335.2 502.9,335.2L513.3,335.2C513.3,335.2 508.8,333.2 508.4,329.8L508.4,329.7C509.1,330.9 510.5,331.6 512,331.6Z" style="fill:rgb(35,31,32);fill-rule:nonzero;"/>
                    <path d="M504,404.4C501.6,404.4 499.7,406.3 499.7,408.7C499.7,411 501.5,412.9 503.8,413C503.7,413.4 503.6,413.8 503.6,414.2C503.6,416.6 505.5,418.5 507.9,418.5C510.3,418.5 512.2,416.6 512.2,414.2C512.2,413.8 512.1,413.4 512,413C514.3,412.9 516.1,411 516.1,408.7C516.1,406.3 514.2,404.4 511.8,404.4C510.3,404.4 509,405.2 508.2,406.3L508.2,406.2C508.6,402.8 513.1,400.8 513.1,400.8L502.8,400.8C502.8,400.8 507.3,402.8 507.7,406.2L507.7,406.3C506.8,405.1 505.5,404.4 504,404.4Z" style="fill:rgb(35,31,32);fill-rule:nonzero;"/>
                </g>
            </g>
            <path d="M526.7,402.7C527.9,402.7 528.8,403.7 528.8,404.8C528.8,405.9 527.9,406.9 526.8,406.9C526.9,407.1 526.9,407.3 526.9,407.5C526.9,408.7 525.9,409.6 524.8,409.6C523.6,409.6 522.7,408.6 522.7,407.5C522.7,407.3 522.7,407.1 522.8,406.9C521.7,406.9 520.8,405.9 520.8,404.8C520.8,403.6 521.8,402.7 522.9,402.7C523.6,402.7 524.3,403.1 524.7,403.7C524.5,402 522.3,401 522.3,401L527.5,401C527.5,401 525.3,402 525.1,403.7C525.3,403.1 525.9,402.7 526.7,402.7Z" style="fill:rgb(35,31,32);fill-rule:nonzero;"/>
            <path d="M450.7,333.3C451.9,333.3 452.8,332.3 452.8,331.2C452.8,330.1 451.9,329.1 450.8,329.1C450.9,328.9 450.9,328.7 450.9,328.5C450.9,327.3 449.9,326.4 448.8,326.4C447.6,326.4 446.7,327.4 446.7,328.5C446.7,328.7 446.7,328.9 446.8,329.1C445.7,329.1 444.8,330.1 444.8,331.2C444.8,332.4 445.8,333.3 446.9,333.3C447.6,333.3 448.3,332.9 448.7,332.3C448.5,334 446.3,335 446.3,335L451.5,335C451.5,335 449.3,334 449.1,332.3C449.3,332.9 450,333.3 450.7,333.3Z" style="fill:rgb(35,31,32);fill-rule:nonzero;"/>
        </g>
    </g>
</svg>
