<?xml version="1.0" encoding="UTF-8" standalone="no"?>
<!DOCTYPE svg PUBLIC "-//W3C//DTD SVG 1.1//EN" "http://www.w3.org/Graphics/SVG/1.1/DTD/svg11.dtd">
<svg width="100%" height="100%" viewBox="0 0 97 128" version="1.1" xmlns="http://www.w3.org/2000/svg" xmlns:xlink="http://www.w3.org/1999/xlink" xml:space="preserve" xmlns:serif="http://www.serif.com/" style="fill-rule:evenodd;clip-rule:evenodd;stroke-linejoin:round;stroke-miterlimit:2;">
    <g transform="matrix(1,0,0,1,-1528,-117)">
        <g>
            <g>
                <path d="M1611.3,244.6L1541.7,244.6C1534.2,244.6 1528.2,238.5 1528.2,231.1L1528.2,131.3C1528.2,123.8 1534.3,117.8 1541.7,117.8L1611.3,117.8C1618.8,117.8 1624.8,123.9 1624.8,131.3L1624.8,231.1C1624.8,238.6 1618.8,244.6 1611.3,244.6Z" style="fill:rgb(251,251,252);fill-rule:nonzero;"/>
                <path d="M1576.5,157.7L1559.9,181.2L1576.5,204.7L1593.2,181.2L1576.5,157.7Z" style="fill:rgb(253,5,21);fill-rule:nonzero;"/>
                <g>
                    <g>
                        <g>
                            <path d="M1540.2,133.2L1535.9,133.2L1535.1,135.1C1534.9,135.6 1534.8,135.9 1534.8,136.2L1534.8,136.5C1534.8,136.6 1534.9,136.7 1535,136.7C1535.1,136.8 1535.2,136.8 1535.4,136.9C1535.6,136.9 1535.8,137 1536.1,137L1536.1,137.3L1532.6,137.3L1532.6,137C1532.9,137 1533.1,136.9 1533.3,136.8C1533.5,136.7 1533.6,136.6 1533.7,136.4C1533.8,136.2 1533.9,136 1534,135.8C1534.1,135.6 1534.2,135.2 1534.4,134.9L1538.3,124.9L1538.6,124.9L1542.5,135C1542.7,135.4 1542.8,135.8 1542.9,136C1543,136.3 1543.2,136.5 1543.3,136.6C1543.4,136.7 1543.6,136.8 1543.8,136.9C1544,137 1544.2,137 1544.4,137L1544.4,137.3L1540,137.3L1540,137C1540.4,137 1540.7,136.9 1540.9,136.8C1541.1,136.7 1541.1,136.5 1541.1,136.3C1541.1,136 1541,135.6 1540.8,135L1540.2,133.2ZM1539.9,132.5L1538,127.6L1536.1,132.5L1539.9,132.5Z" style="fill:rgb(253,5,21);fill-rule:nonzero;"/>
                        </g>
                        <path d="M1538.5,139.6L1535.5,143.9L1538.5,148.3L1541.6,143.9L1538.5,139.6Z" style="fill:rgb(253,5,21);fill-rule:nonzero;"/>
                    </g>
                    <g>
                        <g>
                            <path d="M1616.8,227.6C1617,227 1617.1,226.6 1617.1,226.3C1617.1,226.1 1617,225.9 1616.9,225.8C1616.7,225.7 1616.4,225.6 1616,225.6L1616,225.3L1620.4,225.3L1620.4,225.6C1620.2,225.6 1620,225.6 1619.8,225.7C1619.6,225.8 1619.5,225.9 1619.3,226C1619.2,226.1 1619,226.3 1618.9,226.6C1618.8,226.9 1618.6,227.2 1618.5,227.6L1614.6,237.7L1614.3,237.7L1610.4,227.7C1610.3,227.3 1610.1,227 1610,226.8C1609.9,226.6 1609.8,226.3 1609.7,226.2C1609.6,226 1609.4,225.9 1609.3,225.8C1609.1,225.7 1608.9,225.6 1608.6,225.6L1608.6,225.3L1612.1,225.3L1612.1,225.6C1611.8,225.6 1611.6,225.7 1611.4,225.7C1611.2,225.7 1611.1,225.8 1611,225.9C1610.9,226 1610.8,226 1610.8,226.1L1610.8,226.4C1610.8,226.6 1610.9,227 1611.1,227.5L1611.9,229.4L1616.2,229.4L1616.8,227.6ZM1612.1,230L1614,234.9L1615.9,230L1612.1,230Z" style="fill:rgb(253,5,21);fill-rule:nonzero;"/>
                        </g>
                        <path d="M1614.5,222.9L1611.4,218.6L1614.5,214.2L1617.6,218.6L1614.5,222.9Z" style="fill:rgb(253,5,21);fill-rule:nonzero;"/>
                    </g>
                </g>
            </g>
        </g>
    </g>
</svg>
