<?xml version="1.0" encoding="UTF-8" standalone="no"?>
<!DOCTYPE svg PUBLIC "-//W3C//DTD SVG 1.1//EN" "http://www.w3.org/Graphics/SVG/1.1/DTD/svg11.dtd">
<svg width="100%" height="100%" viewBox="0 0 98 128" version="1.1" xmlns="http://www.w3.org/2000/svg" xmlns:xlink="http://www.w3.org/1999/xlink" xml:space="preserve" xmlns:serif="http://www.serif.com/" style="fill-rule:evenodd;clip-rule:evenodd;stroke-linejoin:round;stroke-miterlimit:2;">
    <g transform="matrix(1,0,0,1,-801,-117)">
        <g>
            <path d="M884.8,244.6L815.2,244.6C807.7,244.6 801.7,238.5 801.7,231.1L801.7,131.3C801.7,123.8 807.8,117.8 815.2,117.8L884.8,117.8C892.3,117.8 898.3,123.9 898.3,131.3L898.3,231.1C898.3,238.6 892.3,244.6 884.8,244.6Z" style="fill:rgb(251,251,252);fill-rule:nonzero;"/>
            <g>
                <g>
                    <path d="M828.5,129L820.2,140.7L828.5,152.3L836.8,140.7L828.5,129Z" style="fill:rgb(253,5,21);fill-rule:nonzero;"/>
                    <path d="M828.5,169.6L820.2,181.2L828.5,192.9L836.8,181.2L828.5,169.6Z" style="fill:rgb(253,5,21);fill-rule:nonzero;"/>
                    <path d="M828.5,210.1L820.2,221.8L828.5,233.5L836.8,221.8L828.5,210.1Z" style="fill:rgb(253,5,21);fill-rule:nonzero;"/>
                </g>
                <g>
                    <path d="M871.5,129L863.2,140.7L871.5,152.3L879.8,140.7L871.5,129Z" style="fill:rgb(253,5,21);fill-rule:nonzero;"/>
                    <path d="M871.5,169.6L863.2,181.2L871.5,192.9L879.8,181.2L871.5,169.6Z" style="fill:rgb(253,5,21);fill-rule:nonzero;"/>
                    <path d="M871.5,210.1L863.2,221.8L871.5,233.5L879.8,221.8L871.5,210.1Z" style="fill:rgb(253,5,21);fill-rule:nonzero;"/>
                </g>
            </g>
            <path d="M812,139.6L808.9,143.9L812,148.3L815.1,143.9L812,139.6Z" style="fill:rgb(253,5,21);fill-rule:nonzero;"/>
            <path d="M888,222.9L884.9,218.6L888,214.2L891.1,218.6L888,222.9Z" style="fill:rgb(253,5,21);fill-rule:nonzero;"/>
            <g>
                <g>
                    <path d="M811,131.2C810.1,130.4 809.4,129.8 809.2,129.3C808.9,128.8 808.8,128.3 808.8,127.8C808.8,127 809.1,126.4 809.7,125.8C810.3,125.2 811.1,125 812.1,125C813.1,125 813.8,125.3 814.4,125.8C815,126.3 815.3,126.9 815.3,127.6C815.3,128 815.1,128.5 814.8,129C814.5,129.5 813.8,130 812.8,130.6C813.8,131.4 814.5,132 814.9,132.5C815.3,133.1 815.6,133.7 815.6,134.4C815.6,135.2 815.3,136 814.6,136.6C814,137.2 813.1,137.5 812.1,137.5C811,137.5 810.1,137.1 809.4,136.4C808.9,135.8 808.6,135.2 808.6,134.5C808.6,134 808.8,133.4 809.1,132.9C809.5,132.4 810.1,131.8 811,131.2ZM811.4,131.5C810.9,131.9 810.5,132.4 810.3,132.8C810.1,133.3 809.9,133.8 809.9,134.4C809.9,135.2 810.1,135.8 810.5,136.2C810.9,136.7 811.4,136.9 812.1,136.9C812.7,136.9 813.2,136.7 813.6,136.4C814,136 814.2,135.6 814.2,135.1C814.2,134.7 814.1,134.3 813.9,134C813.5,133.3 812.7,132.5 811.4,131.5ZM812.4,130.2C813.1,129.6 813.6,129.1 813.7,128.7C813.9,128.3 814,127.9 814,127.5C814,126.9 813.8,126.4 813.5,126C813.2,125.6 812.7,125.5 812.1,125.5C811.5,125.5 811,125.7 810.6,126C810.2,126.3 810,126.8 810,127.2C810,127.5 810.1,127.8 810.2,128.1C810.4,128.4 810.6,128.7 810.9,129L812.4,130.2Z" style="fill:rgb(253,5,21);fill-rule:nonzero;"/>
                </g>
            </g>
            <g>
                <g>
                    <path d="M889,231.3C889.9,232.1 890.6,232.7 890.8,233.2C891.1,233.7 891.2,234.2 891.2,234.7C891.2,235.5 890.9,236.1 890.3,236.7C889.7,237.3 888.9,237.5 887.9,237.5C886.9,237.5 886.2,237.2 885.6,236.7C885,236.2 884.7,235.6 884.7,234.9C884.7,234.5 884.9,234 885.2,233.5C885.5,233 886.2,232.5 887.2,231.9C886.2,231.1 885.5,230.5 885.1,230C884.7,229.4 884.4,228.8 884.4,228.1C884.4,227.3 884.7,226.5 885.4,225.9C886,225.3 886.9,225 887.9,225C889,225 889.9,225.4 890.6,226.1C891.1,226.7 891.4,227.3 891.4,228C891.4,228.5 891.2,229.1 890.9,229.6C890.5,230.1 889.9,230.7 889,231.3ZM888.6,231C889.1,230.6 889.5,230.1 889.7,229.7C889.9,229.2 890.1,228.7 890.1,228.1C890.1,227.3 889.9,226.7 889.5,226.3C889.1,225.8 888.6,225.6 887.9,225.6C887.3,225.6 886.8,225.8 886.4,226.1C886,226.5 885.8,226.9 885.8,227.4C885.8,227.8 885.9,228.2 886.1,228.5C886.5,229.2 887.3,230 888.6,231ZM887.6,232.3C886.9,232.9 886.4,233.4 886.3,233.8C886.1,234.2 886,234.6 886,235C886,235.6 886.2,236.1 886.5,236.5C886.8,236.9 887.3,237 887.9,237C888.5,237 889,236.8 889.4,236.5C889.8,236.2 890,235.7 890,235.3C890,235 889.9,234.7 889.8,234.4C889.6,234.1 889.4,233.8 889.1,233.5L887.6,232.3Z" style="fill:rgb(253,5,21);fill-rule:nonzero;"/>
                </g>
            </g>
            <path d="M850,187.9L841.7,199.6L850,211.3L858.3,199.6L850,187.9Z" style="fill:rgb(253,5,21);fill-rule:nonzero;"/>
            <path d="M850,150.1L841.7,161.8L850,173.5L858.3,161.8L850,150.1Z" style="fill:rgb(253,5,21);fill-rule:nonzero;"/>
        </g>
    </g>
</svg>
