<?xml version="1.0" encoding="UTF-8" standalone="no"?>
<!DOCTYPE svg PUBLIC "-//W3C//DTD SVG 1.1//EN" "http://www.w3.org/Graphics/SVG/1.1/DTD/svg11.dtd">
<svg width="100%" height="100%" viewBox="0 0 97 128" version="1.1" xmlns="http://www.w3.org/2000/svg" xmlns:xlink="http://www.w3.org/1999/xlink" xml:space="preserve" xmlns:serif="http://www.serif.com/" style="fill-rule:evenodd;clip-rule:evenodd;stroke-linejoin:round;stroke-miterlimit:2;">
    <g transform="matrix(1,0,0,1,-438,-117)">
        <g>
            <path d="M521.5,244.6L451.9,244.6C444.4,244.6 438.4,238.5 438.4,231.1L438.4,131.3C438.4,123.8 444.5,117.8 451.9,117.8L521.5,117.8C529,117.8 535,123.9 535,131.3L535,231.1C535.1,238.6 529,244.6 521.5,244.6Z" style="fill:rgb(251,251,252);fill-rule:nonzero;"/>
            <g>
                <g>
                    <path d="M508,129L499.7,140.7L508,152.3L516.3,140.7L508,129Z" style="fill:rgb(253,5,21);fill-rule:nonzero;"/>
                    <path d="M508,210.1L499.7,221.8L508,233.5L516.3,221.8L508,210.1Z" style="fill:rgb(253,5,21);fill-rule:nonzero;"/>
                </g>
                <g>
                    <path d="M465.5,129L457.2,140.7L465.5,152.3L473.8,140.7L465.5,129Z" style="fill:rgb(253,5,21);fill-rule:nonzero;"/>
                    <path d="M465.5,210.1L457.2,221.8L465.5,233.5L473.8,221.8L465.5,210.1Z" style="fill:rgb(253,5,21);fill-rule:nonzero;"/>
                </g>
            </g>
            <path d="M448.8,139.6L445.7,143.9L448.8,148.3L451.8,143.9L448.8,139.6Z" style="fill:rgb(253,5,21);fill-rule:nonzero;"/>
            <path d="M524.7,222.9L521.6,218.6L524.7,214.2L527.8,218.6L524.7,222.9Z" style="fill:rgb(253,5,21);fill-rule:nonzero;"/>
            <g>
                <g>
                    <path d="M452.1,125.2L451.4,126.7L447.8,126.7L447,128.3C448.6,128.5 449.8,129.1 450.7,130C451.5,130.8 451.9,131.7 451.9,132.8C451.9,133.4 451.8,134 451.5,134.5C451.2,135 450.9,135.5 450.5,135.9C450.1,136.3 449.7,136.6 449.2,136.8C448.5,137.1 447.8,137.3 447.1,137.3C446.4,137.3 445.9,137.2 445.5,136.9C445.2,136.7 445,136.4 445,136.1C445,135.9 445.1,135.8 445.2,135.7C445.3,135.6 445.5,135.5 445.7,135.5C445.9,135.5 446,135.5 446.1,135.6C446.2,135.6 446.4,135.8 446.7,136C447.1,136.3 447.6,136.5 448,136.5C448.7,136.5 449.3,136.2 449.8,135.7C450.3,135.2 450.6,134.5 450.6,133.8C450.6,133.1 450.4,132.4 449.9,131.8C449.4,131.2 448.8,130.7 448,130.3C447.4,130 446.5,129.9 445.4,129.8L447.7,125.1L452.1,125.1L452.1,125.2Z" style="fill:rgb(253,5,21);fill-rule:nonzero;"/>
                </g>
            </g>
            <g>
                <g>
                    <path d="M521.4,237.3L522.1,235.8L525.7,235.8L526.5,234.2C524.9,234 523.7,233.4 522.8,232.5C522,231.7 521.6,230.8 521.6,229.7C521.6,229.1 521.7,228.5 522,228C522.3,227.5 522.6,227 523,226.6C523.4,226.2 523.8,225.9 524.3,225.7C525,225.4 525.7,225.2 526.4,225.2C527.1,225.2 527.6,225.3 528,225.6C528.3,225.8 528.5,226.1 528.5,226.4C528.5,226.6 528.4,226.7 528.3,226.8C528.2,226.9 528,227 527.8,227C527.6,227 527.5,227 527.4,226.9C527.3,226.9 527.1,226.7 526.8,226.5C526.4,226.2 525.9,226 525.5,226C524.8,226 524.2,226.3 523.7,226.8C523.2,227.3 522.9,228 522.9,228.7C522.9,229.4 523.1,230.1 523.6,230.7C524.1,231.3 524.7,231.8 525.5,232.2C526.1,232.5 527,232.6 528.1,232.7L525.8,237.4L521.4,237.4L521.4,237.3Z" style="fill:rgb(253,5,21);fill-rule:nonzero;"/>
                </g>
            </g>
            <path d="M486.7,169.6L478.5,181.2L486.7,192.9L495,181.2L486.7,169.6Z" style="fill:rgb(253,5,21);fill-rule:nonzero;"/>
        </g>
    </g>
</svg>
