<?xml version="1.0" encoding="UTF-8" standalone="no"?>
<!DOCTYPE svg PUBLIC "-//W3C//DTD SVG 1.1//EN" "http://www.w3.org/Graphics/SVG/1.1/DTD/svg11.dtd">
<svg width="100%" height="100%" viewBox="0 0 97 128" version="1.1" xmlns="http://www.w3.org/2000/svg" xmlns:xlink="http://www.w3.org/1999/xlink" xml:space="preserve" xmlns:serif="http://www.serif.com/" style="fill-rule:evenodd;clip-rule:evenodd;stroke-linejoin:round;stroke-miterlimit:2;">
    <g transform="matrix(1,0,0,1,-317,-117)">
        <g>
            <path d="M400.4,244.6L330.8,244.6C323.3,244.6 317.3,238.5 317.3,231.1L317.3,131.3C317.3,123.8 323.4,117.8 330.8,117.8L400.4,117.8C407.9,117.8 413.9,123.9 413.9,131.3L413.9,231.1C414,238.6 407.9,244.6 400.4,244.6Z" style="fill:rgb(251,251,252);fill-rule:nonzero;"/>
            <g>
                <g>
                    <path d="M386.9,129L378.6,140.7L386.9,152.3L395.2,140.7L386.9,129Z" style="fill:rgb(253,5,21);fill-rule:nonzero;"/>
                    <path d="M386.9,210.1L378.6,221.8L386.9,233.5L395.2,221.8L386.9,210.1Z" style="fill:rgb(253,5,21);fill-rule:nonzero;"/>
                </g>
                <g>
                    <path d="M344.4,129L336.1,140.7L344.4,152.3L352.7,140.7L344.4,129Z" style="fill:rgb(253,5,21);fill-rule:nonzero;"/>
                    <path d="M344.4,210.1L336.1,221.8L344.4,233.5L352.7,221.8L344.4,210.1Z" style="fill:rgb(253,5,21);fill-rule:nonzero;"/>
                </g>
            </g>
            <path d="M327.7,139.6L324.6,143.9L327.7,148.3L330.8,143.9L327.7,139.6Z" style="fill:rgb(253,5,21);fill-rule:nonzero;"/>
            <path d="M403.6,222.9L400.6,218.6L403.6,214.2L406.7,218.6L403.6,222.9Z" style="fill:rgb(253,5,21);fill-rule:nonzero;"/>
            <g>
                <g>
                    <path d="M331.6,132.8L331.6,134.1L330,134.1L330,137.3L328.5,137.3L328.5,134L323.4,134L323.4,132.9L329,125L330,125L330,132.8L331.6,132.8ZM328.5,132.8L328.5,126.9L324.3,132.8L328.5,132.8Z" style="fill:rgb(253,5,21);fill-rule:nonzero;"/>
                </g>
            </g>
            <g>
                <g>
                    <path d="M399.7,229.7L399.7,228.4L401.3,228.4L401.3,225.2L402.8,225.2L402.8,228.4L407.9,228.4L407.9,229.5L402.3,237.4L401.3,237.4L401.3,229.6L399.7,229.6L399.7,229.7ZM402.8,229.7L402.8,235.6L407,229.7L402.8,229.7Z" style="fill:rgb(253,5,21);fill-rule:nonzero;"/>
                </g>
            </g>
        </g>
    </g>
</svg>
