<?xml version="1.0" encoding="UTF-8" standalone="no"?>
<!DOCTYPE svg PUBLIC "-//W3C//DTD SVG 1.1//EN" "http://www.w3.org/Graphics/SVG/1.1/DTD/svg11.dtd">
<svg width="100%" height="100%" viewBox="0 0 97 128" version="1.1" xmlns="http://www.w3.org/2000/svg" xmlns:xlink="http://www.w3.org/1999/xlink" xml:space="preserve" xmlns:serif="http://www.serif.com/" style="fill-rule:evenodd;clip-rule:evenodd;stroke-linejoin:round;stroke-miterlimit:2;">
    <g transform="matrix(1,0,0,1,-196,-117)">
        <g>
            <path d="M279.4,244.6L209.8,244.6C202.3,244.6 196.3,238.5 196.3,231.1L196.3,131.3C196.3,123.8 202.4,117.8 209.8,117.8L279.4,117.8C286.9,117.8 292.9,123.9 292.9,131.3L292.9,231.1C292.9,238.6 286.8,244.6 279.4,244.6Z" style="fill:rgb(251,251,252);fill-rule:nonzero;"/>
            <g>
                <path d="M243.9,129L235.7,140.7L243.9,152.3L252.2,140.7L243.9,129Z" style="fill:rgb(253,5,21);fill-rule:nonzero;"/>
                <path d="M243.9,169.6L235.7,181.2L243.9,192.9L252.2,181.2L243.9,169.6Z" style="fill:rgb(253,5,21);fill-rule:nonzero;"/>
                <path d="M243.9,210.1L235.7,221.8L243.9,233.5L252.2,221.8L243.9,210.1Z" style="fill:rgb(253,5,21);fill-rule:nonzero;"/>
            </g>
            <path d="M206.6,139.6L203.5,143.9L206.6,148.3L209.7,143.9L206.6,139.6Z" style="fill:rgb(253,5,21);fill-rule:nonzero;"/>
            <path d="M282.6,222.9L279.5,218.6L282.6,214.2L285.6,218.6L282.6,222.9Z" style="fill:rgb(253,5,21);fill-rule:nonzero;"/>
            <g>
                <g>
                    <path d="M203,127.5C203.3,126.7 203.8,126.1 204.3,125.6C204.8,125.2 205.5,124.9 206.2,124.9C207.2,124.9 207.9,125.2 208.4,125.8C208.8,126.3 209,126.8 209,127.3C209,128.2 208.5,129.1 207.4,130C208.1,130.3 208.7,130.7 209.1,131.2C209.5,131.7 209.7,132.4 209.7,133.1C209.7,134.1 209.4,135 208.7,135.8C207.8,136.8 206.6,137.3 205,137.3C204.2,137.3 203.6,137.2 203.4,137C203.1,136.8 203,136.6 203,136.4C203,136.2 203.1,136.1 203.2,135.9C203.3,135.8 203.5,135.7 203.7,135.7C203.8,135.7 204,135.7 204.1,135.8C204.2,135.8 204.4,135.9 204.8,136.1C205.2,136.3 205.4,136.4 205.5,136.4C205.7,136.5 205.9,136.5 206.2,136.5C206.8,136.5 207.3,136.3 207.8,135.8C208.2,135.3 208.5,134.8 208.5,134.1C208.5,133.6 208.4,133.2 208.2,132.7C208,132.4 207.9,132.1 207.7,132C207.4,131.8 207.1,131.6 206.7,131.4C206.3,131.2 205.8,131.1 205.3,131.1L205,131.1L205,131C205.5,130.9 205.9,130.8 206.4,130.5C206.9,130.2 207.2,129.9 207.4,129.5C207.6,129.1 207.7,128.7 207.7,128.2C207.7,127.6 207.5,127.1 207.1,126.7C206.7,126.3 206.2,126.1 205.7,126.1C204.8,126.1 204,126.6 203.4,127.6L203,127.5Z" style="fill:rgb(253,5,21);fill-rule:nonzero;"/>
                </g>
            </g>
            <g>
                <g>
                    <path d="M286.2,235C285.9,235.8 285.4,236.4 284.9,236.9C284.4,237.3 283.7,237.6 283,237.6C282,237.6 281.3,237.3 280.8,236.7C280.4,236.2 280.2,235.7 280.2,235.2C280.2,234.3 280.7,233.4 281.8,232.5C281.1,232.2 280.5,231.8 280.1,231.3C279.7,230.8 279.5,230.1 279.5,229.4C279.5,228.4 279.8,227.5 280.5,226.7C281.4,225.7 282.6,225.2 284.2,225.2C285,225.2 285.6,225.3 285.8,225.5C286.1,225.7 286.2,225.9 286.2,226.1C286.2,226.3 286.1,226.4 286,226.6C285.9,226.7 285.7,226.8 285.5,226.8C285.4,226.8 285.2,226.8 285.1,226.7C285,226.7 284.8,226.6 284.4,226.4C284,226.2 283.8,226.1 283.7,226.1C283.5,226 283.3,226 283,226C282.4,226 281.9,226.2 281.4,226.7C281,227.2 280.7,227.7 280.7,228.4C280.7,228.9 280.8,229.3 281,229.8C281.2,230.1 281.3,230.4 281.5,230.5C281.8,230.7 282.1,230.9 282.5,231.1C282.9,231.3 283.4,231.4 283.9,231.4L284.2,231.4L284.2,231.7C283.7,231.8 283.3,231.9 282.8,232.2C282.3,232.5 282,232.8 281.8,233.2C281.6,233.6 281.5,234 281.5,234.5C281.5,235.1 281.7,235.6 282.1,236C282.5,236.4 283,236.6 283.5,236.6C284.4,236.6 285.2,236.1 285.8,235.1L286.2,235Z" style="fill:rgb(253,5,21);fill-rule:nonzero;"/>
                </g>
            </g>
        </g>
    </g>
</svg>
