<?xml version="1.0" encoding="UTF-8" standalone="no"?>
<!DOCTYPE svg PUBLIC "-//W3C//DTD SVG 1.1//EN" "http://www.w3.org/Graphics/SVG/1.1/DTD/svg11.dtd">
<svg width="100%" height="100%" viewBox="0 0 98 128" version="1.1" xmlns="http://www.w3.org/2000/svg" xmlns:xlink="http://www.w3.org/1999/xlink" xml:space="preserve" xmlns:serif="http://www.serif.com/" style="fill-rule:evenodd;clip-rule:evenodd;stroke-linejoin:round;stroke-miterlimit:2;">
    <g transform="matrix(1,0,0,1,-680,-117)">
        <g>
            <path d="M763.7,244.6L694.1,244.6C686.6,244.6 680.6,238.5 680.6,231.1L680.6,131.3C680.6,123.8 686.7,117.8 694.1,117.8L763.7,117.8C771.2,117.8 777.2,123.9 777.2,131.3L777.2,231.1C777.2,238.6 771.2,244.6 763.7,244.6Z" style="fill:rgb(251,251,252);fill-rule:nonzero;"/>
            <g>
                <g>
                    <path d="M707.4,129L699.1,140.7L707.4,152.3L715.7,140.7L707.4,129Z" style="fill:rgb(253,5,21);fill-rule:nonzero;"/>
                    <path d="M707.4,169.6L699.1,181.2L707.4,192.9L715.7,181.2L707.4,169.6Z" style="fill:rgb(253,5,21);fill-rule:nonzero;"/>
                    <path d="M707.4,210.1L699.1,221.8L707.4,233.5L715.7,221.8L707.4,210.1Z" style="fill:rgb(253,5,21);fill-rule:nonzero;"/>
                </g>
                <g>
                    <path d="M750.4,129L742.1,140.7L750.4,152.3L758.7,140.7L750.4,129Z" style="fill:rgb(253,5,21);fill-rule:nonzero;"/>
                    <path d="M750.4,169.6L742.1,181.2L750.4,192.9L758.7,181.2L750.4,169.6Z" style="fill:rgb(253,5,21);fill-rule:nonzero;"/>
                    <path d="M750.4,210.1L742.1,221.8L750.4,233.5L758.7,221.8L750.4,210.1Z" style="fill:rgb(253,5,21);fill-rule:nonzero;"/>
                </g>
            </g>
            <path d="M690.9,139.6L687.8,143.9L690.9,148.3L694,143.9L690.9,139.6Z" style="fill:rgb(253,5,21);fill-rule:nonzero;"/>
            <path d="M766.9,222.9L763.8,218.6L766.9,214.2L770,218.6L766.9,222.9Z" style="fill:rgb(253,5,21);fill-rule:nonzero;"/>
            <g>
                <g>
                    <path d="M688.2,125.2L694.6,125.2L694.6,125.5L690.6,137.4L689.6,137.4L693.2,126.6L689.9,126.6C689.2,126.6 688.8,126.7 688.5,126.8C688,127.1 687.6,127.5 687.3,128.1L687,128L688.2,125.2Z" style="fill:rgb(253,5,21);fill-rule:nonzero;"/>
                </g>
            </g>
            <g>
                <g>
                    <path d="M769.6,237.3L763.2,237.3L763.2,237L767.2,225.1L768.2,225.1L764.6,235.9L767.9,235.9C768.6,235.9 769,235.8 769.3,235.7C769.8,235.4 770.2,235 770.5,234.4L770.8,234.5L769.6,237.3Z" style="fill:rgb(253,5,21);fill-rule:nonzero;"/>
                </g>
            </g>
            <path d="M728.9,187.9L720.6,199.6L728.9,211.3L737.2,199.6L728.9,187.9Z" style="fill:rgb(253,5,21);fill-rule:nonzero;"/>
        </g>
    </g>
</svg>
