<?xml version="1.0" encoding="UTF-8" standalone="no"?>
<!DOCTYPE svg PUBLIC "-//W3C//DTD SVG 1.1//EN" "http://www.w3.org/Graphics/SVG/1.1/DTD/svg11.dtd">
<svg width="100%" height="100%" viewBox="0 0 98 128" version="1.1" xmlns="http://www.w3.org/2000/svg" xmlns:xlink="http://www.w3.org/1999/xlink" xml:space="preserve" xmlns:serif="http://www.serif.com/" style="fill-rule:evenodd;clip-rule:evenodd;stroke-linejoin:round;stroke-miterlimit:2;">
    <g transform="matrix(1,0,0,1,-922,-117)">
        <g>
            <path d="M1005.9,244.6L936.3,244.6C928.8,244.6 922.8,238.5 922.8,231.1L922.8,131.3C922.8,123.8 928.9,117.8 936.3,117.8L1005.9,117.8C1013.4,117.8 1019.4,123.9 1019.4,131.3L1019.4,231.1C1019.4,238.6 1013.3,244.6 1005.9,244.6Z" style="fill:rgb(251,251,252);fill-rule:nonzero;"/>
            <g>
                <g>
                    <g>
                        <path d="M947.5,128.6L939.2,140.3L947.5,152L955.8,140.3L947.5,128.6Z" style="fill:rgb(253,5,21);fill-rule:nonzero;"/>
                    </g>
                    <g>
                        <path d="M947.5,155.9L939.2,167.6L947.5,179.3L955.8,167.6L947.5,155.9Z" style="fill:rgb(253,5,21);fill-rule:nonzero;"/>
                    </g>
                    <g>
                        <path d="M947.5,183.2L939.2,194.9L947.5,206.6L955.8,194.9L947.5,183.2Z" style="fill:rgb(253,5,21);fill-rule:nonzero;"/>
                    </g>
                    <g>
                        <path d="M947.5,210.5L939.2,222.2L947.5,233.8L955.8,222.2L947.5,210.5Z" style="fill:rgb(253,5,21);fill-rule:nonzero;"/>
                    </g>
                </g>
                <g>
                    <g>
                        <path d="M994.7,128.6L986.4,140.3L994.7,152L1003,140.3L994.7,128.6Z" style="fill:rgb(253,5,21);fill-rule:nonzero;"/>
                    </g>
                    <g>
                        <path d="M994.7,155.9L986.4,167.6L994.7,179.3L1003,167.6L994.7,155.9Z" style="fill:rgb(253,5,21);fill-rule:nonzero;"/>
                    </g>
                    <g>
                        <path d="M994.7,183.2L986.4,194.9L994.7,206.6L1003,194.9L994.7,183.2Z" style="fill:rgb(253,5,21);fill-rule:nonzero;"/>
                    </g>
                    <g>
                        <path d="M994.7,210.5L986.4,222.2L994.7,233.8L1003,222.2L994.7,210.5Z" style="fill:rgb(253,5,21);fill-rule:nonzero;"/>
                    </g>
                </g>
            </g>
            <path d="M933.1,139.6L930,143.9L933.1,148.3L936.2,143.9L933.1,139.6Z" style="fill:rgb(253,5,21);fill-rule:nonzero;"/>
            <path d="M1009.1,222.9L1006,218.6L1009.1,214.2L1012.2,218.6L1009.1,222.9Z" style="fill:rgb(253,5,21);fill-rule:nonzero;"/>
            <g>
                <g>
                    <path d="M929.5,137.5L929.5,137.2C930.3,137.2 931,137 931.6,136.7C932.3,136.4 932.9,135.8 933.5,134.9C934.1,134 934.5,133.1 934.8,132.1C933.9,132.7 933,133 932.3,133C931.5,133 930.7,132.7 930.1,132C929.5,131.4 929.2,130.5 929.2,129.4C929.2,128.4 929.5,127.4 930.1,126.6C930.8,125.6 931.8,125.1 932.9,125.1C933.9,125.1 934.7,125.5 935.4,126.3C936.3,127.3 936.7,128.5 936.7,130C936.7,131.3 936.4,132.6 935.7,133.7C935,134.9 934.1,135.8 933,136.6C932.1,137.2 931,137.5 929.9,137.5L929.5,137.5ZM935,131.3C935.1,130.5 935.2,129.9 935.2,129.5C935.2,128.9 935.1,128.3 934.9,127.7C934.7,127 934.4,126.5 934.1,126.2C933.7,125.8 933.3,125.7 932.9,125.7C932.4,125.7 931.9,125.9 931.5,126.4C931.1,126.9 930.9,127.6 930.9,128.5C930.9,129.7 931.2,130.7 931.7,131.4C932.1,131.9 932.6,132.2 933.1,132.2C933.4,132.2 933.7,132.1 934.1,132C934.4,131.7 934.7,131.5 935,131.3Z" style="fill:rgb(253,5,21);fill-rule:nonzero;"/>
                </g>
            </g>
            <g>
                <g>
                    <path d="M1012.6,225L1012.6,225.3C1011.8,225.3 1011.1,225.5 1010.5,225.8C1009.8,226.1 1009.2,226.7 1008.6,227.6C1008,228.5 1007.6,229.4 1007.3,230.4C1008.2,229.8 1009.1,229.5 1009.8,229.5C1010.6,229.5 1011.4,229.8 1012,230.5C1012.6,231.1 1012.9,232 1012.9,233.1C1012.9,234.1 1012.6,235.1 1012,235.9C1011.3,236.9 1010.3,237.4 1009.2,237.4C1008.2,237.4 1007.4,237 1006.7,236.2C1005.8,235.2 1005.4,234 1005.4,232.5C1005.4,231.2 1005.7,229.9 1006.4,228.8C1007.1,227.6 1008,226.7 1009.1,225.9C1010,225.3 1011.1,225 1012.2,225L1012.6,225ZM1007.2,231.2C1007.1,232 1007,232.6 1007,233C1007,233.6 1007.1,234.2 1007.3,234.8C1007.5,235.5 1007.8,236 1008.1,236.3C1008.5,236.7 1008.9,236.8 1009.3,236.8C1009.8,236.8 1010.3,236.6 1010.7,236.1C1011.1,235.6 1011.3,234.9 1011.3,234C1011.3,232.8 1011,231.8 1010.5,231.1C1010.1,230.6 1009.6,230.3 1009.1,230.3C1008.8,230.3 1008.5,230.4 1008.1,230.5C1007.8,230.8 1007.4,231 1007.2,231.2Z" style="fill:rgb(253,5,21);fill-rule:nonzero;"/>
                </g>
            </g>
            <path d="M971.1,169.6L962.8,181.2L971.1,192.9L979.4,181.2L971.1,169.6Z" style="fill:rgb(253,5,21);fill-rule:nonzero;"/>
        </g>
    </g>
</svg>
