<?xml version="1.0" encoding="UTF-8" standalone="no"?>
<!DOCTYPE svg PUBLIC "-//W3C//DTD SVG 1.1//EN" "http://www.w3.org/Graphics/SVG/1.1/DTD/svg11.dtd">
<svg width="100%" height="100%" viewBox="0 0 98 128" version="1.1" xmlns="http://www.w3.org/2000/svg" xmlns:xlink="http://www.w3.org/1999/xlink" xml:space="preserve" xmlns:serif="http://www.serif.com/" style="fill-rule:evenodd;clip-rule:evenodd;stroke-linejoin:round;stroke-miterlimit:2;">
    <g transform="matrix(1,0,0,1,-1043,-117)">
        <g>
            <path d="M1127,244.6L1057.4,244.6C1049.9,244.6 1043.9,238.5 1043.9,231.1L1043.9,131.3C1043.9,123.8 1050,117.8 1057.4,117.8L1127,117.8C1134.5,117.8 1140.5,123.9 1140.5,131.3L1140.5,231.1C1140.5,238.6 1134.4,244.6 1127,244.6Z" style="fill:rgb(251,251,252);fill-rule:nonzero;"/>
            <g>
                <g>
                    <g>
                        <path d="M1068.6,128.6L1060.3,140.3L1068.6,152L1076.9,140.3L1068.6,128.6Z" style="fill:rgb(253,5,21);fill-rule:nonzero;"/>
                    </g>
                    <g>
                        <path d="M1068.6,155.9L1060.3,167.6L1068.6,179.3L1076.9,167.6L1068.6,155.9Z" style="fill:rgb(253,5,21);fill-rule:nonzero;"/>
                    </g>
                    <g>
                        <path d="M1068.6,183.2L1060.3,194.9L1068.6,206.6L1076.9,194.9L1068.6,183.2Z" style="fill:rgb(253,5,21);fill-rule:nonzero;"/>
                    </g>
                    <g>
                        <path d="M1068.6,210.5L1060.3,222.2L1068.6,233.8L1076.9,222.2L1068.6,210.5Z" style="fill:rgb(253,5,21);fill-rule:nonzero;"/>
                    </g>
                </g>
                <g>
                    <g>
                        <path d="M1115.8,128.6L1107.5,140.3L1115.8,152L1124.1,140.3L1115.8,128.6Z" style="fill:rgb(253,5,21);fill-rule:nonzero;"/>
                    </g>
                    <g>
                        <path d="M1115.8,155.9L1107.5,167.6L1115.8,179.3L1124.1,167.6L1115.8,155.9Z" style="fill:rgb(253,5,21);fill-rule:nonzero;"/>
                    </g>
                    <g>
                        <path d="M1115.8,183.2L1107.5,194.9L1115.8,206.6L1124.1,194.9L1115.8,183.2Z" style="fill:rgb(253,5,21);fill-rule:nonzero;"/>
                    </g>
                    <g>
                        <path d="M1115.8,210.5L1107.5,222.2L1115.8,233.8L1124.1,222.2L1115.8,210.5Z" style="fill:rgb(253,5,21);fill-rule:nonzero;"/>
                    </g>
                </g>
            </g>
            <path d="M1054.2,139.6L1051.1,143.9L1054.2,148.3L1057.3,143.9L1054.2,139.6Z" style="fill:rgb(253,5,21);fill-rule:nonzero;"/>
            <path d="M1130.2,222.9L1127.1,218.6L1130.2,214.2L1133.2,218.6L1130.2,222.9Z" style="fill:rgb(253,5,21);fill-rule:nonzero;"/>
            <g>
                <g>
                    <path d="M1050.4,126.8L1052.6,125.7L1052.8,125.7L1052.8,133.2C1052.8,133.7 1052.8,134 1052.9,134.1C1052.9,134.2 1053,134.3 1053.2,134.4C1053.3,134.5 1053.6,134.5 1054,134.5L1054,134.7L1050.7,134.7L1050.7,134.5C1051.1,134.5 1051.4,134.5 1051.5,134.4C1051.6,134.3 1051.7,134.3 1051.8,134.1C1051.8,134 1051.9,133.7 1051.9,133.1L1051.9,128.3C1051.9,127.7 1051.9,127.2 1051.8,127.1C1051.8,127 1051.7,126.9 1051.6,126.8C1051.5,126.7 1051.4,126.7 1051.3,126.7C1051.1,126.7 1050.9,126.8 1050.6,126.9L1050.4,126.8Z" style="fill:rgb(253,5,21);fill-rule:nonzero;"/>
                    <path d="M1056,130.4C1056,129.4 1056.2,128.5 1056.5,127.8C1056.8,127.1 1057.2,126.5 1057.7,126.2C1058.1,125.9 1058.5,125.8 1058.9,125.8C1059.6,125.8 1060.2,126.1 1060.7,126.8C1061.4,127.7 1061.7,128.8 1061.7,130.3C1061.7,131.3 1061.6,132.2 1061.3,132.9C1061,133.6 1060.6,134.1 1060.2,134.5C1059.7,134.8 1059.3,135 1058.9,135C1058.1,135 1057.4,134.5 1056.8,133.5C1056.3,132.6 1056,131.6 1056,130.4ZM1057.3,130.6C1057.3,131.8 1057.4,132.8 1057.7,133.6C1057.9,134.2 1058.3,134.6 1058.8,134.6C1059,134.6 1059.3,134.5 1059.5,134.3C1059.8,134.1 1059.9,133.7 1060.1,133.2C1060.3,132.5 1060.4,131.4 1060.4,130C1060.4,129 1060.3,128.2 1060.1,127.5C1059.9,127 1059.7,126.6 1059.5,126.4C1059.3,126.3 1059.1,126.2 1058.9,126.2C1058.6,126.2 1058.3,126.3 1058.1,126.6C1057.8,127 1057.6,127.5 1057.5,128.3C1057.4,129 1057.3,129.8 1057.3,130.6Z" style="fill:rgb(253,5,21);fill-rule:nonzero;"/>
                </g>
            </g>
            <g>
                <g>
                    <path d="M1134.3,236.1L1132.1,237.2L1131.9,237.2L1131.9,229.7C1131.9,229.2 1131.9,228.9 1131.8,228.8C1131.8,228.7 1131.7,228.6 1131.5,228.5C1131.4,228.4 1131.1,228.4 1130.7,228.4L1130.7,228.2L1134,228.2L1134,228.4C1133.6,228.4 1133.3,228.4 1133.2,228.5C1133.1,228.6 1133,228.6 1132.9,228.8C1132.9,228.9 1132.8,229.2 1132.8,229.8L1132.8,234.6C1132.8,235.2 1132.8,235.7 1132.9,235.8C1132.9,235.9 1133,236 1133.1,236.1C1133.2,236.2 1133.3,236.2 1133.4,236.2C1133.6,236.2 1133.8,236.1 1134.1,236L1134.3,236.1Z" style="fill:rgb(253,5,21);fill-rule:nonzero;"/>
                    <path d="M1128.7,232.5C1128.7,233.5 1128.5,234.4 1128.2,235.1C1127.9,235.8 1127.5,236.4 1127,236.7C1126.6,237 1126.2,237.1 1125.8,237.1C1125.1,237.1 1124.5,236.8 1124,236.1C1123.3,235.2 1123,234.1 1123,232.6C1123,231.6 1123.1,230.7 1123.4,230C1123.7,229.3 1124.1,228.8 1124.5,228.4C1125,228.1 1125.4,227.9 1125.8,227.9C1126.6,227.9 1127.3,228.4 1127.9,229.4C1128.4,230.3 1128.7,231.3 1128.7,232.5ZM1127.4,232.3C1127.4,231.1 1127.3,230.1 1127,229.3C1126.8,228.7 1126.4,228.3 1125.9,228.3C1125.7,228.3 1125.4,228.4 1125.2,228.6C1125,228.8 1124.8,229.2 1124.6,229.7C1124.4,230.4 1124.3,231.5 1124.3,232.9C1124.3,233.9 1124.4,234.7 1124.6,235.4C1124.8,235.9 1125,236.3 1125.2,236.5C1125.4,236.6 1125.6,236.7 1125.8,236.7C1126.1,236.7 1126.4,236.6 1126.6,236.3C1126.9,235.9 1127.1,235.4 1127.2,234.6C1127.3,233.8 1127.4,233.1 1127.4,232.3Z" style="fill:rgb(253,5,21);fill-rule:nonzero;"/>
                </g>
            </g>
            <path d="M1092.2,187.9L1083.9,199.6L1092.2,211.3L1100.5,199.6L1092.2,187.9Z" style="fill:rgb(253,5,21);fill-rule:nonzero;"/>
            <path d="M1092.2,150.1L1083.9,161.8L1092.2,173.5L1100.5,161.8L1092.2,150.1Z" style="fill:rgb(253,5,21);fill-rule:nonzero;"/>
        </g>
    </g>
</svg>
