<?xml version="1.0" encoding="UTF-8" standalone="no"?>
<!DOCTYPE svg PUBLIC "-//W3C//DTD SVG 1.1//EN" "http://www.w3.org/Graphics/SVG/1.1/DTD/svg11.dtd">
<svg width="100%" height="100%" viewBox="0 0 97 128" version="1.1" xmlns="http://www.w3.org/2000/svg" xmlns:xlink="http://www.w3.org/1999/xlink" xml:space="preserve" xmlns:serif="http://www.serif.com/" style="fill-rule:evenodd;clip-rule:evenodd;stroke-linejoin:round;stroke-miterlimit:2;">
    <g transform="matrix(1,0,0,1,-75,-117)">
        <g>
            <path d="M158.3,244.6L88.7,244.6C81.2,244.6 75.2,238.5 75.2,231.1L75.2,131.3C75.2,123.8 81.3,117.8 88.7,117.8L158.3,117.8C165.8,117.8 171.8,123.9 171.8,131.3L171.8,231.1C171.8,238.6 165.7,244.6 158.3,244.6Z" style="fill:rgb(251,251,252);fill-rule:nonzero;"/>
            <g>
                <path d="M122.9,129L114.6,140.7L122.9,152.3L131.1,140.7L122.9,129Z" style="fill:rgb(253,5,21);fill-rule:nonzero;"/>
                <path d="M122.9,210.1L114.6,221.8L122.9,233.5L131.1,221.8L122.9,210.1Z" style="fill:rgb(253,5,21);fill-rule:nonzero;"/>
            </g>
            <path d="M85.5,139.6L82.4,143.9L85.5,148.3L88.6,143.9L85.5,139.6Z" style="fill:rgb(253,5,21);fill-rule:nonzero;"/>
            <path d="M161.5,222.9L158.4,218.6L161.5,214.2L164.5,218.6L161.5,222.9Z" style="fill:rgb(253,5,21);fill-rule:nonzero;"/>
            <g>
                <path d="M89.1,134.8L88.3,136.9L81.9,136.9L81.9,136.6C83.8,134.9 85.1,133.5 85.9,132.4C86.7,131.3 87.1,130.3 87.1,129.4C87.1,128.7 86.9,128.1 86.5,127.7C86.1,127.3 85.6,127 85,127C84.5,127 84,127.2 83.6,127.5C83.2,127.8 82.9,128.3 82.7,128.9L82.4,128.9C82.5,127.9 82.9,127.2 83.4,126.6C84,126.1 84.6,125.8 85.5,125.8C86.4,125.8 87.1,126.1 87.7,126.6C88.3,127.2 88.6,127.8 88.6,128.6C88.6,129.2 88.5,129.7 88.2,130.3C87.8,131.2 87.2,132.1 86.3,133C85,134.5 84.1,135.3 83.8,135.6L86.6,135.6C87.2,135.6 87.6,135.6 87.8,135.5C88,135.5 88.2,135.4 88.4,135.2C88.6,135.1 88.7,134.9 88.9,134.6L89.1,134.6L89.1,134.8Z" style="fill:rgb(253,5,21);fill-rule:nonzero;"/>
            </g>
            <g>
                <path d="M157.9,227.4L158.7,225.3L165.1,225.3L165.1,225.6C163.2,227.3 161.9,228.7 161.1,229.8C160.3,230.9 159.9,231.9 159.9,232.8C159.9,233.5 160.1,234.1 160.5,234.5C160.9,234.9 161.4,235.2 162,235.2C162.5,235.2 163,235 163.4,234.7C163.8,234.4 164.1,233.9 164.3,233.3L164.6,233.3C164.5,234.3 164.1,235 163.6,235.6C163,236.1 162.4,236.4 161.5,236.4C160.6,236.4 159.9,236.1 159.3,235.6C158.7,235 158.4,234.4 158.4,233.6C158.4,233 158.5,232.5 158.8,231.9C159.2,231 159.8,230.1 160.7,229.2C162,227.7 162.9,226.9 163.2,226.6L160.4,226.6C159.8,226.6 159.4,226.6 159.2,226.7C159,226.7 158.8,226.8 158.6,227C158.4,227.1 158.3,227.3 158.1,227.6L157.9,227.6L157.9,227.4Z" style="fill:rgb(253,5,21);fill-rule:nonzero;"/>
            </g>
        </g>
    </g>
</svg>
