<?xml version="1.0" encoding="UTF-8" standalone="no"?>
<!DOCTYPE svg PUBLIC "-//W3C//DTD SVG 1.1//EN" "http://www.w3.org/Graphics/SVG/1.1/DTD/svg11.dtd">
<svg width="100%" height="100%" viewBox="0 0 98 128" version="1.1" xmlns="http://www.w3.org/2000/svg" xmlns:xlink="http://www.w3.org/1999/xlink" xml:space="preserve" xmlns:serif="http://www.serif.com/" style="fill-rule:evenodd;clip-rule:evenodd;stroke-linejoin:round;stroke-miterlimit:2;">
    <g transform="matrix(1,0,0,1,-559,-117)">
        <g>
            <path d="M642.6,244.6L573,244.6C565.5,244.6 559.5,238.5 559.5,231.1L559.5,131.3C559.5,123.8 565.6,117.8 573,117.8L642.6,117.8C650.1,117.8 656.1,123.9 656.1,131.3L656.1,231.1C656.1,238.6 650.1,244.6 642.6,244.6Z" style="fill:rgb(251,251,252);fill-rule:nonzero;"/>
            <g>
                <g>
                    <path d="M586.3,129L578,140.7L586.3,152.3L594.6,140.7L586.3,129Z" style="fill:rgb(253,5,21);fill-rule:nonzero;"/>
                    <path d="M586.3,169.6L578,181.2L586.3,192.9L594.6,181.2L586.3,169.6Z" style="fill:rgb(253,5,21);fill-rule:nonzero;"/>
                    <path d="M586.3,210.1L578,221.8L586.3,233.5L594.6,221.8L586.3,210.1Z" style="fill:rgb(253,5,21);fill-rule:nonzero;"/>
                </g>
                <g>
                    <path d="M629.3,129L621,140.7L629.3,152.3L637.6,140.7L629.3,129Z" style="fill:rgb(253,5,21);fill-rule:nonzero;"/>
                    <path d="M629.3,169.6L621,181.2L629.3,192.9L637.6,181.2L629.3,169.6Z" style="fill:rgb(253,5,21);fill-rule:nonzero;"/>
                    <path d="M629.3,210.1L621,221.8L629.3,233.5L637.6,221.8L629.3,210.1Z" style="fill:rgb(253,5,21);fill-rule:nonzero;"/>
                </g>
            </g>
            <path d="M569.8,139.6L566.8,143.9L569.8,148.3L572.9,143.9L569.8,139.6Z" style="fill:rgb(253,5,21);fill-rule:nonzero;"/>
            <path d="M645.8,222.9L642.7,218.6L645.8,214.2L648.9,218.6L645.8,222.9Z" style="fill:rgb(253,5,21);fill-rule:nonzero;"/>
            <g>
                <g>
                    <path d="M573.4,124.9L573.4,125.3C572.6,125.4 572,125.5 571.5,125.8C571,126 570.5,126.4 570,126.9C569.5,127.4 569.1,127.9 568.8,128.5C568.5,129.1 568.2,129.8 568,130.6C568.8,130 569.7,129.7 570.6,129.7C571.4,129.7 572.1,130 572.7,130.7C573.3,131.4 573.6,132.2 573.6,133.2C573.6,134.2 573.3,135.1 572.7,135.9C572,136.9 571,137.4 569.8,137.4C569,137.4 568.3,137.1 567.7,136.6C566.6,135.5 566,134.2 566,132.5C566,131.4 566.2,130.4 566.6,129.4C567,128.4 567.6,127.6 568.4,126.8C569.2,126.1 570,125.5 570.7,125.3C571.4,125 572.1,124.9 572.7,124.9L573.4,124.9ZM567.9,131.2C567.8,132 567.7,132.6 567.7,133.1C567.7,133.7 567.8,134.3 568,134.9C568.2,135.6 568.5,136.1 568.9,136.5C569.2,136.8 569.6,136.9 570,136.9C570.5,136.9 571,136.7 571.4,136.2C571.8,135.7 572,135 572,134.1C572,133.1 571.8,132.2 571.4,131.5C571,130.8 570.4,130.4 569.7,130.4C569.5,130.4 569.2,130.4 569,130.5C568.8,130.7 568.4,130.9 567.9,131.2Z" style="fill:rgb(253,5,21);fill-rule:nonzero;"/>
                </g>
            </g>
            <g>
                <g>
                    <path d="M642.2,237.6L642.2,237.2C643,237.1 643.6,237 644.1,236.7C644.6,236.5 645.1,236.1 645.6,235.6C646.1,235.1 646.5,234.6 646.8,234C647.1,233.4 647.4,232.7 647.6,231.9C646.8,232.5 645.9,232.8 645,232.8C644.2,232.8 643.5,232.5 642.9,231.8C642.3,231.1 642,230.3 642,229.3C642,228.3 642.3,227.4 642.9,226.6C643.6,225.6 644.6,225.1 645.8,225.1C646.6,225.1 647.3,225.4 647.9,225.9C649,227 649.6,228.3 649.6,230C649.6,231.1 649.4,232.1 649,233.1C648.6,234.1 648,234.9 647.2,235.7C646.4,236.4 645.6,237 644.9,237.2C644.2,237.5 643.5,237.6 642.9,237.6L642.2,237.6ZM647.7,231.3C647.8,230.5 647.9,229.9 647.9,229.4C647.9,228.8 647.8,228.2 647.6,227.6C647.4,227 647.1,226.4 646.7,226C646.4,225.7 646,225.6 645.6,225.6C645.1,225.6 644.6,225.8 644.2,226.3C643.8,226.8 643.6,227.5 643.6,228.4C643.6,229.4 643.8,230.3 644.2,231C644.6,231.7 645.2,232.1 645.9,232.1C646.1,232.1 646.4,232.1 646.6,232C646.8,231.8 647.2,231.6 647.7,231.3Z" style="fill:rgb(253,5,21);fill-rule:nonzero;"/>
                </g>
            </g>
        </g>
    </g>
</svg>
