<?xml version="1.0" encoding="UTF-8" standalone="no"?>
<!DOCTYPE svg PUBLIC "-//W3C//DTD SVG 1.1//EN" "http://www.w3.org/Graphics/SVG/1.1/DTD/svg11.dtd">
<svg width="100%" height="100%" viewBox="0 0 97 127" version="1.1" xmlns="http://www.w3.org/2000/svg" xmlns:xlink="http://www.w3.org/1999/xlink" xml:space="preserve" xmlns:serif="http://www.serif.com/" style="fill-rule:evenodd;clip-rule:evenodd;stroke-linejoin:round;stroke-miterlimit:2;">
    <g transform="matrix(1,0,0,1,-317,-484)">
        <g>
            <path d="M400.4,610.8L330.8,610.8C323.3,610.8 317.3,604.7 317.3,597.3L317.3,497.5C317.3,490 323.4,484 330.8,484L400.4,484C407.9,484 413.9,490.1 413.9,497.5L413.9,597.3C414,604.7 407.9,610.8 400.4,610.8Z" style="fill:rgb(251,251,252);fill-rule:nonzero;"/>
            <g>
                <path d="M331.6,498.9L331.6,500.2L330,500.2L330,503.4L328.5,503.4L328.5,500.2L323.4,500.2L323.4,499.1L329,491.2L330,491.2L330,499L331.6,499L331.6,498.9ZM328.5,498.9L328.5,493L324.3,498.9L328.5,498.9Z" style="fill:rgb(253,5,21);fill-rule:nonzero;"/>
            </g>
            <g>
                <path d="M399.7,595.8L399.7,594.5L401.3,594.5L401.3,591.3L402.8,591.3L402.8,594.5L407.9,594.5L407.9,595.6L402.3,603.5L401.3,603.5L401.3,595.7L399.7,595.7L399.7,595.8ZM402.8,595.8L402.8,601.7L407,595.8L402.8,595.8Z" style="fill:rgb(253,5,21);fill-rule:nonzero;"/>
            </g>
            <path d="M332.1,507.2C331.7,506.1 330.6,505.7 329.6,505.7C328.2,505.7 327.7,507.5 327.7,507.5C327.7,507.5 327.2,505.7 325.8,505.7C324.7,505.7 323.7,506.2 323.3,507.2C322.9,508.3 322.6,509.8 323.8,511C325,512.2 326.5,513 327.1,513.5C327.7,514.1 327.8,514.4 327.8,514.4C327.8,514.4 327.9,514.1 328.5,513.5C329.1,513 330.6,512.2 331.8,511C332.8,509.9 332.5,508.3 332.1,507.2Z" style="fill:rgb(253,5,21);fill-rule:nonzero;"/>
            <path d="M408.1,587.5C407.7,588.6 406.6,589 405.6,589C404.2,589 403.7,587.2 403.7,587.2C403.7,587.2 403.2,589 401.8,589C400.7,589 399.7,588.5 399.3,587.5C398.9,586.4 398.6,584.9 399.8,583.7C401,582.5 402.5,581.7 403.1,581.2C403.7,580.6 403.8,580.3 403.8,580.3C403.8,580.3 403.9,580.6 404.5,581.2C405.1,581.7 406.6,582.5 407.8,583.7C408.8,584.9 408.5,586.5 408.1,587.5Z" style="fill:rgb(253,5,21);fill-rule:nonzero;"/>
            <g>
                <g>
                    <path d="M355.3,498.7C354.5,496.5 352.3,495.6 350,495.6C347.1,495.6 346,499.3 346,499.3C346,499.3 344.9,495.6 342,495.6C339.7,495.6 337.6,496.6 336.7,498.7C335.9,500.9 335.3,504.2 337.7,506.5C340.1,508.9 343.3,510.6 344.4,511.6C345.7,512.8 345.9,513.5 345.9,513.5C345.9,513.5 346.1,512.8 347.4,511.6C348.5,510.6 351.7,508.8 354.1,506.5C356.7,504.1 356.1,500.9 355.3,498.7Z" style="fill:rgb(253,5,21);fill-rule:nonzero;"/>
                    <path d="M336.8,596.1C337.6,598.3 339.8,599.2 342.1,599.2C345,599.2 346.1,595.5 346.1,595.5C346.1,595.5 347.2,599.2 350.1,599.2C352.4,599.2 354.5,598.2 355.4,596.1C356.2,593.9 356.8,590.6 354.4,588.3C352,585.9 348.8,584.2 347.7,583.2C346.4,582 346.2,581.3 346.2,581.3C346.2,581.3 346,582 344.7,583.2C343.6,584.2 340.4,586 338,588.3C335.4,590.6 336,593.9 336.8,596.1Z" style="fill:rgb(253,5,21);fill-rule:nonzero;"/>
                </g>
                <g>
                    <path d="M394.5,498.7C393.7,496.5 391.5,495.6 389.2,495.6C386.3,495.6 385.2,499.3 385.2,499.3C385.2,499.3 384.1,495.6 381.2,495.6C378.9,495.6 376.8,496.6 375.9,498.7C375.1,500.9 374.5,504.2 376.9,506.5C379.3,508.9 382.5,510.6 383.6,511.6C384.9,512.8 385.1,513.5 385.1,513.5C385.1,513.5 385.3,512.8 386.6,511.6C387.7,510.6 390.9,508.8 393.3,506.5C395.9,504.1 395.3,500.9 394.5,498.7Z" style="fill:rgb(253,5,21);fill-rule:nonzero;"/>
                    <path d="M376,596.1C376.8,598.3 379,599.2 381.3,599.2C384.2,599.2 385.3,595.5 385.3,595.5C385.3,595.5 386.4,599.2 389.3,599.2C391.6,599.2 393.7,598.2 394.6,596.1C395.4,593.9 396,590.6 393.6,588.3C391.2,585.9 388,584.2 386.9,583.2C385.6,582 385.4,581.3 385.4,581.3C385.4,581.3 385.2,582 383.9,583.2C382.8,584.2 379.6,586 377.2,588.3C374.6,590.6 375.2,593.9 376,596.1Z" style="fill:rgb(253,5,21);fill-rule:nonzero;"/>
                </g>
            </g>
        </g>
    </g>
</svg>
