<?xml version="1.0" encoding="UTF-8" standalone="no"?>
<!DOCTYPE svg PUBLIC "-//W3C//DTD SVG 1.1//EN" "http://www.w3.org/Graphics/SVG/1.1/DTD/svg11.dtd">
<svg width="100%" height="100%" viewBox="0 0 97 127" version="1.1" xmlns="http://www.w3.org/2000/svg" xmlns:xlink="http://www.w3.org/1999/xlink" xml:space="preserve" xmlns:serif="http://www.serif.com/" style="fill-rule:evenodd;clip-rule:evenodd;stroke-linejoin:round;stroke-miterlimit:2;">
    <g transform="matrix(1,0,0,1,-75,-484)">
        <g>
            <path d="M158.3,610.8L88.7,610.8C81.2,610.8 75.2,604.7 75.2,597.3L75.2,497.5C75.2,490 81.3,484 88.7,484L158.3,484C165.8,484 171.8,490.1 171.8,497.5L171.8,597.3C171.8,604.7 165.7,610.8 158.3,610.8Z" style="fill:rgb(251,251,252);fill-rule:nonzero;"/>
            <g>
                <path d="M89.1,500.9L88.3,503L81.9,503L81.9,502.7C83.8,501 85.1,499.6 85.9,498.5C86.7,497.4 87.1,496.4 87.1,495.5C87.1,494.8 86.9,494.2 86.5,493.8C86.1,493.4 85.6,493.1 85,493.1C84.5,493.1 84,493.3 83.6,493.6C83.2,493.9 82.9,494.4 82.7,495L82.4,495C82.5,494 82.9,493.3 83.4,492.7C84,492.2 84.6,491.9 85.5,491.9C86.4,491.9 87.1,492.2 87.7,492.7C88.3,493.3 88.6,493.9 88.6,494.7C88.6,495.3 88.5,495.8 88.2,496.4C87.8,497.3 87.2,498.2 86.3,499.1C85,500.6 84.1,501.4 83.8,501.7L86.6,501.7C87.2,501.7 87.6,501.7 87.8,501.6C88,501.6 88.2,501.5 88.4,501.3C88.6,501.2 88.7,501 88.9,500.7L89.1,500.7L89.1,500.9Z" style="fill:rgb(253,5,21);fill-rule:nonzero;"/>
            </g>
            <g>
                <path d="M157.9,593.5L158.7,591.4L165.1,591.4L165.1,591.7C163.2,593.4 161.9,594.8 161.1,595.9C160.3,597 159.9,598 159.9,598.9C159.9,599.6 160.1,600.2 160.5,600.6C160.9,601 161.4,601.3 162,601.3C162.5,601.3 163,601.1 163.4,600.8C163.8,600.5 164.1,600 164.3,599.4L164.6,599.4C164.5,600.4 164.1,601.1 163.6,601.7C163,602.2 162.4,602.5 161.5,602.5C160.6,602.5 159.9,602.2 159.3,601.7C158.7,601.1 158.4,600.5 158.4,599.7C158.4,599.1 158.5,598.6 158.8,598C159.2,597.1 159.8,596.2 160.7,595.3C162,593.8 162.9,593 163.2,592.7L160.4,592.7C159.8,592.7 159.4,592.7 159.2,592.8C159,592.8 158.8,592.9 158.6,593.1C158.4,593.2 158.3,593.4 158.1,593.7L157.9,593.7L157.9,593.5Z" style="fill:rgb(253,5,21);fill-rule:nonzero;"/>
            </g>
            <path d="M89.4,507.2C89,506.1 87.9,505.7 86.9,505.7C85.5,505.7 85,507.5 85,507.5C85,507.5 84.5,505.7 83.1,505.7C82,505.7 81,506.2 80.6,507.2C80.2,508.3 79.9,509.8 81.1,511C82.3,512.2 83.8,513 84.4,513.5C85,514.1 85.1,514.4 85.1,514.4C85.1,514.4 85.2,514.1 85.8,513.5C86.4,513 87.9,512.2 89.1,511C90,509.9 89.8,508.3 89.4,507.2Z" style="fill:rgb(253,5,21);fill-rule:nonzero;"/>
            <path d="M165.3,587.5C164.9,588.6 163.8,589 162.8,589C161.4,589 160.9,587.2 160.9,587.2C160.9,587.2 160.4,589 159,589C157.9,589 156.9,588.5 156.5,587.5C156.1,586.4 155.8,584.9 157,583.7C158.2,582.5 159.7,581.7 160.3,581.2C160.9,580.6 161,580.3 161,580.3C161,580.3 161.1,580.6 161.7,581.2C162.3,581.7 163.8,582.5 165,583.7C166,584.9 165.7,586.5 165.3,587.5Z" style="fill:rgb(253,5,21);fill-rule:nonzero;"/>
            <g>
                <path d="M132.1,498.7C131.3,496.5 129.1,495.6 126.8,495.6C123.9,495.6 122.8,499.3 122.8,499.3C122.8,499.3 121.7,495.6 118.8,495.6C116.5,495.6 114.4,496.6 113.5,498.7C112.7,500.9 112.1,504.2 114.5,506.5C116.9,508.9 120.1,510.6 121.2,511.6C122.5,512.8 122.7,513.5 122.7,513.5C122.7,513.5 122.9,512.8 124.2,511.6C125.3,510.6 128.5,508.8 130.9,506.5C133.5,504.1 132.9,500.9 132.1,498.7Z" style="fill:rgb(253,5,21);fill-rule:nonzero;"/>
                <path d="M113.6,596.1C114.4,598.3 116.6,599.2 118.9,599.2C121.8,599.2 122.9,595.5 122.9,595.5C122.9,595.5 124,599.2 126.9,599.2C129.2,599.2 131.3,598.2 132.2,596.1C133,593.9 133.6,590.6 131.2,588.3C128.8,585.9 125.6,584.2 124.5,583.2C123.2,582 123,581.3 123,581.3C123,581.3 122.8,582 121.5,583.2C120.4,584.2 117.2,586 114.8,588.3C112.2,590.6 112.8,593.9 113.6,596.1Z" style="fill:rgb(253,5,21);fill-rule:nonzero;"/>
            </g>
        </g>
    </g>
</svg>
