<?xml version="1.0" encoding="UTF-8" standalone="no"?>
<!DOCTYPE svg PUBLIC "-//W3C//DTD SVG 1.1//EN" "http://www.w3.org/Graphics/SVG/1.1/DTD/svg11.dtd">
<svg width="100%" height="100%" viewBox="0 0 98 127" version="1.1" xmlns="http://www.w3.org/2000/svg" xmlns:xlink="http://www.w3.org/1999/xlink" xml:space="preserve" xmlns:serif="http://www.serif.com/" style="fill-rule:evenodd;clip-rule:evenodd;stroke-linejoin:round;stroke-miterlimit:2;">
    <g transform="matrix(1,0,0,1,-922,-484)">
        <g>
            <path d="M1005.9,610.8L936.3,610.8C928.8,610.8 922.8,604.7 922.8,597.3L922.8,497.5C922.8,490 928.9,484 936.3,484L1005.9,484C1013.4,484 1019.4,490.1 1019.4,497.5L1019.4,597.3C1019.4,604.7 1013.3,610.8 1005.9,610.8Z" style="fill:rgb(251,251,252);fill-rule:nonzero;"/>
            <g>
                <path d="M929.5,503.6L929.5,503.3C930.3,503.3 931,503.1 931.6,502.8C932.3,502.5 932.9,501.9 933.5,501C934.1,500.1 934.5,499.2 934.8,498.2C933.9,498.8 933,499.1 932.3,499.1C931.5,499.1 930.7,498.8 930.1,498.1C929.5,497.5 929.2,496.6 929.2,495.5C929.2,494.5 929.5,493.5 930.1,492.7C930.8,491.7 931.8,491.2 932.9,491.2C933.9,491.2 934.7,491.6 935.4,492.4C936.3,493.4 936.7,494.6 936.7,496.1C936.7,497.4 936.4,498.7 935.7,499.8C935,501 934.1,501.9 933,502.7C932.1,503.3 931,503.6 929.9,503.6L929.5,503.6ZM935,497.4C935.1,496.6 935.2,496 935.2,495.6C935.2,495 935.1,494.4 934.9,493.8C934.7,493.1 934.4,492.6 934.1,492.3C933.7,491.9 933.3,491.8 932.9,491.8C932.4,491.8 931.9,492 931.5,492.5C931.1,493 930.9,493.7 930.9,494.6C930.9,495.8 931.2,496.8 931.7,497.5C932.1,498 932.6,498.3 933.1,498.3C933.4,498.3 933.7,498.2 934.1,498.1C934.4,497.9 934.7,497.7 935,497.4Z" style="fill:rgb(253,5,21);fill-rule:nonzero;"/>
            </g>
            <g>
                <path d="M1012.6,591.2L1012.6,591.5C1011.8,591.5 1011.1,591.7 1010.5,592C1009.8,592.3 1009.2,592.9 1008.6,593.8C1008,594.7 1007.6,595.6 1007.3,596.6C1008.2,596 1009.1,595.7 1009.8,595.7C1010.6,595.7 1011.4,596 1012,596.7C1012.6,597.3 1012.9,598.2 1012.9,599.3C1012.9,600.3 1012.6,601.3 1012,602.1C1011.3,603.1 1010.3,603.6 1009.2,603.6C1008.2,603.6 1007.4,603.2 1006.7,602.4C1005.8,601.4 1005.4,600.2 1005.4,598.7C1005.4,597.4 1005.7,596.1 1006.4,595C1007.1,593.8 1008,592.9 1009.1,592.1C1010,591.5 1011.1,591.2 1012.2,591.2L1012.6,591.2ZM1007.2,597.3C1007.1,598.1 1007,598.7 1007,599.1C1007,599.7 1007.1,600.3 1007.3,600.9C1007.5,601.6 1007.8,602.1 1008.1,602.4C1008.5,602.8 1008.9,602.9 1009.3,602.9C1009.8,602.9 1010.3,602.7 1010.7,602.2C1011.1,601.7 1011.3,601 1011.3,600.1C1011.3,598.9 1011,597.9 1010.5,597.2C1010.1,596.7 1009.6,596.4 1009.1,596.4C1008.8,596.4 1008.5,596.5 1008.1,596.6C1007.8,596.9 1007.4,597.1 1007.2,597.3Z" style="fill:rgb(253,5,21);fill-rule:nonzero;"/>
            </g>
            <path d="M937.6,507.2C937.2,506.1 936.1,505.7 935.1,505.7C933.7,505.7 933.2,507.5 933.2,507.5C933.2,507.5 932.7,505.7 931.3,505.7C930.2,505.7 929.2,506.2 928.8,507.2C928.4,508.3 928.1,509.8 929.3,511C930.5,512.2 932,513 932.6,513.5C933.2,514.1 933.3,514.4 933.3,514.4C933.3,514.4 933.4,514.1 934,513.5C934.6,513 936.1,512.2 937.3,511C938.3,509.9 938,508.3 937.6,507.2Z" style="fill:rgb(253,5,21);fill-rule:nonzero;"/>
            <path d="M1013.5,587.5C1013.1,588.6 1012,589 1011,589C1009.6,589 1009.1,587.2 1009.1,587.2C1009.1,587.2 1008.6,589 1007.2,589C1006.1,589 1005.1,588.5 1004.7,587.5C1004.3,586.4 1004,584.9 1005.2,583.7C1006.4,582.5 1007.9,581.7 1008.5,581.2C1009.1,580.6 1009.2,580.3 1009.2,580.3C1009.2,580.3 1009.3,580.6 1009.9,581.2C1010.5,581.7 1012,582.5 1013.2,583.7C1014.2,584.9 1014,586.5 1013.5,587.5Z" style="fill:rgb(253,5,21);fill-rule:nonzero;"/>
            <g>
                <g>
                    <path d="M999.7,495.9C998.9,493.7 996.7,492.8 994.4,492.8C991.5,492.8 990.4,496.5 990.4,496.5C990.4,496.5 989.3,492.8 986.4,492.8C984.1,492.8 982,493.8 981.1,495.9C980.3,498.1 979.7,501.4 982.1,503.7C984.5,506.1 987.7,507.8 988.8,508.8C990.1,510 990.3,510.7 990.3,510.7C990.3,510.7 990.5,510 991.8,508.8C992.9,507.8 996.1,506 998.5,503.7C1001.1,501.4 1000.5,498.1 999.7,495.9Z" style="fill:rgb(253,5,21);fill-rule:nonzero;"/>
                </g>
                <g>
                    <path d="M999.7,526.3C998.9,524.1 996.7,523.2 994.4,523.2C991.5,523.2 990.4,526.9 990.4,526.9C990.4,526.9 989.3,523.2 986.4,523.2C984.1,523.2 982,524.2 981.1,526.3C980.3,528.5 979.7,531.8 982.1,534.1C984.5,536.5 987.7,538.2 988.8,539.2C990.1,540.4 990.3,541.1 990.3,541.1C990.3,541.1 990.5,540.4 991.8,539.2C992.9,538.2 996.1,536.4 998.5,534.1C1001.1,531.8 1000.5,528.5 999.7,526.3Z" style="fill:rgb(253,5,21);fill-rule:nonzero;"/>
                </g>
                <g>
                    <path d="M942.5,598.8C943.3,601 945.5,601.9 947.8,601.9C950.7,601.9 951.8,598.2 951.8,598.2C951.8,598.2 952.9,601.9 955.8,601.9C958.1,601.9 960.2,600.9 961.1,598.8C961.9,596.6 962.5,593.3 960.1,591C957.7,588.6 954.5,586.9 953.4,585.9C952.1,584.7 951.9,584 951.9,584C951.9,584 951.7,584.7 950.4,585.9C949.3,586.9 946.1,588.7 943.7,591C941.1,593.4 941.6,596.7 942.5,598.8Z" style="fill:rgb(253,5,21);fill-rule:nonzero;"/>
                </g>
                <g>
                    <path d="M942.5,568.4C943.3,570.6 945.5,571.5 947.8,571.5C950.7,571.5 951.8,567.8 951.8,567.8C951.8,567.8 952.9,571.5 955.8,571.5C958.1,571.5 960.2,570.5 961.1,568.4C961.9,566.2 962.5,562.9 960.1,560.6C957.7,558.2 954.5,556.5 953.4,555.5C952.1,554.3 951.9,553.6 951.9,553.6C951.9,553.6 951.7,554.3 950.4,555.5C949.3,556.5 946.1,558.3 943.7,560.6C941.1,563 941.6,566.2 942.5,568.4Z" style="fill:rgb(253,5,21);fill-rule:nonzero;"/>
                </g>
                <g>
                    <path d="M980.8,540.1C980,537.9 977.8,537 975.5,537C972.6,537 971.5,540.7 971.5,540.7C971.5,540.7 970.4,537 967.5,537C965.2,537 963.1,538 962.2,540.1C961.4,542.3 960.8,545.6 963.2,547.9C965.6,550.2 968.8,552 969.9,553C971.2,554.2 971.4,554.9 971.4,554.9C971.4,554.9 971.6,554.2 972.9,553C974,552 977.2,550.2 979.6,547.9C982.3,545.5 981.7,542.3 980.8,540.1Z" style="fill:rgb(253,5,21);fill-rule:nonzero;"/>
                </g>
                <g>
                    <path d="M960.9,495.9C960.1,493.7 957.9,492.8 955.6,492.8C952.7,492.8 951.6,496.5 951.6,496.5C951.6,496.5 950.5,492.8 947.6,492.8C945.3,492.8 943.2,493.8 942.3,495.9C941.5,498.1 940.9,501.4 943.3,503.7C945.7,506.1 948.9,507.8 950,508.8C951.3,510 951.5,510.7 951.5,510.7C951.5,510.7 951.7,510 953,508.8C954.1,507.8 957.3,506 959.7,503.7C962.4,501.4 961.8,498.1 960.9,495.9Z" style="fill:rgb(253,5,21);fill-rule:nonzero;"/>
                </g>
                <g>
                    <path d="M960.9,526.3C960.1,524.1 957.9,523.2 955.6,523.2C952.7,523.2 951.6,526.9 951.6,526.9C951.6,526.9 950.5,523.2 947.6,523.2C945.3,523.2 943.2,524.2 942.3,526.3C941.5,528.5 940.9,531.8 943.3,534.1C945.7,536.5 948.9,538.2 950,539.2C951.3,540.4 951.5,541.1 951.5,541.1C951.5,541.1 951.7,540.4 953,539.2C954.1,538.2 957.3,536.4 959.7,534.1C962.4,531.8 961.8,528.5 960.9,526.3Z" style="fill:rgb(253,5,21);fill-rule:nonzero;"/>
                </g>
                <g>
                    <path d="M981.2,598.8C982,601 984.2,601.9 986.5,601.9C989.4,601.9 990.5,598.2 990.5,598.2C990.5,598.2 991.6,601.9 994.5,601.9C996.8,601.9 998.9,600.9 999.8,598.8C1000.6,596.6 1001.2,593.3 998.8,591C996.4,588.6 993.2,586.9 992.1,585.9C990.8,584.7 990.6,584 990.6,584C990.6,584 990.4,584.7 989.1,585.9C988,586.9 984.8,588.7 982.4,591C979.8,593.4 980.4,596.7 981.2,598.8Z" style="fill:rgb(253,5,21);fill-rule:nonzero;"/>
                </g>
                <g>
                    <path d="M981.2,568.4C982,570.6 984.2,571.5 986.5,571.5C989.4,571.5 990.5,567.8 990.5,567.8C990.5,567.8 991.6,571.5 994.5,571.5C996.8,571.5 998.9,570.5 999.8,568.4C1000.6,566.2 1001.2,562.9 998.8,560.6C996.4,558.2 993.2,556.5 992.1,555.5C990.8,554.3 990.6,553.6 990.6,553.6C990.6,553.6 990.4,554.3 989.1,555.5C988,556.5 984.8,558.3 982.4,560.6C979.8,563 980.4,566.2 981.2,568.4Z" style="fill:rgb(253,5,21);fill-rule:nonzero;"/>
                </g>
            </g>
        </g>
    </g>
</svg>
