<?xml version="1.0" encoding="UTF-8" standalone="no"?>
<!DOCTYPE svg PUBLIC "-//W3C//DTD SVG 1.1//EN" "http://www.w3.org/Graphics/SVG/1.1/DTD/svg11.dtd">
<svg width="100%" height="100%" viewBox="0 0 98 127" version="1.1" xmlns="http://www.w3.org/2000/svg" xmlns:xlink="http://www.w3.org/1999/xlink" xml:space="preserve" xmlns:serif="http://www.serif.com/" style="fill-rule:evenodd;clip-rule:evenodd;stroke-linejoin:round;stroke-miterlimit:2;">
    <g transform="matrix(1,0,0,1,-1043,-484)">
        <g>
            <path d="M1127,610.8L1057.4,610.8C1049.9,610.8 1043.9,604.7 1043.9,597.3L1043.9,497.5C1043.9,490 1050,484 1057.4,484L1127,484C1134.5,484 1140.5,490.1 1140.5,497.5L1140.5,597.3C1140.5,604.7 1134.4,610.8 1127,610.8Z" style="fill:rgb(251,251,252);fill-rule:nonzero;"/>
            <g>
                <path d="M1049.6,493.1L1051.7,492.1L1051.9,492.1L1051.9,499.5C1051.9,500 1051.9,500.3 1052,500.4C1052,500.5 1052.1,500.6 1052.3,500.7C1052.4,500.8 1052.7,500.8 1053.1,500.8L1053.1,501L1049.8,501L1049.8,500.8C1050.2,500.8 1050.5,500.8 1050.6,500.7C1050.7,500.6 1050.8,500.6 1050.9,500.4C1050.9,500.3 1051,500 1051,499.5L1051,494.8C1051,494.2 1051,493.8 1050.9,493.6C1050.9,493.5 1050.8,493.4 1050.7,493.3C1050.6,493.2 1050.5,493.2 1050.4,493.2C1050.2,493.2 1050,493.3 1049.7,493.4L1049.6,493.1Z" style="fill:rgb(253,5,21);fill-rule:nonzero;"/>
                <path d="M1055.2,496.7C1055.2,495.7 1055.4,494.8 1055.7,494.1C1056,493.4 1056.4,492.8 1056.9,492.5C1057.3,492.2 1057.7,492.1 1058.1,492.1C1058.8,492.1 1059.4,492.4 1059.9,493.1C1060.6,493.9 1060.9,495.1 1060.9,496.5C1060.9,497.5 1060.8,498.4 1060.5,499.1C1060.2,499.8 1059.8,500.3 1059.4,500.6C1058.9,500.9 1058.5,501.1 1058.1,501.1C1057.3,501.1 1056.6,500.6 1056,499.6C1055.4,498.9 1055.2,497.9 1055.2,496.7ZM1056.4,496.9C1056.4,498.1 1056.5,499.1 1056.8,499.8C1057,500.4 1057.4,500.8 1057.9,500.8C1058.1,500.8 1058.4,500.7 1058.6,500.5C1058.8,500.3 1059,499.9 1059.2,499.5C1059.4,498.8 1059.5,497.7 1059.5,496.4C1059.5,495.4 1059.4,494.6 1059.2,493.9C1059,493.4 1058.8,493.1 1058.6,492.9C1058.4,492.8 1058.2,492.7 1058,492.7C1057.7,492.7 1057.4,492.8 1057.2,493.1C1056.9,493.5 1056.7,494 1056.6,494.8C1056.5,495.4 1056.4,496.1 1056.4,496.9Z" style="fill:rgb(253,5,21);fill-rule:nonzero;"/>
            </g>
            <g>
                <path d="M1135,602.3L1132.9,603.3L1132.7,603.3L1132.7,595.9C1132.7,595.4 1132.7,595.1 1132.6,595C1132.6,594.9 1132.5,594.8 1132.3,594.7C1132.2,594.6 1131.9,594.6 1131.5,594.6L1131.5,594.4L1134.8,594.4L1134.8,594.6C1134.4,594.6 1134.1,594.6 1134,594.7C1133.9,594.8 1133.8,594.8 1133.7,595C1133.7,595.1 1133.6,595.4 1133.6,596L1133.6,600.8C1133.6,601.4 1133.6,601.9 1133.7,602C1133.7,602.1 1133.8,602.2 1133.9,602.3C1134,602.4 1134.1,602.4 1134.2,602.4C1134.4,602.4 1134.6,602.3 1134.9,602.2L1135,602.3Z" style="fill:rgb(253,5,21);fill-rule:nonzero;"/>
                <path d="M1129.5,598.7C1129.5,599.7 1129.3,600.6 1129,601.3C1128.7,602 1128.3,602.6 1127.8,602.9C1127.4,603.2 1127,603.3 1126.6,603.3C1125.9,603.3 1125.3,603 1124.8,602.3C1124.1,601.4 1123.8,600.3 1123.8,598.8C1123.8,597.8 1123.9,596.9 1124.2,596.2C1124.5,595.5 1124.9,595 1125.3,594.6C1125.8,594.3 1126.2,594.1 1126.6,594.1C1127.4,594.1 1128.1,594.6 1128.7,595.6C1129.2,596.5 1129.5,597.5 1129.5,598.7ZM1128.2,598.5C1128.2,597.3 1128.1,596.3 1127.8,595.5C1127.6,594.9 1127.2,594.5 1126.7,594.5C1126.5,594.5 1126.2,594.6 1126,594.8C1125.7,595 1125.6,595.4 1125.4,595.9C1125.2,596.6 1125.1,597.7 1125.1,599.1C1125.1,600.1 1125.2,600.9 1125.4,601.6C1125.6,602.1 1125.8,602.5 1126,602.7C1126.2,602.8 1126.4,602.9 1126.6,602.9C1126.9,602.9 1127.2,602.8 1127.4,602.5C1127.7,602.1 1127.9,601.6 1128,600.8C1128.1,600 1128.2,599.3 1128.2,598.5Z" style="fill:rgb(253,5,21);fill-rule:nonzero;"/>
            </g>
            <path d="M1058.7,507.2C1058.3,506.1 1057.2,505.7 1056.2,505.7C1054.8,505.7 1054.3,507.5 1054.3,507.5C1054.3,507.5 1053.8,505.7 1052.4,505.7C1051.3,505.7 1050.3,506.2 1049.9,507.2C1049.5,508.3 1049.2,509.8 1050.4,511C1051.6,512.2 1053.1,513 1053.7,513.5C1054.3,514.1 1054.4,514.4 1054.4,514.4C1054.4,514.4 1054.5,514.1 1055.1,513.5C1055.7,513 1057.2,512.2 1058.4,511C1059.3,509.9 1059.1,508.3 1058.7,507.2Z" style="fill:rgb(253,5,21);fill-rule:nonzero;"/>
            <path d="M1134.6,587.5C1134.2,588.6 1133.1,589 1132.1,589C1130.7,589 1130.2,587.2 1130.2,587.2C1130.2,587.2 1129.7,589 1128.3,589C1127.2,589 1126.2,588.5 1125.8,587.5C1125.4,586.5 1125.1,584.9 1126.3,583.7C1127.5,582.5 1129,581.7 1129.6,581.2C1130.2,580.6 1130.3,580.3 1130.3,580.3C1130.3,580.3 1130.4,580.6 1131,581.2C1131.6,581.7 1133.1,582.5 1134.3,583.7C1135.3,584.9 1135,586.5 1134.6,587.5Z" style="fill:rgb(253,5,21);fill-rule:nonzero;"/>
            <g>
                <g>
                    <path d="M1120.8,495.9C1120,493.7 1117.8,492.8 1115.5,492.8C1112.6,492.8 1111.5,496.5 1111.5,496.5C1111.5,496.5 1110.4,492.8 1107.5,492.8C1105.2,492.8 1103.1,493.8 1102.2,495.9C1101.3,498 1100.8,501.4 1103.2,503.7C1105.6,506.1 1108.8,507.8 1109.9,508.8C1111.2,510 1111.4,510.7 1111.4,510.7C1111.4,510.7 1111.6,510 1112.9,508.8C1114,507.8 1117.2,506 1119.6,503.7C1122.2,501.4 1121.6,498.1 1120.8,495.9Z" style="fill:rgb(253,5,21);fill-rule:nonzero;"/>
                </g>
                <g>
                    <path d="M1120.8,526.3C1120,524.1 1117.8,523.2 1115.5,523.2C1112.6,523.2 1111.5,526.9 1111.5,526.9C1111.5,526.9 1110.4,523.2 1107.5,523.2C1105.2,523.2 1103.1,524.2 1102.2,526.3C1101.4,528.5 1100.8,531.8 1103.2,534.1C1105.6,536.5 1108.8,538.2 1109.9,539.2C1111.2,540.4 1111.4,541.1 1111.4,541.1C1111.4,541.1 1111.6,540.4 1112.9,539.2C1114,538.2 1117.2,536.4 1119.6,534.1C1122.2,531.8 1121.6,528.5 1120.8,526.3Z" style="fill:rgb(253,5,21);fill-rule:nonzero;"/>
                </g>
                <g>
                    <path d="M1063.6,598.8C1064.4,601 1066.6,601.9 1068.9,601.9C1071.8,601.9 1072.9,598.2 1072.9,598.2C1072.9,598.2 1074,601.9 1076.9,601.9C1079.2,601.9 1081.3,600.9 1082.2,598.8C1083,596.6 1083.6,593.3 1081.2,591C1078.8,588.6 1075.6,586.9 1074.5,585.9C1073.2,584.7 1073,584 1073,584C1073,584 1072.8,584.7 1071.5,585.9C1070.4,586.9 1067.2,588.7 1064.8,591C1062.2,593.4 1062.7,596.7 1063.6,598.8Z" style="fill:rgb(253,5,21);fill-rule:nonzero;"/>
                </g>
                <g>
                    <path d="M1063.6,568.4C1064.4,570.6 1066.6,571.5 1068.9,571.5C1071.8,571.5 1072.9,567.8 1072.9,567.8C1072.9,567.8 1074,571.5 1076.9,571.5C1079.2,571.5 1081.3,570.5 1082.2,568.4C1083,566.2 1083.6,562.9 1081.2,560.6C1078.8,558.2 1075.6,556.5 1074.5,555.5C1073.2,554.3 1073,553.6 1073,553.6C1073,553.6 1072.8,554.3 1071.5,555.5C1070.4,556.5 1067.2,558.3 1064.8,560.6C1062.2,563 1062.7,566.2 1063.6,568.4Z" style="fill:rgb(253,5,21);fill-rule:nonzero;"/>
                </g>
                <g>
                    <path d="M1101.9,510C1101.1,507.8 1098.9,506.9 1096.6,506.9C1093.7,506.9 1092.6,510.6 1092.6,510.6C1092.6,510.6 1091.5,506.9 1088.6,506.9C1086.3,506.9 1084.2,507.9 1083.3,510C1082.5,512.2 1081.9,515.5 1084.3,517.8C1086.7,520.2 1089.9,521.9 1091,522.9C1092.3,524.1 1092.5,524.8 1092.5,524.8C1092.5,524.8 1092.7,524.1 1094,522.9C1095.1,521.9 1098.3,520.1 1100.7,517.8C1103.3,515.4 1102.8,512.2 1101.9,510Z" style="fill:rgb(253,5,21);fill-rule:nonzero;"/>
                </g>
                <g>
                    <path d="M1083.5,583.2C1084.3,585.4 1086.5,586.3 1088.8,586.3C1091.7,586.3 1092.8,582.6 1092.8,582.6C1092.8,582.6 1093.9,586.3 1096.8,586.3C1099.1,586.3 1101.2,585.3 1102.1,583.2C1102.9,581 1103.5,577.7 1101.1,575.4C1098.7,573 1095.5,571.3 1094.4,570.3C1093.1,569.1 1092.9,568.4 1092.9,568.4C1092.9,568.4 1092.7,569.1 1091.4,570.3C1090.3,571.3 1087.1,573.1 1084.7,575.4C1082.1,577.7 1082.6,581 1083.5,583.2Z" style="fill:rgb(253,5,21);fill-rule:nonzero;"/>
                </g>
                <g>
                    <path d="M1082,495.9C1081.2,493.7 1079,492.8 1076.7,492.8C1073.8,492.8 1072.7,496.5 1072.7,496.5C1072.7,496.5 1071.6,492.8 1068.7,492.8C1066.4,492.8 1064.3,493.8 1063.4,495.9C1062.5,498 1062,501.4 1064.4,503.7C1066.8,506.1 1070,507.8 1071.1,508.8C1072.4,510 1072.6,510.7 1072.6,510.7C1072.6,510.7 1072.8,510 1074.1,508.8C1075.2,507.8 1078.4,506 1080.8,503.7C1083.4,501.4 1082.9,498.1 1082,495.9Z" style="fill:rgb(253,5,21);fill-rule:nonzero;"/>
                </g>
                <g>
                    <path d="M1082,526.3C1081.2,524.1 1079,523.2 1076.7,523.2C1073.8,523.2 1072.7,526.9 1072.7,526.9C1072.7,526.9 1071.6,523.2 1068.7,523.2C1066.4,523.2 1064.3,524.2 1063.4,526.3C1062.6,528.5 1062,531.8 1064.4,534.1C1066.8,536.5 1070,538.2 1071.1,539.2C1072.4,540.4 1072.6,541.1 1072.6,541.1C1072.6,541.1 1072.8,540.4 1074.1,539.2C1075.2,538.2 1078.4,536.4 1080.8,534.1C1083.4,531.8 1082.9,528.5 1082,526.3Z" style="fill:rgb(253,5,21);fill-rule:nonzero;"/>
                </g>
                <g>
                    <path d="M1102.3,598.8C1103.1,601 1105.3,601.9 1107.6,601.9C1110.5,601.9 1111.6,598.2 1111.6,598.2C1111.6,598.2 1112.7,601.9 1115.6,601.9C1117.9,601.9 1120,600.9 1120.9,598.8C1121.7,596.6 1122.3,593.3 1119.9,591C1117.5,588.6 1114.3,586.9 1113.2,585.9C1111.9,584.7 1111.7,584 1111.7,584C1111.7,584 1111.5,584.7 1110.2,585.9C1109.1,586.9 1105.9,588.7 1103.5,591C1100.9,593.4 1101.5,596.7 1102.3,598.8Z" style="fill:rgb(253,5,21);fill-rule:nonzero;"/>
                </g>
                <g>
                    <path d="M1102.3,568.4C1103.1,570.6 1105.3,571.5 1107.6,571.5C1110.5,571.5 1111.6,567.8 1111.6,567.8C1111.6,567.8 1112.7,571.5 1115.6,571.5C1117.9,571.5 1120,570.5 1120.9,568.4C1121.7,566.2 1122.3,562.9 1119.9,560.6C1117.5,558.2 1114.3,556.5 1113.2,555.5C1111.9,554.3 1111.7,553.6 1111.7,553.6C1111.7,553.6 1111.5,554.3 1110.2,555.5C1109.1,556.5 1105.9,558.3 1103.5,560.6C1100.9,563 1101.5,566.2 1102.3,568.4Z" style="fill:rgb(253,5,21);fill-rule:nonzero;"/>
                </g>
            </g>
        </g>
    </g>
</svg>
