<?xml version="1.0" encoding="UTF-8" standalone="no"?>
<!DOCTYPE svg PUBLIC "-//W3C//DTD SVG 1.1//EN" "http://www.w3.org/Graphics/SVG/1.1/DTD/svg11.dtd">
<svg width="100%" height="100%" viewBox="0 0 97 127" version="1.1" xmlns="http://www.w3.org/2000/svg" xmlns:xlink="http://www.w3.org/1999/xlink" xml:space="preserve" xmlns:serif="http://www.serif.com/" style="fill-rule:evenodd;clip-rule:evenodd;stroke-linejoin:round;stroke-miterlimit:2;">
    <g transform="matrix(1,0,0,1,-1528,-484)">
        <g>
            <g>
                <path d="M1611.3,610.8L1541.7,610.8C1534.2,610.8 1528.2,604.7 1528.2,597.3L1528.2,497.5C1528.2,490 1534.3,484 1541.7,484L1611.3,484C1618.8,484 1624.8,490.1 1624.8,497.5L1624.8,597.3C1624.8,604.7 1618.8,610.8 1611.3,610.8Z" style="fill:rgb(251,251,252);fill-rule:nonzero;"/>
                <g>
                    <g>
                        <path d="M1543,507.2C1542.6,506.1 1541.5,505.7 1540.5,505.7C1539.1,505.7 1538.6,507.5 1538.6,507.5C1538.6,507.5 1538.1,505.7 1536.7,505.7C1535.6,505.7 1534.6,506.2 1534.2,507.2C1533.8,508.3 1533.5,509.8 1534.7,511C1535.9,512.2 1537.4,513 1538,513.5C1538.6,514.1 1538.7,514.4 1538.7,514.4C1538.7,514.4 1538.8,514.1 1539.4,513.5C1540,513 1541.5,512.2 1542.7,511C1543.7,509.9 1543.4,508.3 1543,507.2Z" style="fill:rgb(253,5,21);fill-rule:nonzero;"/>
                        <g>
                            <path d="M1540.2,499.3L1535.9,499.3L1535.1,501.2C1534.9,501.7 1534.8,502 1534.8,502.3L1534.8,502.6C1534.8,502.7 1534.9,502.8 1535,502.8C1535.1,502.9 1535.2,502.9 1535.4,503C1535.6,503 1535.8,503.1 1536.1,503.1L1536.1,503.4L1532.6,503.4L1532.6,503C1532.9,503 1533.1,502.9 1533.3,502.8C1533.5,502.7 1533.6,502.6 1533.7,502.4C1533.8,502.2 1533.9,502 1534,501.8C1534.1,501.6 1534.2,501.2 1534.4,500.9L1538.3,490.9L1538.6,490.9L1542.5,501C1542.7,501.4 1542.8,501.8 1542.9,502C1543,502.3 1543.2,502.5 1543.3,502.6C1543.4,502.7 1543.6,502.8 1543.8,502.9C1544,503 1544.2,503 1544.4,503L1544.4,503.3L1540,503.3L1540,503C1540.4,503 1540.7,502.9 1540.9,502.8C1541.1,502.7 1541.1,502.5 1541.1,502.3C1541.1,502 1541,501.6 1540.8,501L1540.2,499.3ZM1539.9,498.6L1538,493.7L1536.1,498.6L1539.9,498.6Z" style="fill:rgb(253,5,21);fill-rule:nonzero;"/>
                        </g>
                    </g>
                    <g>
                        <path d="M1619,587.5C1618.6,588.6 1617.5,589 1616.5,589C1615.1,589 1614.6,587.2 1614.6,587.2C1614.6,587.2 1614.1,589 1612.7,589C1611.6,589 1610.6,588.5 1610.2,587.5C1609.8,586.4 1609.5,584.9 1610.7,583.7C1611.9,582.5 1613.4,581.7 1614,581.2C1614.6,580.6 1614.7,580.3 1614.7,580.3C1614.7,580.3 1614.8,580.6 1615.4,581.2C1616,581.7 1617.5,582.5 1618.7,583.7C1619.7,584.9 1619.4,586.5 1619,587.5Z" style="fill:rgb(253,5,21);fill-rule:nonzero;"/>
                        <g>
                            <path d="M1616.8,593.7C1617,593.1 1617.1,592.7 1617.1,592.4C1617.1,592.2 1617,592 1616.9,591.9C1616.7,591.8 1616.4,591.7 1616,591.7L1616,591.4L1620.4,591.4L1620.4,591.7C1620.2,591.7 1620,591.7 1619.8,591.8C1619.6,591.9 1619.5,592 1619.3,592.1C1619.2,592.2 1619,592.4 1618.9,592.7C1618.8,593 1618.6,593.3 1618.5,593.7L1614.6,603.8L1614.3,603.8L1610.4,593.8C1610.3,593.4 1610.1,593.1 1610,592.9C1609.9,592.7 1609.8,592.4 1609.7,592.3C1609.6,592.1 1609.4,592 1609.3,591.9C1609.1,591.8 1608.9,591.7 1608.6,591.7L1608.6,591.4L1612.1,591.4L1612.1,591.7C1611.8,591.7 1611.6,591.8 1611.4,591.8C1611.2,591.8 1611.1,591.9 1611,592C1610.9,592.1 1610.8,592.1 1610.8,592.2L1610.8,592.5C1610.8,592.7 1610.9,593.1 1611.1,593.6L1611.9,595.5L1616.2,595.5L1616.8,593.7ZM1612.1,596.1L1614,601L1615.9,596.1L1612.1,596.1Z" style="fill:rgb(253,5,21);fill-rule:nonzero;"/>
                        </g>
                    </g>
                </g>
                <path d="M1594.1,536.3C1592.5,532.1 1588.4,530.3 1584.1,530.3C1578.6,530.3 1576.5,537.3 1576.5,537.3C1576.5,537.3 1574.5,530.3 1568.9,530.3C1564.6,530.3 1560.5,532.1 1558.9,536.3C1557.3,540.5 1556.2,546.7 1560.9,551.2C1565.5,555.7 1571.6,559 1573.7,561C1576.1,563.2 1576.5,564.5 1576.5,564.5C1576.5,564.5 1576.9,563.2 1579.3,561C1581.5,559 1587.5,555.7 1592.1,551.2C1596.8,546.6 1595.7,540.4 1594.1,536.3Z" style="fill:rgb(253,5,21);fill-rule:nonzero;"/>
            </g>
        </g>
    </g>
</svg>
