<?xml version="1.0" encoding="UTF-8" standalone="no"?>
<!DOCTYPE svg PUBLIC "-//W3C//DTD SVG 1.1//EN" "http://www.w3.org/Graphics/SVG/1.1/DTD/svg11.dtd">
<svg width="100%" height="100%" viewBox="0 0 97 127" version="1.1" xmlns="http://www.w3.org/2000/svg" xmlns:xlink="http://www.w3.org/1999/xlink" xml:space="preserve" xmlns:serif="http://www.serif.com/" style="fill-rule:evenodd;clip-rule:evenodd;stroke-linejoin:round;stroke-miterlimit:2;">
    <g transform="matrix(1,0,0,1,-438,-484)">
        <g>
            <path d="M521.5,610.8L451.9,610.8C444.4,610.8 438.4,604.7 438.4,597.3L438.4,497.5C438.4,490 444.5,484 451.9,484L521.5,484C529,484 535,490.1 535,497.5L535,597.3C535.1,604.7 529,610.8 521.5,610.8Z" style="fill:rgb(251,251,252);fill-rule:nonzero;"/>
            <g>
                <path d="M452.1,491.4L451.4,492.9L447.8,492.9L447,494.5C448.6,494.7 449.8,495.3 450.7,496.2C451.5,497 451.9,497.9 451.9,499C451.9,499.6 451.8,500.2 451.5,500.7C451.2,501.2 450.9,501.7 450.5,502.1C450.1,502.5 449.7,502.8 449.2,503C448.5,503.3 447.8,503.5 447.1,503.5C446.4,503.5 445.9,503.4 445.5,503.1C445.2,502.9 445,502.6 445,502.3C445,502.1 445.1,502 445.2,501.9C445.3,501.8 445.5,501.7 445.7,501.7C445.9,501.7 446,501.7 446.1,501.8C446.2,501.8 446.4,502 446.7,502.2C447.1,502.5 447.6,502.7 448,502.7C448.7,502.7 449.3,502.4 449.8,501.9C450.3,501.4 450.6,500.7 450.6,500C450.6,499.3 450.4,498.6 449.9,498C449.4,497.4 448.8,496.9 448,496.5C447.4,496.2 446.5,496.1 445.4,496L447.7,491.3L452.1,491.3L452.1,491.4Z" style="fill:rgb(253,5,21);fill-rule:nonzero;"/>
            </g>
            <g>
                <path d="M521.4,603.4L522.1,601.9L525.7,601.9L526.5,600.3C524.9,600.1 523.7,599.5 522.8,598.6C522,597.8 521.6,596.9 521.6,595.8C521.6,595.2 521.7,594.6 522,594.1C522.3,593.6 522.6,593.1 523,592.7C523.4,592.3 523.8,592 524.3,591.8C525,591.5 525.7,591.3 526.4,591.3C527.1,591.3 527.6,591.4 528,591.7C528.3,591.9 528.5,592.2 528.5,592.5C528.5,592.7 528.4,592.8 528.3,592.9C528.2,593 528,593.1 527.8,593.1C527.6,593.1 527.5,593.1 527.4,593C527.3,593 527.1,592.8 526.8,592.6C526.4,592.3 525.9,592.1 525.5,592.1C524.8,592.1 524.2,592.4 523.7,592.9C523.2,593.4 522.9,594.1 522.9,594.8C522.9,595.5 523.1,596.2 523.6,596.8C524.1,597.4 524.7,597.9 525.5,598.3C526.1,598.6 527,598.7 528.1,598.8L525.8,603.5L521.4,603.5L521.4,603.4Z" style="fill:rgb(253,5,21);fill-rule:nonzero;"/>
            </g>
            <path d="M453.2,507.2C452.8,506.1 451.7,505.7 450.7,505.7C449.3,505.7 448.8,507.5 448.8,507.5C448.8,507.5 448.3,505.7 446.9,505.7C445.8,505.7 444.8,506.2 444.4,507.2C444,508.3 443.7,509.8 444.9,511C446.1,512.2 447.6,513 448.2,513.5C448.8,514.1 448.9,514.4 448.9,514.4C448.9,514.4 449,514.1 449.6,513.5C450.2,513 451.7,512.2 452.9,511C453.9,509.9 453.6,508.3 453.2,507.2Z" style="fill:rgb(253,5,21);fill-rule:nonzero;"/>
            <path d="M529.2,587.5C528.8,588.6 527.7,589 526.7,589C525.3,589 524.8,587.2 524.8,587.2C524.8,587.2 524.3,589 522.9,589C521.8,589 520.8,588.5 520.4,587.5C520,586.4 519.7,584.9 520.9,583.7C522.1,582.5 523.6,581.7 524.2,581.2C524.8,580.6 524.9,580.3 524.9,580.3C524.9,580.3 525,580.6 525.6,581.2C526.2,581.7 527.7,582.5 528.9,583.7C529.9,584.9 529.6,586.5 529.2,587.5Z" style="fill:rgb(253,5,21);fill-rule:nonzero;"/>
            <g>
                <g>
                    <path d="M476.4,498.7C475.6,496.5 473.4,495.6 471.1,495.6C468.2,495.6 467.1,499.3 467.1,499.3C467.1,499.3 466,495.6 463.1,495.6C460.8,495.6 458.7,496.6 457.8,498.7C457,500.9 456.4,504.2 458.8,506.5C461.2,508.9 464.4,510.6 465.5,511.6C466.8,512.8 467,513.5 467,513.5C467,513.5 467.2,512.8 468.5,511.6C469.6,510.6 472.8,508.8 475.2,506.5C477.8,504.1 477.2,500.9 476.4,498.7Z" style="fill:rgb(253,5,21);fill-rule:nonzero;"/>
                    <path d="M457.9,596.1C458.7,598.3 460.9,599.2 463.2,599.2C466.1,599.2 467.2,595.5 467.2,595.5C467.2,595.5 468.3,599.2 471.2,599.2C473.5,599.2 475.6,598.2 476.5,596.1C477.3,593.9 477.9,590.6 475.5,588.3C473.1,585.9 469.9,584.2 468.8,583.2C467.5,582 467.3,581.3 467.3,581.3C467.3,581.3 467.1,582 465.8,583.2C464.7,584.2 461.5,586 459.1,588.3C456.5,590.6 457.1,593.9 457.9,596.1Z" style="fill:rgb(253,5,21);fill-rule:nonzero;"/>
                </g>
                <g>
                    <path d="M515.5,498.7C514.7,496.5 512.5,495.6 510.2,495.6C507.3,495.6 506.2,499.3 506.2,499.3C506.2,499.3 505.1,495.6 502.2,495.6C499.9,495.6 497.8,496.6 496.9,498.7C496.1,500.9 495.5,504.2 497.9,506.5C500.3,508.9 503.5,510.6 504.6,511.6C505.9,512.8 506.1,513.5 506.1,513.5C506.1,513.5 506.3,512.8 507.6,511.6C508.7,510.6 511.9,508.8 514.3,506.5C517,504.1 516.4,500.9 515.5,498.7Z" style="fill:rgb(253,5,21);fill-rule:nonzero;"/>
                    <path d="M477.5,553.2C478.3,555.4 480.5,556.3 482.8,556.3C485.7,556.3 486.8,552.6 486.8,552.6C486.8,552.6 487.9,556.3 490.8,556.3C493.1,556.3 495.2,555.3 496.1,553.2C496.9,551 497.5,547.7 495.1,545.4C492.7,543 489.5,541.3 488.4,540.3C487.1,539.1 486.9,538.4 486.9,538.4C486.9,538.4 486.7,539.1 485.4,540.3C484.3,541.3 481.1,543.1 478.7,545.4C476.1,547.8 476.7,551 477.5,553.2Z" style="fill:rgb(253,5,21);fill-rule:nonzero;"/>
                    <path d="M497.1,596.1C497.9,598.3 500.1,599.2 502.4,599.2C505.3,599.2 506.4,595.5 506.4,595.5C506.4,595.5 507.5,599.2 510.4,599.2C512.7,599.2 514.8,598.2 515.7,596.1C516.5,593.9 517.1,590.6 514.7,588.3C512.3,585.9 509.1,584.2 508,583.2C506.7,582 506.5,581.3 506.5,581.3C506.5,581.3 506.3,582 505,583.2C503.9,584.2 500.7,586 498.3,588.3C495.7,590.6 496.2,593.9 497.1,596.1Z" style="fill:rgb(253,5,21);fill-rule:nonzero;"/>
                </g>
            </g>
        </g>
    </g>
</svg>
