<?xml version="1.0" encoding="UTF-8" standalone="no"?>
<!DOCTYPE svg PUBLIC "-//W3C//DTD SVG 1.1//EN" "http://www.w3.org/Graphics/SVG/1.1/DTD/svg11.dtd">
<svg width="100%" height="100%" viewBox="0 0 98 127" version="1.1" xmlns="http://www.w3.org/2000/svg" xmlns:xlink="http://www.w3.org/1999/xlink" xml:space="preserve" xmlns:serif="http://www.serif.com/" style="fill-rule:evenodd;clip-rule:evenodd;stroke-linejoin:round;stroke-miterlimit:2;">
    <g transform="matrix(1,0,0,1,-680,-484)">
        <g>
            <path d="M763.7,610.8L694.1,610.8C686.6,610.8 680.6,604.7 680.6,597.3L680.6,497.5C680.6,490 686.7,484 694.1,484L763.7,484C771.2,484 777.2,490.1 777.2,497.5L777.2,597.3C777.2,604.7 771.2,610.8 763.7,610.8Z" style="fill:rgb(251,251,252);fill-rule:nonzero;"/>
            <g>
                <path d="M688.2,491.4L694.6,491.4L694.6,491.7L690.6,503.6L689.6,503.6L693.2,492.8L689.9,492.8C689.2,492.8 688.8,492.9 688.5,493C688,493.3 687.6,493.7 687.3,494.3L687,494.2L688.2,491.4Z" style="fill:rgb(253,5,21);fill-rule:nonzero;"/>
            </g>
            <g>
                <path d="M769.6,603.4L763.2,603.4L763.2,603.1L767.2,591.2L768.2,591.2L764.6,602L767.9,602C768.6,602 769,601.9 769.3,601.8C769.8,601.5 770.2,601.1 770.5,600.5L770.8,600.6L769.6,603.4Z" style="fill:rgb(253,5,21);fill-rule:nonzero;"/>
            </g>
            <path d="M695.4,507.2C695,506.1 693.9,505.7 692.9,505.7C691.5,505.7 691,507.5 691,507.5C691,507.5 690.5,505.7 689.1,505.7C688,505.7 687,506.2 686.6,507.2C686.2,508.3 685.9,509.8 687.1,511C688.3,512.2 689.8,513 690.4,513.5C691,514.1 691.1,514.4 691.1,514.4C691.1,514.4 691.2,514.1 691.8,513.5C692.4,513 693.9,512.2 695.1,511C696.1,509.9 695.8,508.3 695.4,507.2Z" style="fill:rgb(253,5,21);fill-rule:nonzero;"/>
            <path d="M771.4,587.5C771,588.6 769.9,589 768.9,589C767.5,589 767,587.2 767,587.2C767,587.2 766.5,589 765.1,589C764,589 763,588.5 762.6,587.5C762.2,586.4 761.9,584.9 763.1,583.7C764.3,582.5 765.8,581.7 766.4,581.2C767,580.6 767.1,580.3 767.1,580.3C767.1,580.3 767.2,580.6 767.8,581.2C768.4,581.7 769.9,582.5 771.1,583.7C772.1,584.9 771.8,586.5 771.4,587.5Z" style="fill:rgb(253,5,21);fill-rule:nonzero;"/>
            <g>
                <g>
                    <path d="M718.6,498.7C717.8,496.5 715.6,495.6 713.3,495.6C710.4,495.6 709.3,499.3 709.3,499.3C709.3,499.3 708.2,495.6 705.3,495.6C703,495.6 700.9,496.6 700,498.7C699.2,500.9 698.6,504.2 701,506.5C703.4,508.9 706.6,510.6 707.7,511.6C709,512.8 709.2,513.5 709.2,513.5C709.2,513.5 709.4,512.8 710.7,511.6C711.8,510.6 715,508.8 717.4,506.5C720,504.1 719.4,500.9 718.6,498.7Z" style="fill:rgb(253,5,21);fill-rule:nonzero;"/>
                    <path d="M700.1,596.1C700.9,598.3 703.1,599.2 705.4,599.2C708.3,599.2 709.4,595.5 709.4,595.5C709.4,595.5 710.5,599.2 713.4,599.2C715.7,599.2 717.8,598.2 718.7,596.1C719.5,593.9 720.1,590.6 717.7,588.3C715.3,585.9 712.1,584.2 711,583.2C709.7,582 709.5,581.3 709.5,581.3C709.5,581.3 709.3,582 708,583.2C706.9,584.2 703.7,586 701.3,588.3C698.7,590.6 699.3,593.9 700.1,596.1Z" style="fill:rgb(253,5,21);fill-rule:nonzero;"/>
                </g>
                <g>
                    <path d="M757.7,498.7C756.9,496.5 754.7,495.6 752.4,495.6C749.5,495.6 748.4,499.3 748.4,499.3C748.4,499.3 747.3,495.6 744.4,495.6C742.1,495.6 740,496.6 739.1,498.7C738.3,500.9 737.7,504.2 740.1,506.5C742.5,508.9 745.7,510.6 746.8,511.6C748.1,512.8 748.3,513.5 748.3,513.5C748.3,513.5 748.5,512.8 749.8,511.6C750.9,510.6 754.1,508.8 756.5,506.5C759.1,504.1 758.6,500.9 757.7,498.7Z" style="fill:rgb(253,5,21);fill-rule:nonzero;"/>
                    <path d="M700.1,553.2C700.9,555.4 703.1,556.3 705.4,556.3C708.3,556.3 709.4,552.6 709.4,552.6C709.4,552.6 710.5,556.3 713.4,556.3C715.7,556.3 717.8,555.3 718.7,553.2C719.5,551 720.1,547.7 717.7,545.4C715.3,543 712.1,541.3 711,540.3C709.7,539.1 709.5,538.4 709.5,538.4C709.5,538.4 709.3,539.1 708,540.3C706.9,541.3 703.7,543.1 701.3,545.4C698.7,547.8 699.3,551 700.1,553.2Z" style="fill:rgb(253,5,21);fill-rule:nonzero;"/>
                    <path d="M719.7,574.2C720.5,576.4 722.7,577.3 725,577.3C727.9,577.3 729,573.6 729,573.6C729,573.6 730.1,577.3 733,577.3C735.3,577.3 737.4,576.3 738.3,574.2C739.1,572 739.7,568.7 737.3,566.4C734.9,564 731.7,562.3 730.6,561.3C729.3,560.1 729.1,559.4 729.1,559.4C729.1,559.4 728.9,560.1 727.6,561.3C726.5,562.3 723.3,564.1 720.9,566.4C718.3,568.7 718.8,572 719.7,574.2Z" style="fill:rgb(253,5,21);fill-rule:nonzero;"/>
                    <path d="M739.3,553.2C740.1,555.4 742.3,556.3 744.6,556.3C747.5,556.3 748.6,552.6 748.6,552.6C748.6,552.6 749.7,556.3 752.6,556.3C754.9,556.3 757,555.3 757.9,553.2C758.7,551 759.3,547.7 756.9,545.4C754.5,543 751.3,541.3 750.2,540.3C748.9,539.1 748.7,538.4 748.7,538.4C748.7,538.4 748.5,539.1 747.2,540.3C746.1,541.3 742.9,543.1 740.5,545.4C737.8,547.8 738.4,551 739.3,553.2Z" style="fill:rgb(253,5,21);fill-rule:nonzero;"/>
                    <path d="M739.3,596.1C740.1,598.3 742.3,599.2 744.6,599.2C747.5,599.2 748.6,595.5 748.6,595.5C748.6,595.5 749.7,599.2 752.6,599.2C754.9,599.2 757,598.2 757.9,596.1C758.7,593.9 759.3,590.6 756.9,588.3C754.5,585.9 751.3,584.2 750.2,583.2C748.9,582 748.7,581.3 748.7,581.3C748.7,581.3 748.5,582 747.2,583.2C746.1,584.2 742.9,586 740.5,588.3C737.8,590.6 738.4,593.9 739.3,596.1Z" style="fill:rgb(253,5,21);fill-rule:nonzero;"/>
                </g>
            </g>
        </g>
    </g>
</svg>
