<?xml version="1.0" encoding="UTF-8" standalone="no"?>
<!DOCTYPE svg PUBLIC "-//W3C//DTD SVG 1.1//EN" "http://www.w3.org/Graphics/SVG/1.1/DTD/svg11.dtd">
<svg width="100%" height="100%" viewBox="0 0 98 127" version="1.1" xmlns="http://www.w3.org/2000/svg" xmlns:xlink="http://www.w3.org/1999/xlink" xml:space="preserve" xmlns:serif="http://www.serif.com/" style="fill-rule:evenodd;clip-rule:evenodd;stroke-linejoin:round;stroke-miterlimit:2;">
    <g transform="matrix(1,0,0,1,-559,-484)">
        <g>
            <path d="M642.6,610.8L573,610.8C565.5,610.8 559.5,604.7 559.5,597.3L559.5,497.5C559.5,490 565.6,484 573,484L642.6,484C650.1,484 656.1,490.1 656.1,497.5L656.1,597.3C656.1,604.7 650.1,610.8 642.6,610.8Z" style="fill:rgb(251,251,252);fill-rule:nonzero;"/>
            <g>
                <path d="M573.4,491L573.4,491.4C572.6,491.5 572,491.6 571.5,491.9C571,492.1 570.5,492.5 570,493C569.5,493.5 569.1,494 568.8,494.6C568.5,495.2 568.2,495.9 568,496.7C568.8,496.1 569.7,495.8 570.6,495.8C571.4,495.8 572.1,496.1 572.7,496.8C573.3,497.5 573.6,498.3 573.6,499.3C573.6,500.3 573.3,501.2 572.7,502C572,503 571,503.5 569.8,503.5C569,503.5 568.3,503.2 567.7,502.7C566.6,501.6 566,500.3 566,498.6C566,497.5 566.2,496.5 566.6,495.5C567,494.5 567.6,493.7 568.4,492.9C569.2,492.2 570,491.6 570.7,491.4C571.4,491.1 572.1,491 572.7,491L573.4,491ZM567.9,497.3C567.8,498.1 567.7,498.7 567.7,499.2C567.7,499.8 567.8,500.4 568,501C568.2,501.7 568.5,502.2 568.9,502.6C569.2,502.9 569.6,503 570,503C570.5,503 571,502.8 571.4,502.3C571.8,501.8 572,501.1 572,500.2C572,499.2 571.8,498.3 571.4,497.6C571,496.9 570.4,496.5 569.7,496.5C569.5,496.5 569.2,496.5 569,496.6C568.8,496.8 568.4,497 567.9,497.3Z" style="fill:rgb(253,5,21);fill-rule:nonzero;"/>
            </g>
            <g>
                <path d="M642.2,603.7L642.2,603.3C643,603.2 643.6,603.1 644.1,602.8C644.6,602.6 645.1,602.2 645.6,601.7C646.1,601.2 646.5,600.7 646.8,600.1C647.1,599.5 647.4,598.8 647.6,598C646.8,598.6 645.9,598.9 645,598.9C644.2,598.9 643.5,598.6 642.9,597.9C642.3,597.2 642,596.4 642,595.4C642,594.4 642.3,593.5 642.9,592.7C643.6,591.7 644.6,591.2 645.8,591.2C646.6,591.2 647.3,591.5 647.9,592C649,593.1 649.6,594.4 649.6,596.1C649.6,597.2 649.4,598.2 649,599.2C648.6,600.2 648,601 647.2,601.8C646.4,602.5 645.6,603.1 644.9,603.3C644.2,603.6 643.5,603.7 642.9,603.7L642.2,603.7ZM647.7,597.5C647.8,596.7 647.9,596.1 647.9,595.6C647.9,595 647.8,594.4 647.6,593.8C647.4,593.2 647.1,592.6 646.7,592.2C646.4,591.9 646,591.8 645.6,591.8C645.1,591.8 644.6,592 644.2,592.5C643.8,593 643.6,593.7 643.6,594.6C643.6,595.6 643.8,596.5 644.2,597.2C644.6,597.9 645.2,598.3 645.9,598.3C646.1,598.3 646.4,598.3 646.6,598.2C646.8,598 647.2,597.8 647.7,597.5Z" style="fill:rgb(253,5,21);fill-rule:nonzero;"/>
            </g>
            <path d="M574.3,507.2C573.9,506.1 572.8,505.7 571.8,505.7C570.4,505.7 569.9,507.5 569.9,507.5C569.9,507.5 569.4,505.7 568,505.7C566.9,505.7 565.9,506.2 565.5,507.2C565.1,508.3 564.8,509.8 566,511C567.2,512.2 568.7,513 569.3,513.5C569.9,514.1 570,514.4 570,514.4C570,514.4 570.1,514.1 570.7,513.5C571.3,513 572.8,512.2 574,511C575,509.9 574.7,508.3 574.3,507.2Z" style="fill:rgb(253,5,21);fill-rule:nonzero;"/>
            <path d="M650.3,587.5C649.9,588.6 648.8,589 647.8,589C646.4,589 645.9,587.2 645.9,587.2C645.9,587.2 645.4,589 644,589C642.9,589 641.9,588.5 641.5,587.5C641.1,586.4 640.8,584.9 642,583.7C643.2,582.5 644.7,581.7 645.3,581.2C645.9,580.6 646,580.3 646,580.3C646,580.3 646.1,580.6 646.7,581.2C647.3,581.7 648.8,582.5 650,583.7C651,584.9 650.7,586.5 650.3,587.5Z" style="fill:rgb(253,5,21);fill-rule:nonzero;"/>
            <g>
                <g>
                    <path d="M597.5,498.7C596.7,496.5 594.5,495.6 592.2,495.6C589.3,495.6 588.2,499.3 588.2,499.3C588.2,499.3 587.1,495.6 584.2,495.6C581.9,495.6 579.8,496.6 578.9,498.7C578.1,500.9 577.5,504.2 579.9,506.5C582.3,508.9 585.5,510.6 586.6,511.6C587.9,512.8 588.1,513.5 588.1,513.5C588.1,513.5 588.3,512.8 589.6,511.6C590.7,510.6 593.9,508.8 596.3,506.5C598.9,504.1 598.3,500.9 597.5,498.7Z" style="fill:rgb(253,5,21);fill-rule:nonzero;"/>
                    <path d="M579,596.1C579.8,598.3 582,599.2 584.3,599.2C587.2,599.2 588.3,595.5 588.3,595.5C588.3,595.5 589.4,599.2 592.3,599.2C594.6,599.2 596.7,598.2 597.6,596.1C598.4,593.9 599,590.6 596.6,588.3C594.2,585.9 591,584.2 589.9,583.2C588.6,582 588.4,581.3 588.4,581.3C588.4,581.3 588.2,582 586.9,583.2C585.8,584.2 582.6,586 580.2,588.3C577.6,590.6 578.2,593.9 579,596.1Z" style="fill:rgb(253,5,21);fill-rule:nonzero;"/>
                </g>
                <g>
                    <path d="M636.6,498.7C635.8,496.5 633.6,495.6 631.3,495.6C628.4,495.6 627.3,499.3 627.3,499.3C627.3,499.3 626.2,495.6 623.3,495.6C621,495.6 618.9,496.6 618,498.7C617.2,500.9 616.6,504.2 619,506.5C621.4,508.9 624.6,510.6 625.7,511.6C627,512.8 627.2,513.5 627.2,513.5C627.2,513.5 627.4,512.8 628.7,511.6C629.8,510.6 633,508.8 635.4,506.5C638,504.1 637.5,500.9 636.6,498.7Z" style="fill:rgb(253,5,21);fill-rule:nonzero;"/>
                    <path d="M579,553.2C579.8,555.4 582,556.3 584.3,556.3C587.2,556.3 588.3,552.6 588.3,552.6C588.3,552.6 589.4,556.3 592.3,556.3C594.6,556.3 596.7,555.3 597.6,553.2C598.4,551 599,547.7 596.6,545.4C594.2,543 591,541.3 589.9,540.3C588.6,539.1 588.4,538.4 588.4,538.4C588.4,538.4 588.2,539.1 586.9,540.3C585.8,541.3 582.6,543.1 580.2,545.4C577.6,547.8 578.2,551 579,553.2Z" style="fill:rgb(253,5,21);fill-rule:nonzero;"/>
                    <path d="M618.2,553.2C619,555.4 621.2,556.3 623.5,556.3C626.4,556.3 627.5,552.6 627.5,552.6C627.5,552.6 628.6,556.3 631.5,556.3C633.8,556.3 635.9,555.3 636.8,553.2C637.6,551 638.2,547.7 635.8,545.4C633.4,543 630.2,541.3 629.1,540.3C627.8,539.1 627.6,538.4 627.6,538.4C627.6,538.4 627.4,539.1 626.1,540.3C625,541.3 621.8,543.1 619.4,545.4C616.8,547.8 617.3,551 618.2,553.2Z" style="fill:rgb(253,5,21);fill-rule:nonzero;"/>
                    <path d="M618.2,596.1C619,598.3 621.2,599.2 623.5,599.2C626.4,599.2 627.5,595.5 627.5,595.5C627.5,595.5 628.6,599.2 631.5,599.2C633.8,599.2 635.9,598.2 636.8,596.1C637.6,593.9 638.2,590.6 635.8,588.3C633.4,585.9 630.2,584.2 629.1,583.2C627.8,582 627.6,581.3 627.6,581.3C627.6,581.3 627.4,582 626.1,583.2C625,584.2 621.8,586 619.4,588.3C616.8,590.6 617.3,593.9 618.2,596.1Z" style="fill:rgb(253,5,21);fill-rule:nonzero;"/>
                </g>
            </g>
        </g>
    </g>
</svg>
