<?xml version="1.0" encoding="UTF-8" standalone="no"?>
<!DOCTYPE svg PUBLIC "-//W3C//DTD SVG 1.1//EN" "http://www.w3.org/Graphics/SVG/1.1/DTD/svg11.dtd">
<svg width="100%" height="100%" viewBox="0 0 97 127" version="1.1" xmlns="http://www.w3.org/2000/svg" xmlns:xlink="http://www.w3.org/1999/xlink" xml:space="preserve" xmlns:serif="http://www.serif.com/" style="fill-rule:evenodd;clip-rule:evenodd;stroke-linejoin:round;stroke-miterlimit:2;">
    <g transform="matrix(1,0,0,1,-196,-484)">
        <g>
            <path d="M279.4,610.8L209.8,610.8C202.3,610.8 196.3,604.7 196.3,597.3L196.3,497.5C196.3,490 202.4,484 209.8,484L279.4,484C286.9,484 292.9,490.1 292.9,497.5L292.9,597.3C292.9,604.7 286.8,610.8 279.4,610.8Z" style="fill:rgb(251,251,252);fill-rule:nonzero;"/>
            <g>
                <path d="M203,493.6C203.3,492.8 203.8,492.2 204.3,491.7C204.8,491.3 205.5,491 206.2,491C207.2,491 207.9,491.3 208.4,491.9C208.8,492.4 209,492.9 209,493.4C209,494.3 208.5,495.2 207.4,496.1C208.1,496.4 208.7,496.8 209.1,497.3C209.5,497.8 209.7,498.5 209.7,499.2C209.7,500.2 209.4,501.1 208.7,501.9C207.8,502.9 206.6,503.4 205,503.4C204.2,503.4 203.6,503.3 203.4,503.1C203.1,502.9 203,502.7 203,502.5C203,502.3 203.1,502.2 203.2,502C203.3,501.9 203.5,501.8 203.7,501.8C203.8,501.8 204,501.8 204.1,501.9C204.2,501.9 204.4,502 204.8,502.2C205.2,502.4 205.4,502.5 205.5,502.5C205.7,502.6 205.9,502.6 206.2,502.6C206.8,502.6 207.3,502.4 207.8,501.9C208.2,501.4 208.5,500.9 208.5,500.2C208.5,499.7 208.4,499.3 208.2,498.8C208,498.5 207.9,498.2 207.7,498.1C207.4,497.9 207.1,497.7 206.7,497.5C206.3,497.3 205.8,497.2 205.3,497.2L205,497.2L205,496.9C205.5,496.8 205.9,496.7 206.4,496.4C206.9,496.1 207.2,495.8 207.4,495.4C207.6,495 207.7,494.6 207.7,494.1C207.7,493.5 207.5,493 207.1,492.6C206.7,492.2 206.2,492 205.7,492C204.8,492 204,492.5 203.4,493.5L203,493.6Z" style="fill:rgb(253,5,21);fill-rule:nonzero;"/>
            </g>
            <g>
                <path d="M286.2,601.1C285.9,601.9 285.4,602.5 284.9,603C284.4,603.4 283.7,603.7 283,603.7C282,603.7 281.3,603.4 280.8,602.8C280.4,602.3 280.2,601.8 280.2,601.3C280.2,600.4 280.7,599.5 281.8,598.6C281.1,598.3 280.5,597.9 280.1,597.4C279.7,596.9 279.5,596.2 279.5,595.5C279.5,594.5 279.8,593.6 280.5,592.8C281.4,591.8 282.6,591.3 284.2,591.3C285,591.3 285.6,591.4 285.8,591.6C286.1,591.8 286.2,592 286.2,592.2C286.2,592.4 286.1,592.5 286,592.7C285.9,592.8 285.7,592.9 285.5,592.9C285.4,592.9 285.2,592.9 285.1,592.8C285,592.8 284.8,592.7 284.4,592.5C284,592.3 283.8,592.2 283.7,592.2C283.5,592.1 283.3,592.1 283,592.1C282.4,592.1 281.9,592.3 281.4,592.8C281,593.3 280.7,593.8 280.7,594.5C280.7,595 280.8,595.4 281,595.9C281.2,596.2 281.3,596.5 281.5,596.6C281.8,596.8 282.1,597 282.5,597.2C282.9,597.4 283.4,597.5 283.9,597.5L284.2,597.5L284.2,597.8C283.7,597.9 283.3,598 282.8,598.3C282.3,598.6 282,598.9 281.8,599.3C281.6,599.7 281.5,600.1 281.5,600.6C281.5,601.2 281.7,601.7 282.1,602.1C282.5,602.5 283,602.7 283.5,602.7C284.4,602.7 285.2,602.2 285.8,601.2L286.2,601.1Z" style="fill:rgb(253,5,21);fill-rule:nonzero;"/>
            </g>
            <path d="M211.1,507.2C210.7,506.1 209.6,505.7 208.6,505.7C207.2,505.7 206.7,507.5 206.7,507.5C206.7,507.5 206.2,505.7 204.8,505.7C203.7,505.7 202.7,506.2 202.3,507.2C201.9,508.3 201.6,509.8 202.8,511C204,512.2 205.5,513 206.1,513.5C206.7,514.1 206.8,514.4 206.8,514.4C206.8,514.4 206.9,514.1 207.5,513.5C208.1,513 209.6,512.2 210.8,511C211.7,509.9 211.5,508.3 211.1,507.2Z" style="fill:rgb(253,5,21);fill-rule:nonzero;"/>
            <path d="M287,587.5C286.6,588.6 285.5,589 284.5,589C283.1,589 282.6,587.2 282.6,587.2C282.6,587.2 282.1,589 280.7,589C279.6,589 278.6,588.5 278.2,587.5C277.8,586.4 277.5,584.9 278.7,583.7C279.9,582.5 281.4,581.7 282,581.2C282.6,580.6 282.7,580.3 282.7,580.3C282.7,580.3 282.8,580.6 283.4,581.2C284,581.7 285.5,582.5 286.7,583.7C287.7,584.9 287.4,586.5 287,587.5Z" style="fill:rgb(253,5,21);fill-rule:nonzero;"/>
            <g>
                <path d="M253.8,498.7C253,496.5 250.8,495.6 248.5,495.6C245.6,495.6 244.5,499.3 244.5,499.3C244.5,499.3 243.4,495.6 240.5,495.6C238.2,495.6 236.1,496.6 235.2,498.7C234.4,500.9 233.8,504.2 236.2,506.5C238.6,508.9 241.8,510.6 242.9,511.6C244.2,512.8 244.4,513.5 244.4,513.5C244.4,513.5 244.6,512.8 245.9,511.6C247,510.6 250.2,508.8 252.6,506.5C255.2,504.1 254.6,500.9 253.8,498.7Z" style="fill:rgb(253,5,21);fill-rule:nonzero;"/>
                <path d="M235.3,596.1C236.1,598.3 238.3,599.2 240.6,599.2C243.5,599.2 244.6,595.5 244.6,595.5C244.6,595.5 245.7,599.2 248.6,599.2C250.9,599.2 253,598.2 253.9,596.1C254.7,593.9 255.3,590.6 252.9,588.3C250.5,585.9 247.3,584.2 246.2,583.2C244.9,582 244.7,581.3 244.7,581.3C244.7,581.3 244.5,582 243.2,583.2C242.1,584.2 238.9,586 236.5,588.3C233.9,590.6 234.5,593.9 235.3,596.1Z" style="fill:rgb(253,5,21);fill-rule:nonzero;"/>
                <path d="M235.3,553.2C236.1,555.4 238.3,556.3 240.6,556.3C243.5,556.3 244.6,552.6 244.6,552.6C244.6,552.6 245.7,556.3 248.6,556.3C250.9,556.3 253,555.3 253.9,553.2C254.7,551 255.3,547.7 252.9,545.4C250.5,543 247.3,541.3 246.2,540.3C244.9,539.1 244.7,538.4 244.7,538.4C244.7,538.4 244.5,539.1 243.2,540.3C242.1,541.3 238.9,543.1 236.5,545.4C233.9,547.8 234.5,551 235.3,553.2Z" style="fill:rgb(253,5,21);fill-rule:nonzero;"/>
            </g>
        </g>
    </g>
</svg>
