<?xml version="1.0" encoding="UTF-8" standalone="no"?>
<!DOCTYPE svg PUBLIC "-//W3C//DTD SVG 1.1//EN" "http://www.w3.org/Graphics/SVG/1.1/DTD/svg11.dtd">
<svg width="100%" height="100%" viewBox="0 0 98 127" version="1.1" xmlns="http://www.w3.org/2000/svg" xmlns:xlink="http://www.w3.org/1999/xlink" xml:space="preserve" xmlns:serif="http://www.serif.com/" style="fill-rule:evenodd;clip-rule:evenodd;stroke-linejoin:round;stroke-miterlimit:2;">
    <g transform="matrix(1,0,0,1,-801,-484)">
        <g>
            <path d="M884.8,610.8L815.2,610.8C807.7,610.8 801.7,604.7 801.7,597.3L801.7,497.5C801.7,490 807.8,484 815.2,484L884.8,484C892.3,484 898.3,490.1 898.3,497.5L898.3,597.3C898.3,604.7 892.3,610.8 884.8,610.8Z" style="fill:rgb(251,251,252);fill-rule:nonzero;"/>
            <g>
                <path d="M811,497.3C810.1,496.5 809.4,495.9 809.2,495.4C808.9,494.9 808.8,494.4 808.8,493.9C808.8,493.1 809.1,492.5 809.7,491.9C810.3,491.3 811.1,491.1 812.1,491.1C813.1,491.1 813.8,491.4 814.4,491.9C815,492.4 815.3,493 815.3,493.7C815.3,494.1 815.1,494.6 814.8,495.1C814.5,495.6 813.8,496.1 812.8,496.7C813.8,497.5 814.5,498.1 814.9,498.6C815.3,499.2 815.6,499.8 815.6,500.5C815.6,501.3 815.3,502.1 814.6,502.7C814,503.3 813.1,503.6 812.1,503.6C811,503.6 810.1,503.2 809.4,502.5C808.9,501.9 808.6,501.3 808.6,500.6C808.6,500.1 808.8,499.5 809.1,499C809.5,498.5 810.1,497.9 811,497.3ZM811.4,497.6C810.9,498 810.5,498.5 810.3,498.9C810.1,499.4 809.9,499.9 809.9,500.5C809.9,501.3 810.1,501.9 810.5,502.3C810.9,502.8 811.4,503 812.1,503C812.7,503 813.2,502.8 813.6,502.5C814,502.1 814.2,501.7 814.2,501.2C814.2,500.8 814.1,500.4 813.9,500.1C813.5,499.5 812.7,498.7 811.4,497.6ZM812.4,496.4C813.1,495.8 813.6,495.3 813.7,494.9C813.9,494.5 814,494.1 814,493.7C814,493.1 813.8,492.6 813.5,492.2C813.2,491.8 812.7,491.7 812.1,491.7C811.5,491.7 811,491.9 810.6,492.2C810.2,492.5 810,493 810,493.4C810,493.7 810.1,494 810.2,494.3C810.4,494.6 810.6,494.9 810.9,495.2L812.4,496.4Z" style="fill:rgb(253,5,21);fill-rule:nonzero;"/>
            </g>
            <g>
                <path d="M889,597.4C889.9,598.2 890.6,598.8 890.8,599.3C891.1,599.8 891.2,600.3 891.2,600.8C891.2,601.6 890.9,602.2 890.3,602.8C889.7,603.4 888.9,603.6 887.9,603.6C886.9,603.6 886.2,603.3 885.6,602.8C885,602.3 884.7,601.7 884.7,601C884.7,600.6 884.9,600.1 885.2,599.6C885.5,599.1 886.2,598.6 887.2,598C886.2,597.2 885.5,596.6 885.1,596.1C884.7,595.5 884.4,594.9 884.4,594.2C884.4,593.4 884.7,592.6 885.4,592C886,591.4 886.9,591.1 887.9,591.1C889,591.1 889.9,591.5 890.6,592.2C891.1,592.8 891.4,593.4 891.4,594.1C891.4,594.6 891.2,595.2 890.9,595.7C890.5,596.2 889.9,596.8 889,597.4ZM888.6,597.1C889.1,596.7 889.5,596.2 889.7,595.8C889.9,595.3 890.1,594.8 890.1,594.2C890.1,593.4 889.9,592.8 889.5,592.4C889.1,591.9 888.6,591.7 887.9,591.7C887.3,591.7 886.8,591.9 886.4,592.2C886,592.6 885.8,593 885.8,593.5C885.8,593.9 885.9,594.3 886.1,594.6C886.5,595.3 887.3,596.1 888.6,597.1ZM887.6,598.4C886.9,599 886.4,599.5 886.3,599.9C886.1,600.3 886,600.7 886,601.1C886,601.7 886.2,602.2 886.5,602.6C886.8,603 887.3,603.1 887.9,603.1C888.5,603.1 889,602.9 889.4,602.6C889.8,602.3 890,601.8 890,601.4C890,601.1 889.9,600.8 889.8,600.5C889.6,600.2 889.4,599.9 889.1,599.6L887.6,598.4Z" style="fill:rgb(253,5,21);fill-rule:nonzero;"/>
            </g>
            <path d="M816.5,507.2C816.1,506.1 815,505.7 814,505.7C812.6,505.7 812.1,507.5 812.1,507.5C812.1,507.5 811.6,505.7 810.2,505.7C809.1,505.7 808.1,506.2 807.7,507.2C807.3,508.3 807,509.8 808.2,511C809.4,512.2 810.9,513 811.5,513.5C812.1,514.1 812.2,514.4 812.2,514.4C812.2,514.4 812.3,514.1 812.9,513.5C813.5,513 815,512.2 816.2,511C817.2,509.9 816.9,508.3 816.5,507.2Z" style="fill:rgb(253,5,21);fill-rule:nonzero;"/>
            <path d="M892.5,587.5C892.1,588.6 891,589 890,589C888.6,589 888.1,587.2 888.1,587.2C888.1,587.2 887.6,589 886.2,589C885.1,589 884.1,588.5 883.7,587.5C883.3,586.4 883,584.9 884.2,583.7C885.4,582.5 886.9,581.7 887.5,581.2C888.1,580.6 888.2,580.3 888.2,580.3C888.2,580.3 888.3,580.6 888.9,581.2C889.5,581.7 891,582.5 892.2,583.7C893.1,584.9 892.9,586.5 892.5,587.5Z" style="fill:rgb(253,5,21);fill-rule:nonzero;"/>
            <g>
                <g>
                    <path d="M839.7,498.7C838.9,496.5 836.7,495.6 834.4,495.6C831.5,495.6 830.4,499.3 830.4,499.3C830.4,499.3 829.3,495.6 826.4,495.6C824.1,495.6 822,496.6 821.1,498.7C820.3,500.9 819.7,504.2 822.1,506.5C824.5,508.9 827.7,510.6 828.8,511.6C830.1,512.8 830.3,513.5 830.3,513.5C830.3,513.5 830.5,512.8 831.8,511.6C832.9,510.6 836.1,508.8 838.5,506.5C841.1,504.1 840.5,500.9 839.7,498.7Z" style="fill:rgb(253,5,21);fill-rule:nonzero;"/>
                    <path d="M821.2,596.1C822,598.3 824.2,599.2 826.5,599.2C829.4,599.2 830.5,595.5 830.5,595.5C830.5,595.5 831.6,599.2 834.5,599.2C836.8,599.2 838.9,598.2 839.8,596.1C840.6,593.9 841.2,590.6 838.8,588.3C836.4,585.9 833.2,584.2 832.1,583.2C830.8,582 830.6,581.3 830.6,581.3C830.6,581.3 830.4,582 829.1,583.2C828,584.2 824.8,586 822.4,588.3C819.8,590.6 820.4,593.9 821.2,596.1Z" style="fill:rgb(253,5,21);fill-rule:nonzero;"/>
                </g>
                <g>
                    <path d="M878.8,498.7C878,496.5 875.8,495.6 873.5,495.6C870.6,495.6 869.5,499.3 869.5,499.3C869.5,499.3 868.4,495.6 865.5,495.6C863.2,495.6 861.1,496.6 860.2,498.7C859.4,500.9 858.8,504.2 861.2,506.5C863.6,508.9 866.8,510.6 867.9,511.6C869.2,512.8 869.4,513.5 869.4,513.5C869.4,513.5 869.6,512.8 870.9,511.6C872,510.6 875.2,508.8 877.6,506.5C880.2,504.1 879.6,500.9 878.8,498.7Z" style="fill:rgb(253,5,21);fill-rule:nonzero;"/>
                    <path d="M821.2,553.2C822,555.4 824.2,556.3 826.5,556.3C829.4,556.3 830.5,552.6 830.5,552.6C830.5,552.6 831.6,556.3 834.5,556.3C836.8,556.3 838.9,555.3 839.8,553.2C840.6,551 841.2,547.7 838.8,545.4C836.4,543 833.2,541.3 832.1,540.3C830.8,539.1 830.6,538.4 830.6,538.4C830.6,538.4 830.4,539.1 829.1,540.3C828,541.3 824.8,543.1 822.4,545.4C819.8,547.8 820.4,551 821.2,553.2Z" style="fill:rgb(253,5,21);fill-rule:nonzero;"/>
                    <path d="M840.8,574.2C841.6,576.4 843.8,577.3 846.1,577.3C849,577.3 850.1,573.6 850.1,573.6C850.1,573.6 851.2,577.3 854.1,577.3C856.4,577.3 858.5,576.3 859.4,574.2C860.2,572 860.8,568.7 858.4,566.4C856,564.1 852.8,562.3 851.7,561.3C850.4,560.1 850.2,559.4 850.2,559.4C850.2,559.4 850,560.1 848.7,561.3C847.6,562.3 844.4,564.1 842,566.4C839.6,568.7 839.9,572 840.8,574.2Z" style="fill:rgb(253,5,21);fill-rule:nonzero;"/>
                    <path d="M859.2,522.1C858.4,519.9 856.2,519 853.9,519C851,519 849.9,522.7 849.9,522.7C849.9,522.7 848.8,519 845.9,519C843.6,519 841.5,520 840.6,522.1C839.8,524.3 839.2,527.6 841.6,529.9C844,532.3 847.2,534 848.3,535C849.6,536.2 849.8,536.9 849.8,536.9C849.8,536.9 850,536.2 851.3,535C852.4,534 855.6,532.2 858,529.9C860.6,527.6 860.1,524.3 859.2,522.1Z" style="fill:rgb(253,5,21);fill-rule:nonzero;"/>
                    <path d="M860.3,553.2C861.1,555.4 863.3,556.3 865.6,556.3C868.5,556.3 869.6,552.6 869.6,552.6C869.6,552.6 870.7,556.3 873.6,556.3C875.9,556.3 878,555.3 878.9,553.2C879.7,551 880.3,547.7 877.9,545.4C875.5,543 872.3,541.3 871.2,540.3C869.9,539.1 869.7,538.4 869.7,538.4C869.7,538.4 869.5,539.1 868.2,540.3C867.1,541.3 863.9,543.1 861.5,545.4C858.9,547.8 859.5,551 860.3,553.2Z" style="fill:rgb(253,5,21);fill-rule:nonzero;"/>
                    <path d="M860.3,596.1C861.1,598.3 863.3,599.2 865.6,599.2C868.5,599.2 869.6,595.5 869.6,595.5C869.6,595.5 870.7,599.2 873.6,599.2C875.9,599.2 878,598.2 878.9,596.1C879.7,593.9 880.3,590.6 877.9,588.3C875.5,585.9 872.3,584.2 871.2,583.2C869.9,582 869.7,581.3 869.7,581.3C869.7,581.3 869.5,582 868.2,583.2C867.1,584.2 863.9,586 861.5,588.3C858.9,590.6 859.5,593.9 860.3,596.1Z" style="fill:rgb(253,5,21);fill-rule:nonzero;"/>
                </g>
            </g>
        </g>
    </g>
</svg>
